<svg xmlns="http://www.w3.org/2000/svg" width="1920" height="1080" version="1.0" viewBox="0 0 1440 810"><defs><clipPath id="b"><path d="M51.53 161.63H1120v597.32H51.53Zm0 0"/></clipPath><clipPath id="c"><path d="M201.53 161.63h767.92c82.84 0 150 67.15 150 150v297.33c0 82.84-67.16 150-150 150H201.53c-82.84 0-150-67.16-150-150V311.62c0-82.84 67.16-150 150-150Zm0 0"/></clipPath><clipPath id="d"><path d="M51.53 161.63h1068v597h-1068Zm0 0"/></clipPath><clipPath id="e"><path d="M201.53 161.63h767.9c82.85 0 150 67.15 150 150v297.32c0 82.84-67.15 150-150 150h-767.9c-82.85 0-150-67.16-150-150V311.62c0-82.84 67.15-150 150-150Zm0 0"/></clipPath><clipPath id="f"><path d="M723.23 209.26h614.25V726H723.23Zm0 0"/></clipPath><clipPath id="g"><path d="M129 346h79v157h-79Zm0 0"/></clipPath><clipPath id="h"><path d="m116.2 494.79 25.46-156.2 74.76 12.2-25.46 156.18Zm0 0"/></clipPath><clipPath id="i"><path d="m116.2 494.79 25.46-156.2 74.76 12.2-25.46 156.18Zm0 0"/></clipPath><clipPath id="j"><path d="M152 136.44h129.77V586.7H152Zm0 0"/></clipPath><clipPath id="k"><path d="M270.7 142.48c.35 68.82.35 70.92 1.27 76.96 1.46 9.8 6.86 26.26 8.33 38.34 1.37 10.7 1.65 23.8 1 30.47-.36 3.3-.73 4.67-1.83 7.32-1.64 3.85-5.03 8.6-8.05 13a208.44 208.44 0 0 1-11.53 15.28c-4.48 5.03-9.6 9.97-14.64 14.36-4.85 4.22-8.78 6.96-15 11.35-9.8 6.96-29.84 19.13-38.71 25.62a115.44 115.44 0 0 0-10.98 8.88 46.6 46.6 0 0 0-5.5 6.04 27.18 27.18 0 0 0-3.65 6.04c-2.02 4.57-4.76 14.73-5.86 19.86-.73 3.1-.82 4.57-1.1 7.68-.36 4.85-.64 13.91-.18 18.48.27 2.75.55 4.21 1.46 6.6a46.12 46.12 0 0 0 5.86 10.7c2.56 3.57 6.68 6.31 9.6 9.7a92.08 92.08 0 0 1 7.79 10.25 43.31 43.31 0 0 1 3.75 7.04 106.5 106.5 0 0 1 5.12 15.01 74.88 74.88 0 0 1 2.01 13.09c.46 6.13.37 15.92.19 20.86-.1 2.74 0 4.2-.55 6.31-.46 2.38-1 4.03-2.66 7.23-4.11 7.6-20.22 31.2-26.16 35.6-2.11 1.55-3.76 2.1-5.4 1.83a6.5 6.5 0 0 1-4.49-3.39 6.95 6.95 0 0 1 .19-5.58 7.1 7.1 0 0 1 4.84-3.02 7.6 7.6 0 0 1 5.22 2.29c1 1.37 1.46 4.02.92 5.58-.46 1.65-2.57 3.38-4.03 3.94-1.2.54-2.75.36-3.84-.1a6.73 6.73 0 0 1-3.02-2.47 6.9 6.9 0 0 1-.92-3.75c.19-1.28.64-2.01 1.65-3.57 2.38-4.02 10.8-13.63 15.19-19.95 3.66-5.21 7.96-10.89 9.51-14.82.92-2.38.83-3.48 1.01-6.13.46-4.67.46-13.82-.09-19.77-.37-4.85-1-8.87-2.2-13.26-1.1-4.4-2.47-8.88-4.48-12.9-2.01-3.85-4.4-6.87-7.41-10.71-3.94-4.95-10.98-10.53-14.37-15.93-2.84-4.48-4.48-9.88-5.49-13.72a28.28 28.28 0 0 1-1.1-6.96c-.36-4.84-.27-13.08.28-19.48.64-6.32 1.65-13 3.2-18.67a84.85 84.85 0 0 1 4.94-13.55 27.46 27.46 0 0 1 3.57-6.13 79.44 79.44 0 0 1 12.81-13.36c10.9-9.15 38.62-24.8 50.06-33.21 6.3-4.58 9.7-7.32 14-11.35 4.3-4.02 7.86-7.87 11.9-12.8 4.93-6.05 12.62-15.84 14.9-21.24 1.2-2.83 1.1-4.12 1.38-7.23.46-5.4.55-14.46-.37-22.78-1.1-10.07-5.58-24.25-7.13-33.4-1.1-6.23-1.65-8.7-2.2-15.83-1-15.2-1.83-61.95-.28-70.65.37-2.1.55-2.83 1.38-3.75a5.89 5.89 0 0 1 3.56-1.83c1.47-.09 3.85.74 4.86 1.83.91.92 1.46 3.75 1.46 3.75"/></clipPath><clipPath id="l"><path d="M218.45 51.04H313V183.8h-94.55Zm0 0"/></clipPath><clipPath id="m"><path d="M1113 284h47v46h-47Zm0 0"/></clipPath><clipPath id="n"><path d="m1095.47 273.21 93.28 19.27-26.85 130-93.28-19.26Zm0 0"/></clipPath><clipPath id="o"><path d="m1095.47 273.21 93.28 19.27-26.85 130-93.28-19.26Zm0 0"/></clipPath><clipPath id="p"><path d="M1069 280h96v141h-96Zm0 0"/></clipPath><clipPath id="q"><path d="m1095.47 273.21 93.28 19.27-26.85 130-93.28-19.26Zm0 0"/></clipPath><clipPath id="r"><path d="m1095.47 273.21 93.28 19.27-26.85 130-93.28-19.26Zm0 0"/></clipPath><clipPath id="s"><path d="M925 586h46v46h-46Zm0 0"/></clipPath><clipPath id="t"><path d="m909.71 571.62 91.34 26.99-37.6 127.31-91.35-26.99Zm0 0"/></clipPath><clipPath id="u"><path d="m909.71 571.62 91.34 26.99-37.6 127.31-91.35-26.99Zm0 0"/></clipPath><clipPath id="v"><path d="M873 581h103v143H873Zm0 0"/></clipPath><clipPath id="w"><path d="m909.71 571.62 91.34 26.99-37.6 127.31-91.35-26.99Zm0 0"/></clipPath><clipPath id="x"><path d="m909.71 571.62 91.34 26.99-37.6 127.31-91.35-26.99Zm0 0"/></clipPath><clipPath id="y"><path d="M731 551h48v44h-48Zm0 0"/></clipPath><clipPath id="z"><path d="m705 554.4 94.36-13.03 18.16 131.5-94.35 13.03Zm0 0"/></clipPath><clipPath id="A"><path d="m705 554.4 94.36-13.03 18.16 131.5-94.35 13.03Zm0 0"/></clipPath><clipPath id="B"><path d="M722 546h94v139h-94Zm0 0"/></clipPath><clipPath id="C"><path d="m705 554.4 94.36-13.03 18.16 131.5-94.35 13.03Zm0 0"/></clipPath><clipPath id="D"><path d="m705 554.4 94.36-13.03 18.16 131.5-94.35 13.03Zm0 0"/></clipPath><clipPath id="E"><path d="M1285 618h46v47h-46Zm0 0"/></clipPath><clipPath id="F"><path d="m1255.03 632.16 90.85-28.62 39.89 126.61-90.85 28.63Zm0 0"/></clipPath><clipPath id="G"><path d="m1255.03 632.16 90.85-28.62 39.89 126.61-90.85 28.63Zm0 0"/></clipPath><clipPath id="H"><path d="M1280 614h104v143h-104Zm0 0"/></clipPath><clipPath id="I"><path d="m1255.03 632.16 90.85-28.62 39.89 126.61-90.85 28.63Zm0 0"/></clipPath><clipPath id="J"><path d="m1255.03 632.16 90.85-28.62 39.89 126.61-90.85 28.63Zm0 0"/></clipPath><clipPath id="M"><path d="M32 38h48v44H32Zm0 0"/></clipPath><clipPath id="N"><path d="m7.5 82.09 57.8-75.7 105.52 80.56-57.8 75.7Zm0 0"/></clipPath><clipPath id="O"><path d="m7.5 82.09 57.8-75.7 105.52 80.56-57.8 75.7Zm0 0"/></clipPath><clipPath id="P"><path d="M27 33h141v128H27Zm0 0"/></clipPath><clipPath id="Q"><path d="m7.5 82.09 57.8-75.7 105.52 80.56-57.8 75.7Zm0 0"/></clipPath><clipPath id="R"><path d="m7.5 82.09 57.8-75.7 105.52 80.56-57.8 75.7Zm0 0"/></clipPath><clipPath id="L"><path d="M0 0h177v169H0z"/></clipPath><clipPath id="S"><path d="M178 406h48v44h-48Zm0 0"/></clipPath><clipPath id="T"><path d="m153.5 450.09 57.8-75.7 54.84 41.87-57.8 75.7Zm0 0"/></clipPath><clipPath id="U"><path d="m153.5 450.09 57.8-75.7 105.52 80.56-57.8 75.7Zm0 0"/></clipPath><clipPath id="V"><path d="M173 401h94v91h-94Zm0 0"/></clipPath><clipPath id="W"><path d="m153.5 450.09 57.8-75.7 54.84 41.87-57.8 75.7Zm0 0"/></clipPath><clipPath id="X"><path d="m153.5 450.09 57.8-75.7 105.52 80.56-57.8 75.7Zm0 0"/></clipPath><clipPath id="Y"><path d="M919 362h46v47h-46Zm0 0"/></clipPath><clipPath id="Z"><path d="m903.86 347.94 91.25 27.3-38.06 127.18-91.25-27.3Zm0 0"/></clipPath><clipPath id="aa"><path d="m903.86 347.94 91.25 27.3-38.06 127.18-91.25-27.3Zm0 0"/></clipPath><clipPath id="ab"><path d="M867 357h103v144H867Zm0 0"/></clipPath><clipPath id="ac"><path d="m903.86 347.94 91.25 27.3-38.06 127.18-91.25-27.3Zm0 0"/></clipPath><clipPath id="ad"><path d="m903.86 347.94 91.25 27.3-38.06 127.18-91.25-27.3Zm0 0"/></clipPath><clipPath id="ae"><path d="M1285 329h48v44h-48Zm0 0"/></clipPath><clipPath id="af"><path d="m1259.8 329.65 94.97-7.15 9.97 132.38-94.98 7.15Zm0 0"/></clipPath><clipPath id="ag"><path d="m1259.8 329.65 94.97-7.15 9.97 132.38-94.98 7.15Zm0 0"/></clipPath><clipPath id="ah"><path d="M1269 325h95v136h-95Zm0 0"/></clipPath><clipPath id="ai"><path d="m1259.8 329.65 94.97-7.15 9.97 132.38-94.98 7.15Zm0 0"/></clipPath><clipPath id="aj"><path d="m1259.8 329.65 94.97-7.15 9.97 132.38-94.98 7.15Zm0 0"/></clipPath><clipPath id="ak"><path d="M319.12 215.91h59.9V276h-59.9Zm0 0"/></clipPath><clipPath id="al"><path d="M349.07 215.91a29.95 29.95 0 1 0 0 59.91 29.95 29.95 0 0 0 0-59.9Zm0 0"/></clipPath><clipPath id="am"><path d="M225.95 545.5h59.9v60.13h-59.9Zm0 0"/></clipPath><clipPath id="an"><path d="M255.9 545.5a29.95 29.95 0 1 0 0 59.9 29.95 29.95 0 0 0 0-59.9Zm0 0"/></clipPath><clipPath id="ao"><path d="M1011.52 487.67h59.9v60.13h-59.9Zm0 0"/></clipPath><clipPath id="ap"><path d="M1041.48 487.67a29.95 29.95 0 1 0 0 59.9 29.95 29.95 0 0 0 0-59.9Zm0 0"/></clipPath><filter id="a" width="100%" height="100%" x="0%" y="0%"><feColorMatrix color-interpolation-filters="sRGB" values="0 0 0 0 1 0 0 0 0 1 0 0 0 0 1 0 0 0 1 0"/></filter><mask id="K"><g filter="url(#a)"><path fill-opacity=".15" d="M-144-81h1728v972H-144z"/></g></mask></defs><path fill="none" stroke="#000" stroke-width="7.5" d="m750.73 165.03 80.52-37.08"/><g clip-path="url(#b)"><g clip-path="url(#c)"><path fill="#fffae7" d="M51.53 161.63h1068.66v597.33H51.53Zm0 0"/></g></g><g clip-path="url(#d)"><g clip-path="url(#e)"><path fill="none" stroke="#ffbd59" stroke-width="30" d="M201.53 161.62h767.9c82.85 0 150 67.16 150 150v297.33c0 82.84-67.15 150-150 150h-767.9c-82.85 0-150-67.16-150-150V311.62c0-82.84 67.15-150 150-150Zm0 0"/></g></g><g clip-path="url(#f)"><path fill="#fffae7" d="M813.4 707.23c-4.82-2.4-9.68-4.55-14.27-7.15a195.6 195.6 0 0 1-16.57-10.23c-4.75-3.35-9.1-7.28-13.5-11.09a79.93 79.93 0 0 1-7.27-7.28 177.6 177.6 0 0 1-9.34-11.5 161.32 161.32 0 0 1-8.29-12.73 123.67 123.67 0 0 1-6.34-12.14c-3.1-6.88-6.3-13.77-8.71-20.89-1.9-5.56-2.68-11.47-3.97-17.23-1.9-8.71-1.67-17.54-1.51-26.37.07-3.08.7-6.15 1.16-9.22.31-1.99.7-3.97 1.13-5.95.62-3 1.2-5.96 1.94-8.91 1.1-4.28 2.26-8.52 3.5-12.76.63-2.07 1.52-4.05 2.3-6.03 2.37-6.19 5.1-12.21 8.68-17.82 2.8-4.4 5.36-8.95 8.28-13.26 3.04-4.47 6.22-8.91 9.65-13.11 3.54-4.4 7.27-8.76 11.24-12.76 2.26-2.26 4.28-4.67 6.3-7.08 2.53-3.04 5.76-5.49 8.52-8.33 3.97-4.08 8.05-8.09 11.63-12.48 4.05-4.95 7.9-10.12 11.24-15.56 2.76-4.51 4.83-9.53 6.85-14.44 1.71-4.08 3-8.36 4.36-12.6.54-1.75.78-3.58 1.13-5.37.42-2.21.81-4.47 1.2-6.69.39-2.25.7-4.51 1.13-6.73.47-2.53.97-5.02 1.48-7.54.04-.12.04-.24.04-.36.27-3.65.43-7.3.81-10.96.43-4.32 1.01-8.64 1.52-12.96.27-2.22.39-4.47.82-6.69.82-4.36 1.44-8.83 2.8-13.03a89.26 89.26 0 0 1 6.22-14.9c2.5-4.55 5.68-8.8 9-12.8 4.73-5.76 10.69-10.39 16.52-14.98 4.01-3.15 8.48-5.75 12.8-8.48 2.92-1.82 5.95-3.42 8.99-5.09 3.26-1.8 6.42-3.93 9.88-5.3 6.34-2.48 12.87-4.62 19.37-6.76 3.62-1.17 7.27-2.26 10.97-3.03 4.67-.98 9.45-1.6 14.16-2.46 2.14-.38 4.28-.97 6.42-1.43.2-.04.35-.08.54-.08 4.16-.28 8.33-.55 12.53-.78 4.35-.27 8.75-.82 13.1-.7 4.6.15 9.19.97 13.74 1.48.7.08 1.44.04 2.14 0 4.7-.2 9.18.9 13.65 2.21 3.35.98 6.93 1.21 10.39 1.68 4.4.58 8.75 1.09 13.15 1.55 1.16.12 2.33 0 3.5 0 4 0 8.05.16 12.06-.04 2.88-.15 5.72-.85 8.56-1.32.23-.04.46-.2.7-.15 3.38.19 6.57-1.01 9.88-1.44a51.6 51.6 0 0 0 12.13-3.2c3.97-1.55 7.94-3.1 11.83-4.82 4.32-1.9 8.64-3.96 12.84-6.1 3.73-1.95 7.23-4.4 11.08-6.15 5.37-2.45 11.01-4.4 16.46-6.73 3.34-1.44 6.57-3.2 9.88-4.78 1.36-.67 2.72-1.21 4.12-1.8 5.64-2.3 11.25-4.78 17-6.84 5.3-1.87 10.62-3.7 16.1-4.7 6.47-1.21 12.92-2.65 19.65-2.54 4.44.08 8.71.78 12.96 1.71 4.55 1.06 8.94 2.73 13.41 4.2 5.18 1.72 9.93 4.4 14.48 7.28 5.06 3.23 9.6 7 14.2 10.9 7.39 6.22 12.75 13.92 17.58 22.09 2.72 4.59 5.21 9.37 7.39 14.24a247.42 247.42 0 0 1 7.39 18.7c1.6 4.6 2.65 9.42 3.97 14.13 1.32 4.7 2.72 9.38 3.97 14.12.9 3.42 1.43 6.92 2.25 10.34 1.52 6.23 3.11 12.45 4.67 18.68.94 3.77 1.75 7.58 2.76 11.32 1.75 6.54 3.5 13.07 5.45 19.53a672.4 672.4 0 0 0 7.78 24.2c3.11 9.06 6.5 18.04 9.68 27.1 3.97 11.21 8.06 22.37 11.75 33.66 1.56 4.7 2.34 9.68 3.39 14.55.81 3.8 1.67 7.62 2.3 11.47.42 2.72.7 5.49.77 8.25.31 9.1.74 18.2.7 27.3 0 3.82-.97 7.63-1.48 11.4-.03.31.04.67 0 .97-.5 3.16-1 6.35-1.52 9.5-.5 3.07-1 6.18-1.59 9.25-1.28 7.16-3.42 14.09-5.8 20.93-1.9 5.45-4.16 10.7-6.45 16a142.5 142.5 0 0 1-13.5 24 89.17 89.17 0 0 1-13.97 16.14 231.48 231.48 0 0 1-13.88 11.55c-3.82 3-7.7 5.99-11.87 8.44a156.29 156.29 0 0 1-15.87 8.17c-4.2 1.9-8.6 3.38-13.03 4.7a496.92 496.92 0 0 1-21.52 5.84c-3.8.94-7.73 1.83-11.62 1.83-3.12 0-6 1.36-9.07.94-2.33-.32-4.55.7-6.73.66-5.3-.08-10.46.7-15.68.85-5.44.16-10.93.4-16.33-.08-5.1-.42-10.31-.07-15.33-1.43h-.2c-4.04-.28-8.09-.43-12.13-.82-3.78-.4-7.47-1.01-11.25-1.52-2.33-.3-4.7-.47-7.07-.82-3.23-.46-6.46-1.05-9.65-1.51a101.4 101.4 0 0 0-6.1-.78c-3.32-.31-6.7-.35-10-.82-6.39-.93-12.77-.82-19.14-.7-4.56.08-9.15.27-13.7.82-4.75.54-9.45 1.6-14.2 2.26a147.87 147.87 0 0 0-30.26 7.46 201.34 201.34 0 0 0-15.33 6.23c-7.86 3.62-15.6 7.4-23.34 11.28-3.89 1.94-7.55 4.32-11.36 6.38a339.01 339.01 0 0 1-37.1 17.86c-7.4 2.95-15.02 4.86-22.69 6.76-2.72.67-5.64.74-8.48.82-4.28.12-8.56-.04-12.84.04-4.78.08-9.45-.58-14.15-1.48-7.51-1.48-14.98-3.07-22.22-5.56-4.67-1.6-9.26-3.27-13.8-5.14-4.44-1.98-9.07-4.24-13.9-6.46Zm0 0"/></g><g clip-path="url(#g)"><g clip-path="url(#h)"><g clip-path="url(#i)"><path fill="#ffbd59" d="M152.59 348.4c-8.2 3.27-14.4 11.46-15.07 20.3-.76 10.03 3.07 20.28 2.94 30.22-.11 8.67-2.14 17.15-4.3 25.5-3.96 15.2-8.96 31.31-4.3 46.95a45.47 45.47 0 0 0 26.11 28.7c5.34 2.14 11.73 3.3 17.23 1.02 6.33-2.61 8.51-9.02 8.66-15.4.2-7.78-1.28-15.3.09-23.08 1.44-8.22 4.78-15.97 8.34-23.45 6.5-13.69 14.58-27.52 15.34-43.03.63-13.15-4.52-26.27-13.5-35.83-10.2-10.84-26.98-17.73-41.54-11.9Zm0 0"/></g></g></g><g clip-path="url(#j)"><g clip-path="url(#k)"><path fill="#b692ff" d="M148.71 133.24h136.25V589.9H148.71Zm0 0"/></g></g><path fill="none" stroke="#000" stroke-width="7.5" d="m271.53 114.1 54.13-13.3"/><path fill="#b692ff" d="M277.38 55.76H253.8l-11.78 20.4 11.78 20.42h23.57l11.79-20.41Zm0 0"/><g clip-path="url(#l)"><path fill="#8c52ff" d="M312.4 176.57 302.97 153a4.62 4.62 0 0 0-2.88-2.73l-25.07-8.34v-40.64h2.36a4.67 4.67 0 0 0 4.1-2.35l11.78-20.41a4.64 4.64 0 0 0 0-4.72l-11.78-20.4a4.64 4.64 0 0 0-4.1-2.36H253.8a4.63 4.63 0 0 0-4.1 2.35l-11.78 20.41a4.63 4.63 0 0 0 0 4.72l11.79 20.4a4.66 4.66 0 0 0 4.1 2.36h2.35v40.64l-25.07 8.34a4.7 4.7 0 0 0-2.88 2.73l-9.42 23.57a4.62 4.62 0 0 0 .04 3.61 4.8 4.8 0 0 0 3.48 2.77 4.57 4.57 0 0 0 2.73-.3 4.8 4.8 0 0 0 2.51-2.6l8.63-21.53 11.87-3.77-5.09 6.6a4.6 4.6 0 0 0-.94 2.82v14.14a4.58 4.58 0 0 0 .8 2.62 4.84 4.84 0 0 0 3 2 4.84 4.84 0 0 0 2.72-.26 4.67 4.67 0 0 0 2.9-4.36v-12.58l11.8-15.7h4.7l11.79 15.7v12.58a4.88 4.88 0 0 0 .8 2.62 4.84 4.84 0 0 0 3 2 4.81 4.81 0 0 0 3.53-.7 4.7 4.7 0 0 0 2.1-3.92v-14.14a4.6 4.6 0 0 0-.95-2.83l-5.08-6.6L295 158.7l8.63 21.55a4.54 4.54 0 0 0 1 1.54 4.66 4.66 0 0 0 5.95.67 4.86 4.86 0 0 0 1.76-2.1 4.94 4.94 0 0 0 .31-2.72c-.05-.3-.14-.6-.25-.88Zm-64.96-100.4 9.1-15.7h18.15l9.05 15.7-9.05 15.7h-18.15Zm0 0"/></g><g clip-path="url(#m)"><g clip-path="url(#n)"><g clip-path="url(#o)"><path fill="#c1a9f2" d="m1152.22 289.75-23.08-4.77-15.67 17.6 7.4 22.38 23.1 4.76 15.66-17.6Zm0 0"/></g></g></g><g clip-path="url(#p)"><g clip-path="url(#q)"><g clip-path="url(#r)"><path fill="#8c52ff" d="m1162.08 415.14-4.47-24.98a4.64 4.64 0 0 0-2.26-3.26l-22.87-13.25 8.22-39.79 2.3.48a4.6 4.6 0 0 0 2.45-.14c.8-.26 1.49-.7 2.05-1.34l15.67-17.6a4.63 4.63 0 0 0 .95-4.62l-7.4-22.37a4.63 4.63 0 0 0-3.55-3.14l-23.08-4.77a4.65 4.65 0 0 0-4.5 1.48l-15.66 17.6a4.64 4.64 0 0 0-.95 4.62l7.4 22.37a4.63 4.63 0 0 0 3.55 3.14l2.3.48-8.21 39.79-26.25 3.1a4.7 4.7 0 0 0-3.37 2.1l-14 21.17a4.7 4.7 0 1 0 7.88 5.19l12.8-19.35 12.4-1.3-6.32 5.44a4.58 4.58 0 0 0-1.5 2.58l-2.86 13.85a4.55 4.55 0 0 0 0 1.84 4.71 4.71 0 0 0 9.24.06l2.55-12.32 14.71-12.99 4.62.95 8.36 17.76-2.55 12.33a4.82 4.82 0 0 0 .25 2.72 4.55 4.55 0 0 0 1.72 2.13 4.68 4.68 0 0 0 4.42.47 4.93 4.93 0 0 0 2.13-1.73 4.76 4.76 0 0 0 .72-1.69l2.86-13.85a4.6 4.6 0 0 0-.35-2.96l-3.65-7.49 10.83 6.28 4.09 22.84a4.6 4.6 0 0 0 1.24 2.44 4.47 4.47 0 0 0 1.5 1.05 4.72 4.72 0 0 0 6.55-5.13Zm-43.3-111.46 12.08-13.53 17.77 3.67 5.69 17.2-12.04 13.54-17.77-3.67Zm0 0"/></g></g></g><g clip-path="url(#s)"><g clip-path="url(#t)"><g clip-path="url(#u)"><path fill="#c1a9f2" d="m964.88 592.84-22.6-6.68-17.09 16.23 5.52 22.92 22.6 6.67 17.09-16.23Zm0 0"/></g></g></g><g clip-path="url(#v)"><g clip-path="url(#w)"><g clip-path="url(#x)"><path fill="#8c52ff" d="m964.23 718.62-2.36-25.27a4.72 4.72 0 0 0-1.98-3.44l-21.68-15.1 11.5-38.97 2.27.66c.8.25 1.63.27 2.45.07.82-.2 1.53-.58 2.15-1.16l17.08-16.24a4.65 4.65 0 0 0 1.34-4.52l-5.52-22.91a4.65 4.65 0 0 0-3.27-3.42l-22.6-6.68a4.65 4.65 0 0 0-4.6 1.1l-17.08 16.23a4.6 4.6 0 0 0-1.27 2.08c-.24.81-.27 1.63-.07 2.44l5.52 22.92a4.65 4.65 0 0 0 3.26 3.42l2.27.67-11.51 38.96-26.42.9a4.6 4.6 0 0 0-3.53 1.8l-15.72 19.94a4.62 4.62 0 0 0-.78 4.38 5.11 5.11 0 0 0 .9 1.6 4.9 4.9 0 0 0 2.32 1.47 4.78 4.78 0 0 0 4.34-.96c.24-.2.45-.42.64-.66l14.37-18.22 12.46-.25-6.75 4.89a4.59 4.59 0 0 0-1.7 2.44l-4.01 13.56a4.8 4.8 0 0 0 .38 3.6 4.6 4.6 0 0 0 1.95 1.91 4.77 4.77 0 0 0 5.2-.55 4.48 4.48 0 0 0 1.17-1.43c.14-.27.25-.56.34-.86l3.57-12.07 15.75-11.71 4.52 1.33 6.85 18.4-3.57 12.07a4.76 4.76 0 0 0 2.33 5.5 4.95 4.95 0 0 0 1.77.53 4.58 4.58 0 0 0 2.68-.56 4.61 4.61 0 0 0 2.27-2.8l4-13.56c.3-1 .27-2-.1-2.98l-3.01-7.77 10.27 7.16 2.17 23.1a5.13 5.13 0 0 0 .52 1.77 4.82 4.82 0 0 0 2.78 2.3 4.72 4.72 0 0 0 6.1-4.93ZM930.4 603.93l13.17-12.47 17.4 5.14 4.24 17.61-13.13 12.5-17.4-5.15Zm0 0"/></g></g></g><g clip-path="url(#y)"><g clip-path="url(#z)"><g clip-path="url(#A)"><path fill="#c1a9f2" d="m764.01 551-23.35 3.23-8.87 21.84 14.46 18.6 23.35-3.22 8.88-21.84Zm0 0"/></g></g></g><g clip-path="url(#B)"><g clip-path="url(#C)"><g clip-path="url(#D)"><path fill="#8c52ff" d="m815.24 665.9-12.57-22.07a4.7 4.7 0 0 0-3.22-2.31l-25.98-4.83-5.56-40.25 2.33-.33a4.65 4.65 0 0 0 3.74-2.9l8.88-21.82c.32-.78.42-1.59.3-2.42a4.62 4.62 0 0 0-.94-2.25l-14.47-18.6a4.65 4.65 0 0 0-4.38-1.77l-23.35 3.22a4.61 4.61 0 0 0-3.74 2.9l-8.88 21.82a4.57 4.57 0 0 0-.3 2.42c.11.84.43 1.59.95 2.25l14.46 18.6a4.64 4.64 0 0 0 4.38 1.78l2.34-.32 5.56 40.25-23.7 11.7a4.74 4.74 0 0 0-2.47 3.1l-6.12 24.63a4.82 4.82 0 0 0 .55 3.57 4.9 4.9 0 0 0 2.04 1.83 4.62 4.62 0 0 0 3.6.17 4.65 4.65 0 0 0 2.67-2.44c.13-.28.23-.57.3-.87l5.6-22.52 11.26-5.37-4.14 7.24c-.51.92-.7 1.9-.55 2.93l1.93 14a4.64 4.64 0 0 0 1.15 2.5 4.66 4.66 0 0 0 4.17 1.53 4.79 4.79 0 0 0 3.6-2.61 4.53 4.53 0 0 0 .42-2.7l-1.72-12.47 9.53-17.16 4.66-.65 13.82 13.94 1.73 12.47a4.63 4.63 0 0 0 1.82 3.1 4.65 4.65 0 0 0 4.4.7 4.77 4.77 0 0 0 3.15-4.17c.02-.31.01-.61-.03-.92l-1.94-14.01a4.57 4.57 0 0 0-1.32-2.67l-5.95-5.84 12.31 2.3 11.5 20.15a4.66 4.66 0 0 0 3.75 2.38 4.59 4.59 0 0 0 2.67-.6 4.6 4.6 0 0 0 1.9-1.99 4.5 4.5 0 0 0 .48-1.77 4.85 4.85 0 0 0-.6-2.67Zm-78.08-90.58 6.86-16.79 17.98-2.48 11.1 14.3-6.8 16.8-17.98 2.48Zm0 0"/></g></g></g><g clip-path="url(#E)"><g clip-path="url(#F)"><g clip-path="url(#G)"><path fill="#c1a9f2" d="m1312.64 618.95-22.48 7.09-5.1 23 17.37 15.93 22.48-7.08 5.1-23.01Zm0 0"/></g></g></g><g clip-path="url(#H)"><g clip-path="url(#I)"><g clip-path="url(#J)"><path fill="#8c52ff" d="M1382.35 723.66 1366.28 704a4.64 4.64 0 0 0-3.57-1.74l-26.42-.43-12.21-38.75 2.25-.7c.8-.26 1.5-.7 2.06-1.32.58-.62.96-1.34 1.14-2.17l5.1-23a4.7 4.7 0 0 0-1.41-4.5l-17.37-15.93a4.67 4.67 0 0 0-4.62-1.01l-22.48 7.08c-.8.25-1.5.69-2.07 1.31a4.62 4.62 0 0 0-1.14 2.17l-5.1 23a4.65 4.65 0 0 0 1.42 4.5l17.37 15.93c.62.57 1.34.95 2.17 1.13a4.6 4.6 0 0 0 2.45-.12l2.25-.7 12.2 38.75-21.4 15.5a4.64 4.64 0 0 0-1.92 3.47l-1.91 25.3a4.58 4.58 0 0 0 .6 2.68 4.6 4.6 0 0 0 1.98 1.89 4.53 4.53 0 0 0 1.78.49 4.9 4.9 0 0 0 2.67-.6 4.63 4.63 0 0 0 2.38-3.76l1.75-23.14 10.2-7.16-2.88 7.82a4.61 4.61 0 0 0-.05 2.98l4.25 13.48a4.7 4.7 0 0 0 6.77 2.72 4.65 4.65 0 0 0 2.43-3.72 4.84 4.84 0 0 0-.2-1.83l-3.79-12 6.53-18.51 4.49-1.42 15.96 11.43 3.78 12a4.7 4.7 0 0 0 5.91 3.08 4.81 4.81 0 0 0 2.77-2.32 4.77 4.77 0 0 0 .31-3.59l-4.25-13.49c-.31-1-.9-1.8-1.75-2.41l-6.84-4.76 12.52.2 14.7 17.96a4.93 4.93 0 0 0 2.28 1.52 4.77 4.77 0 0 0 5.53-2.27 4.9 4.9 0 0 0 .55-2.68 4.48 4.48 0 0 0-.53-1.76 4.6 4.6 0 0 0-.51-.77Zm-92.12-76.25 3.96-17.7 17.3-5.45 13.36 12.25-3.92 17.69-17.3 5.45Zm0 0"/></g></g></g><g mask="url(#K)"><g clip-path="url(#L)" transform="translate(146 368)"><g clip-path="url(#M)"><g clip-path="url(#N)"><g clip-path="url(#O)"><path fill="#c1a9f2" d="M47 38.12 32.7 56.85l9.07 21.76 23.37 3.02 14.3-18.74-9.06-21.75Zm0 0"/></g></g></g><g clip-path="url(#P)"><g clip-path="url(#Q)"><g clip-path="url(#R)"><path fill="#8c52ff" d="m164.28 83.6-24.46-6.81a4.68 4.68 0 0 0-3.91.62L114.06 92.3l-32.3-24.67 1.44-1.87a4.64 4.64 0 0 0 .6-4.69l-9.06-21.75a4.65 4.65 0 0 0-3.75-2.86l-23.37-3.02a4.7 4.7 0 0 0-4.36 1.83L28.96 54a4.64 4.64 0 0 0-.62 4.7l9.07 21.74a4.65 4.65 0 0 0 3.75 2.87l23.37 3.02a4.7 4.7 0 0 0 4.36-1.84l1.43-1.87 32.3 24.66-8.59 25a4.68 4.68 0 0 0 .43 3.95l13 21.78a4.87 4.87 0 0 0 2.04 1.84 4.82 4.82 0 0 0 2.7.4 4.73 4.73 0 0 0 3.36-7.09l-11.88-19.93 4.2-11.73 2.16 8.05c.29 1.01.85 1.84 1.68 2.47l11.24 8.58a4.79 4.79 0 0 0 2.56.96 4.6 4.6 0 0 0 2.66-.63 4.68 4.68 0 0 0 2.1-5.6 4.82 4.82 0 0 0-1.6-2.22l-10-7.64-5.33-18.89 2.86-3.75 19.63.16 10 7.64a4.77 4.77 0 0 0 4.39.71 4.4 4.4 0 0 0 1.59-.92 4.7 4.7 0 0 0-.26-7.28l-11.24-8.58a4.6 4.6 0 0 0-2.82-.97l-8.33.04 10.35-7.04 22.36 6.22a4.54 4.54 0 0 0 1.83.14 4.49 4.49 0 0 0 1.75-.57 4.47 4.47 0 0 0 1.4-1.2 4.77 4.77 0 0 0 .4-5.22 4.63 4.63 0 0 0-1.97-1.9 4.84 4.84 0 0 0-.86-.34ZM45.06 74.3l-6.95-16.76 11-14.42 17.98 2.33 6.98 16.72-11.01 14.42Zm0 0"/></g></g></g></g></g><g clip-path="url(#S)"><g clip-path="url(#T)"><g clip-path="url(#U)"><path fill="#c1a9f2" d="m193 406.12-14.3 18.73 9.07 21.76 23.37 3.01 14.3-18.73-9.06-21.75Zm0 0"/></g></g></g><g clip-path="url(#V)"><g clip-path="url(#W)"><g clip-path="url(#X)"><path fill="#8c52ff" d="m310.28 451.6-24.46-6.81a4.68 4.68 0 0 0-3.91.62l-21.85 14.88-32.3-24.67 1.44-1.87a4.64 4.64 0 0 0 .6-4.69l-9.06-21.75a4.65 4.65 0 0 0-3.75-2.86l-23.37-3.02a4.7 4.7 0 0 0-4.36 1.83L174.96 422a4.64 4.64 0 0 0-.62 4.7l9.07 21.74a4.65 4.65 0 0 0 3.75 2.86l23.37 3.03a4.7 4.7 0 0 0 4.36-1.84l1.43-1.87 32.3 24.66-8.59 25a4.68 4.68 0 0 0 .43 3.95l13 21.78a4.87 4.87 0 0 0 2.04 1.84 4.82 4.82 0 0 0 2.7.4 4.73 4.73 0 0 0 3.36-7.09l-11.88-19.93 4.2-11.73 2.16 8.05c.29 1.01.85 1.83 1.68 2.47l11.24 8.58a4.79 4.79 0 0 0 2.56.96 4.6 4.6 0 0 0 2.66-.63 4.68 4.68 0 0 0 2.1-5.6 4.82 4.82 0 0 0-1.6-2.22l-10-7.64-5.33-18.89 2.86-3.75 19.63.16 10 7.64a4.65 4.65 0 0 0 3.49.92 4.42 4.42 0 0 0 1.74-.6 4.68 4.68 0 0 0 1.7-6.43 4.68 4.68 0 0 0-1.2-1.38l-11.25-8.58a4.6 4.6 0 0 0-2.82-.97l-8.33.04 10.35-7.04 22.36 6.22a4.54 4.54 0 0 0 1.83.14 4.43 4.43 0 0 0 1.75-.57 4.47 4.47 0 0 0 1.4-1.2 4.77 4.77 0 0 0 .4-5.22 4.63 4.63 0 0 0-1.97-1.9 4.92 4.92 0 0 0-.86-.34Zm-119.22-9.3-6.95-16.76 11-14.42 17.98 2.33 6.98 16.72-11.01 14.42Zm0 0"/></g></g></g><g clip-path="url(#Y)"><g clip-path="url(#Z)"><g clip-path="url(#aa)"><path fill="#c1a9f2" d="m958.96 369.34-22.58-6.75-17.15 16.17 5.45 22.94 22.57 6.75 17.14-16.17Zm0 0"/></g></g></g><g clip-path="url(#ab)"><g clip-path="url(#ac)"><g clip-path="url(#ad)"><path fill="#8c52ff" d="m957.87 495.13-2.27-25.29a4.67 4.67 0 0 0-1.97-3.44L932 451.2l11.64-38.92 2.26.67c.81.25 1.63.28 2.45.08.82-.19 1.54-.58 2.16-1.16l17.14-16.17a4.65 4.65 0 0 0 1.35-4.52l-5.44-22.93a4.64 4.64 0 0 0-3.25-3.43l-22.58-6.76a4.68 4.68 0 0 0-4.6 1.08l-17.15 16.18a4.63 4.63 0 0 0-1.35 4.51l5.44 22.94a4.67 4.67 0 0 0 3.25 3.43l2.26.68-11.65 38.92-26.41.8a4.71 4.71 0 0 0-3.54 1.8l-15.79 19.88a4.81 4.81 0 0 0-1 2.55 4.54 4.54 0 0 0 .58 2.67 4.39 4.39 0 0 0 1.2 1.4 4.96 4.96 0 0 0 1.63.84 4.78 4.78 0 0 0 4.35-.94c.23-.2.45-.43.64-.67l14.44-18.16 12.46-.21-6.77 4.86a4.58 4.58 0 0 0-1.71 2.44l-4.06 13.55a4.52 4.52 0 0 0-.17 1.83 4.5 4.5 0 0 0 .54 1.76 4.86 4.86 0 0 0 1.94 1.93 4.52 4.52 0 0 0 1.76.52 4.89 4.89 0 0 0 2.69-.54 4.38 4.38 0 0 0 1.41-1.17 4.6 4.6 0 0 0 .86-1.63l3.61-12.05 15.8-11.66 4.5 1.35 6.8 18.41-3.61 12.06a4.48 4.48 0 0 0-.17 1.83 4.74 4.74 0 0 0 5.16 4.2 4.5 4.5 0 0 0 1.76-.53 4.86 4.86 0 0 0 1.93-1.94c.15-.28.26-.56.35-.86l4.05-13.54c.3-1 .27-2-.09-2.98l-2.98-7.79 10.24 7.2 2.09 23.11a4.76 4.76 0 0 0 4.19 4.28 4.85 4.85 0 0 0 3.46-1.02 4.93 4.93 0 0 0 1.55-2.26 4.8 4.8 0 0 0 .2-1.83Zm-33.44-114.81 13.21-12.43 17.4 5.2 4.16 17.63-13.17 12.44-17.39-5.2Zm0 0"/></g></g></g><path fill="none" stroke="#ffbd59" stroke-linecap="round" stroke-width="15" d="m1092.66 240.9 49.9-6.15M1099.07 669.5l64.28-4.16"/><g clip-path="url(#ae)"><g clip-path="url(#af)"><g clip-path="url(#ag)"><path fill="#c1a9f2" d="m1318.9 329.93-23.5 1.77-10.22 21.23 13.28 19.47 23.5-1.77 10.22-21.24Zm0 0"/></g></g></g><g clip-path="url(#ah)"><g clip-path="url(#ai)"><g clip-path="url(#aj)"><path fill="#8c52ff" d="m1362.9 447.77-11.17-22.8a4.7 4.7 0 0 0-3.08-2.5l-25.63-6.44-3.05-40.52 2.35-.18a4.63 4.63 0 0 0 3.91-2.65l10.22-21.24c.37-.76.52-1.56.45-2.4a4.64 4.64 0 0 0-.8-2.3l-13.29-19.47a4.6 4.6 0 0 0-1.85-1.6 4.63 4.63 0 0 0-2.41-.44l-23.5 1.77a4.66 4.66 0 0 0-3.91 2.66l-10.22 21.23a4.65 4.65 0 0 0 .35 4.7l13.28 19.47a4.67 4.67 0 0 0 4.27 2.04l2.35-.17 3.05 40.51-24.38 10.2a4.63 4.63 0 0 0-2.66 2.95l-7.63 24.2a5.11 5.11 0 0 0-.2 1.84 4.47 4.47 0 0 0 .52 1.76 4.8 4.8 0 0 0 2.77 2.32 4.8 4.8 0 0 0 3.6-.32 5.08 5.08 0 0 0 1.43-1.16 4.63 4.63 0 0 0 .88-1.61l6.99-22.13 11.56-4.65-4.58 6.96c-.57.88-.8 1.84-.73 2.9l1.06 14.09a4.78 4.78 0 0 0 2.38 3.75 4.69 4.69 0 0 0 4.45.1 4.77 4.77 0 0 0 2.57-4.56l-.94-12.54 10.57-16.54 4.7-.36 12.93 14.77.94 12.55a4.83 4.83 0 0 0 1 2.55 4.67 4.67 0 0 0 5.83 1.3 4.8 4.8 0 0 0 2.35-2.73 4.49 4.49 0 0 0 .23-1.83l-1.07-14.1a4.58 4.58 0 0 0-1.15-2.75l-5.57-6.2 12.14 3.06 10.22 20.83a4.77 4.77 0 0 0 3.6 2.6 4.54 4.54 0 0 0 2.7-.43 4.77 4.77 0 0 0 2.65-4.53 4.55 4.55 0 0 0-.47-1.77Zm-72.31-95.24 7.89-16.34 18.1-1.36 10.2 14.97-7.85 16.33-18.1 1.37Zm0 0"/></g></g></g><g clip-path="url(#ak)"><g clip-path="url(#al)"><path d="M319.12 215.91h59.9v59.9h-59.9Zm0 0"/></g></g><path d="M399.49 232.22v27.72h-6.56v-27.72ZM416.97 238.02c1.85 0 3.28.56 4.31 1.68 1.04 1.12 1.57 2.7 1.57 4.72v15.52h-6.32V245.5c0-1.07-.16-1.81-.5-2.22-.33-.41-.83-.62-1.5-.62-1.28 0-2.5.92-3.68 2.76v14.52h-6.32V238.7h5.52l.44 2.52a9.53 9.53 0 0 1 2.94-2.4 7.66 7.66 0 0 1 3.54-.8ZM433.9 257.53c0 2.22-.36 4.05-1.07 5.49a9.09 9.09 0 0 1-2.89 3.45 18.65 18.65 0 0 1-4.58 2.31l-2.1-4.6c1.04-.49 1.85-.96 2.43-1.41a4.58 4.58 0 0 0 1.38-1.82c.33-.76.5-1.76.5-3.01V238.7h6.32Zm-3.16-30.03c1.1 0 1.99.34 2.69 1.02.7.68 1.06 1.53 1.06 2.57 0 1.05-.36 1.91-1.06 2.6a3.7 3.7 0 0 1-2.7 1.01c-1.09 0-1.98-.33-2.68-1.01a3.48 3.48 0 0 1-1.05-2.6c0-1.04.35-1.9 1.05-2.57a3.7 3.7 0 0 1 2.69-1.02ZM457.37 248.9c0 .88-.05 1.64-.13 2.27H444.1c.21 1.8.72 3.05 1.51 3.77a4.8 4.8 0 0 0 3.33 1.08c.85 0 1.68-.15 2.47-.46.8-.31 1.67-.78 2.6-1.42l2.6 3.52a12.95 12.95 0 0 1-8.28 2.97c-3.44 0-6.08-1.02-7.92-3.05-1.84-2.03-2.75-4.75-2.75-8.16 0-2.16.38-4.1 1.15-5.83a9.42 9.42 0 0 1 3.4-4.07c1.5-1 3.28-1.5 5.37-1.5 3.06 0 5.46.96 7.19 2.89 1.74 1.91 2.6 4.57 2.6 7.98Zm-6.2-1.8c-.06-3.26-1.2-4.88-3.44-4.88a3 3 0 0 0-2.55 1.2c-.6.8-.96 2.12-1.1 3.96h7.08ZM470.13 238.02c1.46 0 2.78.21 3.96.64 1.17.43 2.28 1.08 3.3 1.97l-2.71 3.75a6.67 6.67 0 0 0-4.03-1.52c-1.42 0-2.49.52-3.2 1.56-.72 1.04-1.08 2.72-1.08 5.03 0 2.25.36 3.83 1.07 4.77a3.7 3.7 0 0 0 3.13 1.4c.72 0 1.37-.1 1.95-.34a14 14 0 0 0 2.13-1.1l2.75 3.91a11.14 11.14 0 0 1-7.16 2.54c-2.15 0-4.02-.47-5.6-1.38a9.34 9.34 0 0 1-3.63-3.9 12.65 12.65 0 0 1-1.28-5.85c0-2.24.42-4.22 1.28-5.95a9.63 9.63 0 0 1 3.64-4.07c1.57-.97 3.4-1.46 5.48-1.46ZM493.4 258.94a10.77 10.77 0 0 1-5.75 1.69c-4.65-.04-6.97-2.6-6.97-7.7v-9.84h-3v-4.39h3v-4.6l6.33-.72v5.32h4.87l-.68 4.4H487v9.76c0 1 .17 1.7.48 2.12.32.43.83.65 1.53.65a4.6 4.6 0 0 0 2.28-.7Zm0 0"/><path d="M503 238.02c1.51 0 2.94.23 4.28.68 1.33.45 2.5 1.1 3.53 1.93l-2.33 3.54a9.72 9.72 0 0 0-5.24-1.64c-.83 0-1.46.14-1.9.42-.44.28-.66.68-.66 1.2 0 .39.1.72.3.98.2.25.6.5 1.22.78.61.26 1.56.57 2.84.95 2.2.64 3.85 1.47 4.94 2.5a5.59 5.59 0 0 1 1.62 4.27c0 1.43-.41 2.68-1.25 3.73a7.78 7.78 0 0 1-3.39 2.42c-1.43.56-3.04.85-4.8.85-1.79 0-3.45-.29-4.98-.85a11.5 11.5 0 0 1-3.9-2.33l3.07-3.43a9.08 9.08 0 0 0 5.64 2.07c.97 0 1.73-.17 2.27-.51.55-.35.83-.84.83-1.49 0-.5-.11-.9-.33-1.18-.21-.3-.62-.58-1.23-.83-.62-.25-1.6-.56-2.93-.94-2.1-.61-3.68-1.47-4.71-2.56a5.68 5.68 0 0 1-1.57-4.08c0-1.23.35-2.33 1.07-3.3a7.2 7.2 0 0 1 3.03-2.32c1.32-.58 2.84-.86 4.57-.86ZM412.38 295.44c-1.4.56-3.44.84-6.13.84 1.39.59 2.4 1.3 3.03 2.16.65.85.97 1.96.97 3.31 0 1.37-.36 2.59-1.07 3.67a7.21 7.21 0 0 1-3.11 2.53c-1.35.62-2.93.93-4.74.93-.85 0-1.67-.08-2.44-.24-.21.1-.39.27-.51.5-.12.23-.17.47-.17.7 0 .4.15.71.45.94.31.23.94.35 1.87.35h3.2c1.63 0 3.05.26 4.27.8a6.62 6.62 0 0 1 2.85 2.2c.66.92 1 1.97 1 3.15 0 2.2-.96 3.93-2.86 5.17-1.9 1.24-4.66 1.86-8.25 1.86-2.6 0-4.64-.27-6.13-.83a5.83 5.83 0 0 1-3.14-2.3c-.6-.97-.9-2.2-.9-3.7h5.68c0 .64.13 1.15.38 1.52.26.38.72.66 1.39.84.66.2 1.62.29 2.87.29 1.73 0 2.93-.22 3.6-.63a2 2 0 0 0 1-1.78 1.8 1.8 0 0 0-.77-1.53c-.5-.37-1.26-.55-2.26-.55h-3.08c-2.19 0-3.83-.39-4.9-1.17a3.6 3.6 0 0 1-1.63-3.03c0-.77.22-1.52.67-2.25a5.59 5.59 0 0 1 1.86-1.83 7.47 7.47 0 0 1-2.9-2.53 6.6 6.6 0 0 1-.91-3.55c0-2.37.85-4.26 2.56-5.65 1.7-1.41 3.96-2.11 6.76-2.11 2.14.05 3.95-.16 5.43-.64 1.47-.48 3-1.2 4.57-2.13Zm-11.33 2.23a3 3 0 0 0-2.34.96 3.66 3.66 0 0 0-.86 2.57c0 1.15.28 2.03.86 2.66.57.62 1.35.94 2.34.94 1.04 0 1.83-.3 2.38-.92.55-.62.82-1.54.82-2.75 0-2.3-1.07-3.46-3.2-3.46ZM433.37 304.4c0 .88-.04 1.64-.13 2.27H420.1c.22 1.8.72 3.05 1.51 3.77a4.8 4.8 0 0 0 3.33 1.08c.85 0 1.68-.15 2.47-.46.8-.31 1.67-.78 2.61-1.42l2.6 3.52a12.95 12.95 0 0 1-8.29 2.97c-3.43 0-6.08-1.02-7.92-3.05-1.84-2.03-2.75-4.75-2.75-8.16 0-2.16.38-4.1 1.16-5.83a9.42 9.42 0 0 1 3.39-4.07c1.5-1 3.29-1.5 5.37-1.5 3.07 0 5.46.96 7.19 2.89 1.74 1.91 2.6 4.57 2.6 7.98Zm-6.2-1.8c-.06-3.26-1.2-4.88-3.44-4.88a3 3 0 0 0-2.55 1.2c-.6.8-.96 2.12-1.1 3.96h7.09ZM449.37 293.52c1.84 0 3.28.56 4.31 1.68 1.04 1.12 1.56 2.7 1.56 4.72v15.52h-6.3V301c0-1.07-.18-1.81-.5-2.22-.34-.41-.84-.62-1.5-.62-1.29 0-2.52.92-3.7 2.76v14.52h-6.3V294.2h5.5l.44 2.52a9.53 9.53 0 0 1 2.94-2.4 7.66 7.66 0 0 1 3.55-.8ZM478.53 304.4c0 .88-.05 1.64-.13 2.27h-13.16c.22 1.8.73 3.05 1.52 3.77a4.8 4.8 0 0 0 3.33 1.08c.85 0 1.67-.15 2.47-.46.8-.31 1.67-.78 2.6-1.42l2.6 3.52a12.95 12.95 0 0 1-8.28 2.97c-3.44 0-6.08-1.02-7.92-3.05-1.84-2.03-2.75-4.75-2.75-8.16 0-2.16.38-4.1 1.15-5.83a9.42 9.42 0 0 1 3.4-4.07c1.5-1 3.28-1.5 5.37-1.5 3.06 0 5.46.96 7.19 2.89 1.73 1.91 2.6 4.57 2.6 7.98Zm-6.2-1.8c-.06-3.26-1.2-4.88-3.45-4.88a3 3 0 0 0-2.54 1.2c-.6.8-.96 2.12-1.1 3.96h7.08ZM495.4 314.44a10.77 10.77 0 0 1-5.75 1.69c-4.65-.04-6.97-2.6-6.97-7.7v-9.84h-3v-4.39h3v-4.6l6.33-.72v5.32h4.87l-.68 4.4H489v9.76c0 1 .17 1.7.48 2.12.32.43.83.65 1.53.65a4.6 4.6 0 0 0 2.28-.7ZM503.84 294.2v21.24h-6.31V294.2Zm-3.19-11.2c1.1 0 1.99.34 2.69 1.02.7.68 1.06 1.53 1.06 2.57 0 1.05-.35 1.91-1.06 2.6a3.7 3.7 0 0 1-2.69 1.01c-1.1 0-2-.33-2.69-1.01a3.48 3.48 0 0 1-1.04-2.6c0-1.04.34-1.9 1.04-2.57a3.7 3.7 0 0 1 2.7-1.02ZM518 293.52c1.46 0 2.78.21 3.96.64 1.18.43 2.28 1.08 3.31 1.97l-2.72 3.75a6.67 6.67 0 0 0-4.03-1.52c-1.41 0-2.48.52-3.2 1.56-.72 1.04-1.08 2.72-1.08 5.03 0 2.25.36 3.83 1.08 4.77a3.7 3.7 0 0 0 3.13 1.4c.71 0 1.36-.1 1.95-.34a14 14 0 0 0 2.12-1.1l2.75 3.91a11.14 11.14 0 0 1-7.15 2.54c-2.16 0-4.03-.47-5.6-1.38a9.34 9.34 0 0 1-3.64-3.9 12.65 12.65 0 0 1-1.28-5.85c0-2.24.43-4.22 1.28-5.95a9.63 9.63 0 0 1 3.64-4.07c1.57-.97 3.4-1.46 5.49-1.46ZM416.28 349.02c1.7 0 3.04.57 4.05 1.7 1 1.14 1.52 2.7 1.52 4.7v15.52h-6.32V356.5c0-1.9-.6-2.84-1.8-2.84-.66 0-1.25.23-1.76.68-.5.45-1 1.14-1.48 2.08v14.52h-6.31V356.5c0-1.9-.6-2.84-1.8-2.84-.65 0-1.23.23-1.75.7a7.33 7.33 0 0 0-1.5 2.06v14.52h-6.31V349.7h5.51l.44 2.47a8.58 8.58 0 0 1 2.75-2.37c1-.52 2.13-.78 3.4-.78a5.01 5.01 0 0 1 5 3.36 8.57 8.57 0 0 1 2.82-2.54 7.4 7.4 0 0 1 3.54-.82ZM443.49 364.78c0 .8.11 1.4.34 1.77.23.36.6.64 1.1.83l-1.32 4.12a7.7 7.7 0 0 1-3.2-.86 4.65 4.65 0 0 1-1.92-2.22c-1.39 2.14-3.53 3.2-6.4 3.2-2.11 0-3.79-.61-5.04-1.84a6.43 6.43 0 0 1-1.87-4.8c0-2.32.84-4.1 2.54-5.32 1.7-1.23 4.18-1.85 7.4-1.85h2.16v-.92c0-1.25-.26-2.1-.8-2.56-.52-.47-1.46-.7-2.79-.7-.7 0-1.54.1-2.53.3-.98.2-2 .46-3.03.8l-1.44-4.15a23.71 23.71 0 0 1 8-1.56c3.04 0 5.27.63 6.67 1.89 1.42 1.25 2.13 3.12 2.13 5.62Zm-9.56 2.31c1.43 0 2.55-.67 3.35-2.03v-3.76h-1.56c-1.44 0-2.51.25-3.22.76-.7.5-1.06 1.3-1.06 2.36 0 .86.22 1.52.66 1.99.44.46 1.05.68 1.83.68ZM461.84 369.94a10.77 10.77 0 0 1-5.75 1.69c-4.65-.04-6.97-2.6-6.97-7.7v-9.84h-3v-4.39h3v-4.6l6.33-.72v5.32h4.88l-.69 4.4h-4.19v9.76c0 1 .16 1.7.47 2.12.32.43.83.65 1.53.65a4.6 4.6 0 0 0 2.28-.7ZM482.48 359.9c0 .88-.04 1.64-.12 2.27H469.2c.22 1.8.73 3.05 1.52 3.77a4.8 4.8 0 0 0 3.33 1.08c.85 0 1.67-.15 2.47-.46.8-.31 1.67-.78 2.6-1.42l2.6 3.52a12.95 12.95 0 0 1-8.28 2.97c-3.44 0-6.08-1.02-7.92-3.05-1.84-2.03-2.75-4.75-2.75-8.16 0-2.16.38-4.1 1.15-5.83a9.42 9.42 0 0 1 3.4-4.07c1.5-1 3.28-1.5 5.37-1.5 3.06 0 5.45.96 7.19 2.89 1.73 1.91 2.6 4.57 2.6 7.98Zm-6.2-1.8c-.05-3.26-1.2-4.88-3.44-4.88a3 3 0 0 0-2.54 1.2c-.6.8-.96 2.12-1.1 3.96h7.08ZM497.56 349.1c.77 0 1.48.09 2.13.28l-1 6.12a8.97 8.97 0 0 0-1.92-.28c-1.27 0-2.22.43-2.88 1.3a10.2 10.2 0 0 0-1.53 3.9v10.52h-6.31V349.7h5.51l.52 4.11a7.59 7.59 0 0 1 2.17-3.45 4.93 4.93 0 0 1 3.31-1.27ZM508.4 349.7v21.24h-6.31V349.7Zm-3.19-11.2c1.1 0 1.99.34 2.69 1.02.7.68 1.06 1.53 1.06 2.57 0 1.05-.36 1.91-1.06 2.6a3.7 3.7 0 0 1-2.69 1.01c-1.1 0-2-.33-2.69-1.01a3.48 3.48 0 0 1-1.04-2.6c0-1.04.34-1.9 1.04-2.57a3.7 3.7 0 0 1 2.69-1.02ZM530.24 364.78c0 .8.11 1.4.34 1.77.23.36.6.64 1.1.83l-1.32 4.12a7.7 7.7 0 0 1-3.2-.86 4.65 4.65 0 0 1-1.92-2.22c-1.39 2.14-3.52 3.2-6.4 3.2-2.11 0-3.79-.61-5.04-1.84a6.43 6.43 0 0 1-1.87-4.8c0-2.32.84-4.1 2.54-5.32 1.71-1.23 4.18-1.85 7.41-1.85h2.16v-.92c0-1.25-.27-2.1-.8-2.56-.53-.47-1.47-.7-2.8-.7-.7 0-1.54.1-2.53.3-.98.2-2 .46-3.03.8l-1.44-4.15a23.71 23.71 0 0 1 8-1.56c3.04 0 5.27.63 6.67 1.89 1.42 1.25 2.13 3.12 2.13 5.62Zm-9.56 2.31c1.43 0 2.55-.67 3.36-2.03v-3.76h-1.57c-1.43 0-2.5.25-3.22.76-.7.5-1.06 1.3-1.06 2.36 0 .86.22 1.52.66 1.99.44.46 1.05.68 1.83.68ZM540.92 371.63c-1.84 0-3.28-.53-4.31-1.58-1.02-1.07-1.53-2.57-1.53-4.52v-24.28l6.31-.67v24.72c0 .88.36 1.33 1.1 1.33.36 0 .7-.07 1.03-.2l1.23 4.46a9.68 9.68 0 0 1-3.83.74ZM313.7 589.22v-11.88h-8.34v11.88h-6.56V561.5h6.56v10.72h8.33V561.5h6.56v27.72ZM331.64 567.98v21.24h-6.31v-21.24Zm-3.19-11.2c1.1 0 2 .34 2.7 1.02.7.68 1.05 1.54 1.05 2.58s-.35 1.9-1.06 2.59a3.7 3.7 0 0 1-2.69 1.01c-1.09 0-1.99-.33-2.68-1.01a3.48 3.48 0 0 1-1.05-2.6c0-1.03.35-1.9 1.05-2.57a3.7 3.7 0 0 1 2.68-1.02ZM342.89 586.81c0 2.22-.36 4.05-1.06 5.49a9.09 9.09 0 0 1-2.9 3.45 18.65 18.65 0 0 1-4.57 2.31l-2.11-4.6c1.04-.49 1.85-.96 2.44-1.41a4.58 4.58 0 0 0 1.37-1.82c.33-.76.5-1.76.5-3.01v-19.24h6.33Zm-3.16-30.03c1.1 0 2 .34 2.69 1.02.7.68 1.06 1.54 1.06 2.58s-.35 1.9-1.06 2.59a3.7 3.7 0 0 1-2.69 1.01c-1.1 0-1.99-.33-2.69-1.01a3.48 3.48 0 0 1-1.04-2.6c0-1.03.35-1.9 1.04-2.57a3.7 3.7 0 0 1 2.7-1.02ZM364.72 583.06c0 .8.11 1.4.35 1.77.22.37.59.64 1.09.83l-1.31 4.12a7.7 7.7 0 0 1-3.2-.86 4.65 4.65 0 0 1-1.93-2.22c-1.39 2.14-3.52 3.2-6.4 3.2-2.11 0-3.79-.61-5.04-1.84a6.43 6.43 0 0 1-1.87-4.8c0-2.31.85-4.1 2.55-5.32 1.7-1.23 4.17-1.85 7.4-1.85h2.16v-.92c0-1.25-.27-2.1-.8-2.56-.53-.47-1.46-.7-2.8-.7-.7 0-1.54.1-2.53.3-.98.2-1.99.46-3.03.8l-1.44-4.15a23.71 23.71 0 0 1 8-1.56c3.04 0 5.27.63 6.68 1.89 1.41 1.25 2.12 3.12 2.12 5.62Zm-9.56 2.32c1.44 0 2.55-.68 3.36-2.04v-3.76h-1.56c-1.44 0-2.52.26-3.22.76-.71.5-1.07 1.3-1.07 2.36 0 .86.22 1.52.66 1.99.45.46 1.06.69 1.83.69ZM378.97 567.3c1.45 0 2.77.21 3.95.64 1.18.43 2.28 1.08 3.31 1.97l-2.72 3.75a6.67 6.67 0 0 0-4.03-1.52c-1.42 0-2.48.52-3.2 1.56-.72 1.05-1.08 2.72-1.08 5.03 0 2.25.36 3.83 1.08 4.77a3.7 3.7 0 0 0 3.12 1.4c.72 0 1.37-.1 1.96-.34a14 14 0 0 0 2.12-1.1l2.75 3.92a11.14 11.14 0 0 1-7.15 2.53c-2.16 0-4.03-.46-5.6-1.38a9.34 9.34 0 0 1-3.64-3.89 12.65 12.65 0 0 1-1.28-5.86c0-2.24.43-4.22 1.28-5.95a9.63 9.63 0 0 1 3.64-4.06c1.57-.98 3.4-1.47 5.49-1.47ZM395.23 558.86v30.36h-6.3v-29.69Zm13.13 9.12-6.44 9.32 6.96 11.92h-7.13l-6.31-11.6 6.48-9.64Zm0 0"/><path d="M418.47 567.3c1.52 0 2.94.23 4.28.68 1.33.45 2.5 1.1 3.53 1.93l-2.33 3.54a9.72 9.72 0 0 0-5.23-1.64c-.84 0-1.47.14-1.9.42-.44.29-.66.68-.66 1.2 0 .39.1.72.3.98.19.25.6.5 1.21.78.62.26 1.56.58 2.85.95 2.2.64 3.85 1.47 4.93 2.5a5.59 5.59 0 0 1 1.63 4.27c0 1.43-.42 2.68-1.25 3.73a7.78 7.78 0 0 1-3.4 2.42c-1.43.57-3.03.85-4.79.85-1.8 0-3.45-.28-4.98-.85a11.5 11.5 0 0 1-3.91-2.33l3.08-3.43a9.08 9.08 0 0 0 5.64 2.08c.97 0 1.72-.18 2.26-.52.56-.34.83-.84.83-1.48 0-.5-.1-.9-.33-1.2-.2-.3-.62-.57-1.23-.82-.62-.25-1.59-.56-2.92-.94-2.1-.61-3.68-1.47-4.72-2.56a5.68 5.68 0 0 1-1.56-4.08c0-1.23.35-2.33 1.06-3.3a7.2 7.2 0 0 1 3.03-2.32c1.32-.57 2.85-.86 4.58-.86ZM451.83 567.3c2.53 0 4.47 1 5.84 2.98 1.37 2 2.05 4.77 2.05 8.35 0 2.18-.34 4.13-1.03 5.84a9.17 9.17 0 0 1-2.92 4 7.23 7.23 0 0 1-4.5 1.44 6.88 6.88 0 0 1-5.55-2.74l-.33 2.05h-5.6v-29.69l6.32-.67v11.28a7.07 7.07 0 0 1 5.72-2.84Zm-2.4 18c2.48 0 3.73-2.23 3.73-6.67 0-2.54-.3-4.3-.9-5.25a2.81 2.81 0 0 0-2.54-1.44c-1.42 0-2.62.83-3.61 2.48v8.85c.4.63.9 1.13 1.47 1.5.57.35 1.19.53 1.86.53ZM480.55 583.06c0 .8.11 1.4.34 1.77.23.37.6.64 1.1.83l-1.32 4.12a7.7 7.7 0 0 1-3.2-.86 4.65 4.65 0 0 1-1.92-2.22c-1.39 2.14-3.52 3.2-6.4 3.2-2.11 0-3.79-.61-5.04-1.84a6.43 6.43 0 0 1-1.87-4.8c0-2.31.84-4.1 2.54-5.32 1.71-1.23 4.18-1.85 7.41-1.85h2.16v-.92c0-1.25-.27-2.1-.8-2.56-.53-.47-1.47-.7-2.8-.7-.7 0-1.54.1-2.53.3-.98.2-2 .46-3.03.8l-1.44-4.15a23.71 23.71 0 0 1 8-1.56c3.04 0 5.27.63 6.67 1.89 1.42 1.25 2.13 3.12 2.13 5.62Zm-9.56 2.32c1.43 0 2.55-.68 3.36-2.04v-3.76h-1.57c-1.43 0-2.5.26-3.21.76-.72.5-1.07 1.3-1.07 2.36 0 .86.22 1.52.66 1.99.44.46 1.05.69 1.83.69ZM494.8 567.3c1.45 0 2.77.21 3.95.64 1.17.43 2.28 1.08 3.31 1.97l-2.72 3.75a6.67 6.67 0 0 0-4.03-1.52c-1.42 0-2.48.52-3.2 1.56-.72 1.05-1.08 2.72-1.08 5.03 0 2.25.36 3.83 1.08 4.77a3.7 3.7 0 0 0 3.12 1.4c.72 0 1.37-.1 1.96-.34a14 14 0 0 0 2.12-1.1l2.75 3.92a11.14 11.14 0 0 1-7.15 2.53c-2.16 0-4.03-.46-5.6-1.38a9.34 9.34 0 0 1-3.64-3.89 12.65 12.65 0 0 1-1.28-5.86c0-2.24.43-4.22 1.28-5.95a9.63 9.63 0 0 1 3.64-4.06c1.57-.98 3.4-1.47 5.49-1.47ZM518.06 588.22a10.77 10.77 0 0 1-5.75 1.69c-4.65-.03-6.97-2.6-6.97-7.7v-9.83h-3v-4.4h3v-4.6l6.33-.72v5.32h4.88l-.69 4.4h-4.19v9.76c0 1 .16 1.7.47 2.13.32.43.83.64 1.53.64a4.6 4.6 0 0 0 2.28-.7ZM538.7 578.17c0 .89-.04 1.65-.12 2.28h-13.16c.22 1.8.73 3.05 1.52 3.77a4.8 4.8 0 0 0 3.33 1.08c.85 0 1.67-.15 2.47-.46.8-.3 1.67-.78 2.6-1.42l2.6 3.52a12.95 12.95 0 0 1-8.28 2.97c-3.44 0-6.08-1.02-7.92-3.05-1.84-2.03-2.75-4.75-2.75-8.16 0-2.16.38-4.1 1.15-5.82a9.42 9.42 0 0 1 3.4-4.08c1.5-1 3.28-1.5 5.37-1.5 3.06 0 5.45.96 7.19 2.89 1.73 1.92 2.6 4.58 2.6 7.98Zm-6.2-1.8c-.05-3.24-1.2-4.87-3.44-4.87a3 3 0 0 0-2.54 1.2c-.6.8-.96 2.12-1.1 3.96h7.08ZM553.78 567.38c.77 0 1.48.09 2.13.28l-1 6.12a8.97 8.97 0 0 0-1.92-.28c-1.27 0-2.22.43-2.88 1.3a10.2 10.2 0 0 0-1.53 3.9v10.52h-6.31v-21.24h5.51l.52 4.11a7.59 7.59 0 0 1 2.17-3.45 4.93 4.93 0 0 1 3.31-1.26ZM564.62 567.98v21.24h-6.31v-21.24Zm-3.19-11.2c1.1 0 1.99.34 2.69 1.02.7.68 1.06 1.54 1.06 2.58s-.36 1.9-1.06 2.59a3.7 3.7 0 0 1-2.69 1.01c-1.1 0-2-.33-2.69-1.01a3.48 3.48 0 0 1-1.04-2.6c0-1.03.34-1.9 1.04-2.57a3.7 3.7 0 0 1 2.69-1.02ZM586.46 583.06c0 .8.11 1.4.34 1.77.23.37.6.64 1.1.83l-1.32 4.12a7.7 7.7 0 0 1-3.2-.86 4.65 4.65 0 0 1-1.92-2.22c-1.39 2.14-3.52 3.2-6.4 3.2-2.11 0-3.79-.61-5.04-1.84a6.43 6.43 0 0 1-1.87-4.8c0-2.31.84-4.1 2.54-5.32 1.71-1.23 4.18-1.85 7.41-1.85h2.16v-.92c0-1.25-.27-2.1-.8-2.56-.53-.47-1.47-.7-2.8-.7-.7 0-1.54.1-2.53.3-.98.2-2 .46-3.03.8l-1.44-4.15a23.71 23.71 0 0 1 8-1.56c3.04 0 5.27.63 6.67 1.89 1.42 1.25 2.13 3.12 2.13 5.62Zm-9.56 2.32c1.43 0 2.55-.68 3.36-2.04v-3.76h-1.57c-1.43 0-2.5.26-3.22.76-.7.5-1.06 1.3-1.06 2.36 0 .86.22 1.52.66 1.99.44.46 1.05.69 1.83.69ZM593.86 558.58c.96 0 1.76.3 2.4.92.64.62.96 1.4.96 2.33 0 .5-.09 1.02-.26 1.56a18.7 18.7 0 0 1-.9 2.16l-2.56 5.23h-3.25l1.69-6.23c-1-.7-1.48-1.62-1.48-2.77a3 3 0 0 1 .98-2.28 3.41 3.41 0 0 1 2.42-.92ZM608.69 567.3c1.52 0 2.95.23 4.28.68 1.33.45 2.5 1.1 3.53 1.93l-2.33 3.54a9.72 9.72 0 0 0-5.23-1.64c-.84 0-1.47.14-1.9.42-.44.29-.66.68-.66 1.2 0 .39.1.72.3.98.19.25.6.5 1.21.78.62.26 1.57.58 2.85.95 2.2.64 3.85 1.47 4.93 2.5a5.59 5.59 0 0 1 1.63 4.27c0 1.43-.42 2.68-1.25 3.73a7.78 7.78 0 0 1-3.4 2.42c-1.43.57-3.03.85-4.79.85-1.8 0-3.45-.28-4.98-.85a11.5 11.5 0 0 1-3.9-2.33l3.07-3.43a9.08 9.08 0 0 0 5.64 2.08c.97 0 1.72-.18 2.27-.52s.82-.84.82-1.48c0-.5-.1-.9-.32-1.2-.22-.3-.63-.57-1.24-.82-.62-.25-1.59-.56-2.92-.94-2.1-.61-3.68-1.47-4.72-2.56a5.68 5.68 0 0 1-1.56-4.08c0-1.23.35-2.33 1.06-3.3a7.2 7.2 0 0 1 3.03-2.32c1.32-.57 2.85-.86 4.58-.86ZM306.16 622.8c1.52 0 2.95.23 4.28.68 1.33.45 2.5 1.1 3.53 1.93l-2.33 3.54a9.72 9.72 0 0 0-5.23-1.64c-.84 0-1.47.14-1.9.42-.44.29-.66.68-.66 1.2 0 .39.1.72.3.98.19.25.6.5 1.21.78.62.26 1.57.58 2.85.95 2.2.64 3.85 1.47 4.93 2.5a5.59 5.59 0 0 1 1.63 4.27c0 1.43-.42 2.68-1.25 3.73a7.78 7.78 0 0 1-3.4 2.42c-1.43.57-3.03.85-4.79.85-1.8 0-3.45-.28-4.98-.85a11.5 11.5 0 0 1-3.9-2.33l3.07-3.43a9.08 9.08 0 0 0 5.64 2.08c.97 0 1.72-.18 2.27-.52s.82-.84.82-1.48c0-.5-.1-.9-.32-1.2-.22-.3-.63-.57-1.24-.82-.62-.25-1.59-.56-2.92-.94-2.1-.61-3.68-1.47-4.72-2.56a5.68 5.68 0 0 1-1.56-4.08c0-1.23.35-2.33 1.06-3.3a7.2 7.2 0 0 1 3.03-2.32c1.32-.57 2.85-.86 4.58-.86ZM329.73 644.77a12.3 12.3 0 0 1-4.19 6.32c-1.93 1.48-4.52 2.32-7.78 2.5l-.67-4.43c2.02-.27 3.51-.72 4.48-1.36a6.57 6.57 0 0 0 2.36-3.08h-2.17l-6.47-21.24h6.72l3.8 17.2 4.15-17.2h6.52ZM346.2 622.8c1.52 0 2.94.23 4.28.68 1.33.45 2.5 1.1 3.53 1.93l-2.33 3.54a9.72 9.72 0 0 0-5.23-1.64c-.84 0-1.47.14-1.91.42-.44.29-.66.68-.66 1.2 0 .39.1.72.3.98.2.25.6.5 1.22.78.61.26 1.56.58 2.84.95 2.21.64 3.85 1.47 4.94 2.5a5.59 5.59 0 0 1 1.63 4.27c0 1.43-.42 2.68-1.25 3.73a7.78 7.78 0 0 1-3.4 2.42c-1.43.57-3.03.85-4.8.85-1.79 0-3.45-.28-4.98-.85a11.5 11.5 0 0 1-3.9-2.33l3.08-3.43a9.08 9.08 0 0 0 5.64 2.08c.96 0 1.72-.18 2.26-.52.55-.34.83-.84.83-1.48 0-.5-.11-.9-.33-1.2-.2-.3-.62-.57-1.23-.82-.62-.25-1.6-.56-2.92-.94-2.11-.61-3.68-1.47-4.72-2.56a5.68 5.68 0 0 1-1.57-4.08c0-1.23.36-2.33 1.07-3.3a7.2 7.2 0 0 1 3.03-2.32c1.32-.57 2.85-.86 4.58-.86ZM371.36 643.72a10.77 10.77 0 0 1-5.75 1.69c-4.65-.03-6.97-2.6-6.97-7.7v-9.83h-3v-4.4h3v-4.6l6.33-.72v5.32h4.87l-.69 4.4h-4.18v9.76c0 1 .15 1.7.47 2.13.32.43.83.64 1.53.64a4.6 4.6 0 0 0 2.28-.7ZM392 633.67c0 .89-.04 1.65-.13 2.28h-13.15c.22 1.8.72 3.05 1.51 3.77a4.8 4.8 0 0 0 3.33 1.08c.85 0 1.68-.15 2.47-.46.8-.3 1.67-.78 2.61-1.42l2.6 3.52a12.95 12.95 0 0 1-8.29 2.97c-3.44 0-6.08-1.02-7.92-3.05-1.84-2.03-2.75-4.75-2.75-8.16 0-2.16.38-4.1 1.16-5.82a9.42 9.42 0 0 1 3.39-4.08c1.5-1 3.29-1.5 5.37-1.5 3.06 0 5.46.96 7.19 2.89 1.74 1.92 2.6 4.58 2.6 7.98Zm-6.2-1.8c-.06-3.24-1.2-4.87-3.44-4.87a3 3 0 0 0-2.55 1.2c-.6.8-.96 2.12-1.1 3.96h7.09ZM419.03 622.8c1.69 0 3.04.57 4.05 1.7 1 1.14 1.51 2.7 1.51 4.7v15.52h-6.31v-14.44c0-1.9-.6-2.84-1.8-2.84-.66 0-1.25.23-1.76.69-.51.44-1.01 1.14-1.49 2.07v14.52h-6.3v-14.44c0-1.9-.61-2.84-1.8-2.84-.65 0-1.24.23-1.76.7a7.33 7.33 0 0 0-1.5 2.06v14.52h-6.3v-21.24h5.5l.44 2.47a8.58 8.58 0 0 1 2.75-2.37c1-.52 2.14-.78 3.41-.78a5.01 5.01 0 0 1 5 3.36 8.57 8.57 0 0 1 2.81-2.53 7.4 7.4 0 0 1 3.55-.83ZM452.15 643.72a10.77 10.77 0 0 1-5.75 1.69c-4.65-.03-6.97-2.6-6.97-7.7v-9.83h-3v-4.4h3v-4.6l6.33-.72v5.32h4.87l-.68 4.4h-4.2v9.76c0 1 .17 1.7.48 2.13.32.43.83.64 1.53.64a4.6 4.6 0 0 0 2.28-.7ZM463.48 622.8c3.25 0 5.79 1 7.62 2.98 1.85 2 2.77 4.77 2.77 8.35 0 2.26-.42 4.24-1.27 5.93a9.28 9.28 0 0 1-3.59 3.94c-1.56.94-3.4 1.4-5.53 1.4-3.23 0-5.77-.99-7.63-2.98-1.85-1.99-2.78-4.77-2.78-8.34 0-2.27.42-4.25 1.25-5.94.85-1.7 2.05-3 3.61-3.94 1.56-.93 3.41-1.4 5.55-1.4Zm0 4.64c-1.28 0-2.25.54-2.9 1.62-.63 1.08-.94 2.75-.94 5.02 0 2.32.3 4.02.93 5.1a3.14 3.14 0 0 0 2.9 1.59 3.1 3.1 0 0 0 2.87-1.63c.64-1.08.97-2.75.97-5.01 0-2.33-.32-4.02-.94-5.08a3.12 3.12 0 0 0-2.9-1.61ZM322.16 678.3c1.69 0 3.04.57 4.05 1.7 1 1.14 1.51 2.7 1.51 4.7v15.52h-6.31v-14.44c0-1.9-.6-2.84-1.8-2.84-.66 0-1.25.23-1.76.69-.51.44-1.01 1.14-1.49 2.07v14.52h-6.3v-14.44c0-1.9-.61-2.84-1.8-2.84-.65 0-1.24.23-1.76.7a7.33 7.33 0 0 0-1.5 2.06v14.52h-6.3v-21.24h5.5l.44 2.47a8.58 8.58 0 0 1 2.75-2.37c1-.52 2.14-.78 3.41-.78a5.01 5.01 0 0 1 5 3.36 8.57 8.57 0 0 1 2.81-2.53 7.4 7.4 0 0 1 3.55-.83ZM349.36 694.06c0 .8.12 1.4.35 1.77.22.37.59.64 1.09.83l-1.31 4.12a7.7 7.7 0 0 1-3.2-.86 4.65 4.65 0 0 1-1.93-2.22c-1.38 2.14-3.52 3.2-6.4 3.2-2.1 0-3.78-.61-5.03-1.84a6.43 6.43 0 0 1-1.88-4.8c0-2.31.85-4.1 2.55-5.32 1.7-1.23 4.17-1.85 7.4-1.85h2.16v-.92c0-1.25-.27-2.1-.8-2.56-.53-.47-1.46-.7-2.8-.7-.7 0-1.54.1-2.53.3-.98.2-1.99.46-3.03.8l-1.43-4.15a23.71 23.71 0 0 1 8-1.56c3.03 0 5.26.63 6.67 1.89 1.41 1.25 2.12 3.12 2.12 5.62Zm-9.56 2.32c1.44 0 2.55-.68 3.36-2.04v-3.76h-1.56c-1.44 0-2.51.26-3.22.76-.71.5-1.06 1.3-1.06 2.36 0 .86.21 1.52.65 1.99.45.46 1.06.69 1.83.69ZM360.72 669.86v30.36h-6.31v-29.69Zm13.12 9.12-6.43 9.32 6.95 11.92h-7.13l-6.3-11.6 6.48-9.64ZM395 689.17c0 .89-.04 1.65-.13 2.28h-13.15c.22 1.8.72 3.05 1.51 3.77a4.8 4.8 0 0 0 3.33 1.08c.85 0 1.68-.15 2.47-.46.8-.3 1.67-.78 2.61-1.42l2.6 3.52a12.95 12.95 0 0 1-8.29 2.97c-3.44 0-6.08-1.02-7.92-3.05-1.84-2.03-2.75-4.75-2.75-8.16 0-2.16.38-4.1 1.16-5.82a9.42 9.42 0 0 1 3.39-4.08c1.5-1 3.29-1.5 5.37-1.5 3.06 0 5.46.96 7.19 2.89 1.74 1.92 2.6 4.58 2.6 7.98Zm-6.2-1.8c-.06-3.24-1.2-4.87-3.44-4.87a3 3 0 0 0-2.55 1.2c-.6.8-.96 2.12-1.1 3.96h7.09ZM417.24 678.3c1.46 0 2.78.21 3.96.64 1.17.43 2.28 1.08 3.3 1.97l-2.71 3.75a6.67 6.67 0 0 0-4.03-1.52c-1.42 0-2.49.52-3.2 1.56-.72 1.05-1.08 2.72-1.08 5.03 0 2.25.36 3.83 1.08 4.77a3.7 3.7 0 0 0 3.12 1.4c.72 0 1.37-.1 1.95-.34a14 14 0 0 0 2.13-1.1l2.75 3.92a11.14 11.14 0 0 1-7.16 2.53c-2.15 0-4.02-.46-5.6-1.38a9.34 9.34 0 0 1-3.63-3.89 12.65 12.65 0 0 1-1.28-5.86c0-2.24.42-4.22 1.28-5.95a9.63 9.63 0 0 1 3.64-4.06c1.57-.98 3.4-1.47 5.48-1.47ZM436.4 678.3c3.25 0 5.8 1 7.63 2.98 1.84 2 2.76 4.77 2.76 8.35 0 2.26-.42 4.24-1.26 5.93a9.28 9.28 0 0 1-3.6 3.94c-1.56.94-3.4 1.4-5.53 1.4-3.23 0-5.77-.99-7.62-2.98-1.86-1.99-2.78-4.77-2.78-8.34 0-2.27.4-4.25 1.25-5.94.84-1.7 2.04-3 3.6-3.94 1.57-.93 3.41-1.4 5.55-1.4Zm0 4.64c-1.28 0-2.24.54-2.89 1.62-.64 1.08-.95 2.75-.95 5.02 0 2.32.31 4.02.94 5.1a3.14 3.14 0 0 0 2.9 1.59 3.1 3.1 0 0 0 2.86-1.63c.65-1.08.97-2.75.97-5.01 0-2.33-.31-4.02-.94-5.08a3.12 3.12 0 0 0-2.89-1.61ZM462.56 678.3c2.66 0 4.64.99 5.95 2.97 1.31 1.96 1.97 4.72 1.97 8.26 0 2.19-.35 4.15-1.03 5.88a9.2 9.2 0 0 1-2.94 4.04 7.23 7.23 0 0 1-4.49 1.46 6.59 6.59 0 0 1-5.15-2.2v9.71l-6.31.67V679h5.56l.31 2.35a7.77 7.77 0 0 1 6.13-3.04Zm-2.44 17.97c2.53 0 3.8-2.22 3.8-6.64 0-2.51-.29-4.25-.85-5.22a2.73 2.73 0 0 0-2.51-1.47c-.72 0-1.4.21-2.04.64a5.76 5.76 0 0 0-1.65 1.84v8.96c.85 1.26 1.94 1.89 3.25 1.89ZM480.75 678.98v21.24h-6.32v-21.24Zm-3.2-11.2c1.1 0 2 .34 2.7 1.02.7.68 1.06 1.54 1.06 2.58s-.36 1.9-1.06 2.59a3.7 3.7 0 0 1-2.7 1.01c-1.09 0-1.98-.33-2.68-1.01a3.48 3.48 0 0 1-1.05-2.6c0-1.03.35-1.9 1.05-2.57a3.7 3.7 0 0 1 2.69-1.02ZM504.23 689.17c0 .89-.04 1.65-.13 2.28h-13.15c.22 1.8.72 3.05 1.51 3.77a4.8 4.8 0 0 0 3.33 1.08c.85 0 1.68-.15 2.47-.46.8-.3 1.67-.78 2.6-1.42l2.6 3.52a12.95 12.95 0 0 1-8.28 2.97c-3.44 0-6.08-1.02-7.92-3.05-1.84-2.03-2.75-4.75-2.75-8.16 0-2.16.38-4.1 1.16-5.82a9.42 9.42 0 0 1 3.39-4.08c1.5-1 3.29-1.5 5.37-1.5 3.06 0 5.46.96 7.19 2.89 1.74 1.92 2.6 4.58 2.6 7.98Zm-6.2-1.8c-.06-3.24-1.2-4.87-3.44-4.87a3 3 0 0 0-2.55 1.2c-.6.8-.96 2.12-1.1 3.96h7.09ZM515.26 678.3c1.52 0 2.94.23 4.28.68 1.33.45 2.5 1.1 3.53 1.93l-2.33 3.54a9.72 9.72 0 0 0-5.23-1.64c-.84 0-1.47.14-1.9.42-.44.29-.66.68-.66 1.2 0 .39.1.72.3.98.19.25.6.5 1.21.78.62.26 1.56.58 2.85.95 2.2.64 3.85 1.47 4.93 2.5a5.59 5.59 0 0 1 1.63 4.27c0 1.43-.42 2.68-1.25 3.73a7.78 7.78 0 0 1-3.4 2.42c-1.43.57-3.03.85-4.79.85-1.8 0-3.45-.28-4.98-.85a11.5 11.5 0 0 1-3.91-2.33l3.08-3.43a9.08 9.08 0 0 0 5.64 2.08c.97 0 1.72-.18 2.26-.52.56-.34.83-.84.83-1.48 0-.5-.1-.9-.33-1.2-.2-.3-.62-.57-1.23-.82-.62-.25-1.59-.56-2.92-.94-2.1-.61-3.68-1.47-4.72-2.56a5.68 5.68 0 0 1-1.56-4.08c0-1.23.35-2.33 1.06-3.3a7.2 7.2 0 0 1 3.03-2.32c1.32-.57 2.85-.86 4.58-.86Zm0 0"/><path fill="#fff" d="M355.07 231.57v27.05h-6.2v-20.88l-5.8 3.56-2.77-4.2 9.13-5.53Zm0 0"/><g clip-path="url(#am)"><g clip-path="url(#an)"><path d="M225.95 545.5h59.9v59.9h-59.9Zm0 0"/></g></g><path fill="#fff" d="M255.08 560.6c1.94 0 3.62.35 5.01 1.05a7.56 7.56 0 0 1 3.2 2.8 7.11 7.11 0 0 1 1.12 3.87 9.9 9.9 0 0 1-.9 4.12 18.8 18.8 0 0 1-3.12 4.5 86.84 86.84 0 0 1-6.51 6.41h11.09l-.64 4.84h-17.61v-4.48c3.28-3.22 5.66-5.64 7.16-7.28a22.73 22.73 0 0 0 3.14-4.11c.6-1.1.9-2.21.9-3.36 0-1.1-.3-1.95-.93-2.58a3.42 3.42 0 0 0-2.55-.95c-.96 0-1.81.23-2.56.67a9.7 9.7 0 0 0-2.36 2.14l-3.72-2.97a12.25 12.25 0 0 1 4.01-3.44 11.15 11.15 0 0 1 5.27-1.23Zm0 0"/><path d="M1095.7 502.99c1.73 0 3.26.26 4.6.77 1.36.5 2.64 1.27 3.84 2.28l-3.13 3.72a10.54 10.54 0 0 0-2.44-1.44 6.86 6.86 0 0 0-2.56-.49 5.1 5.1 0 0 0-4.42 2.36c-1.07 1.58-1.61 4-1.61 7.28 0 3.24.54 5.63 1.6 7.2a5.18 5.18 0 0 0 4.5 2.32c1.03 0 1.95-.2 2.77-.58.83-.38 1.72-.94 2.7-1.65l2.91 3.76a12.59 12.59 0 0 1-3.78 2.56c-1.48.67-3.11 1-4.9 1-2.57 0-4.8-.56-6.7-1.68a11.37 11.37 0 0 1-4.41-4.99 18.2 18.2 0 0 1-1.58-7.94c0-3 .54-5.6 1.62-7.8a11.63 11.63 0 0 1 10.99-6.68ZM1116.46 509.47c3.25 0 5.8 1 7.63 2.99 1.84 2 2.76 4.77 2.76 8.34 0 2.26-.42 4.25-1.26 5.94a9.28 9.28 0 0 1-3.6 3.94c-1.56.94-3.4 1.4-5.53 1.4-3.23 0-5.77-.99-7.62-2.98-1.86-1.99-2.78-4.77-2.78-8.34 0-2.27.41-4.25 1.25-5.94.84-1.7 2.04-3 3.6-3.94 1.57-.94 3.42-1.4 5.55-1.4Zm0 4.65c-1.28 0-2.24.54-2.89 1.62-.64 1.07-.95 2.75-.95 5.02 0 2.32.31 4.02.94 5.09a3.14 3.14 0 0 0 2.9 1.6 3.1 3.1 0 0 0 2.86-1.63c.65-1.08.97-2.76.97-5.02 0-2.32-.31-4.01-.94-5.08a3.12 3.12 0 0 0-2.89-1.6ZM1142.62 509.47c2.66 0 4.65 1 5.95 2.97 1.31 1.97 1.97 4.73 1.97 8.27 0 2.19-.35 4.15-1.03 5.87a9.2 9.2 0 0 1-2.94 4.05 7.23 7.23 0 0 1-4.48 1.45 6.59 6.59 0 0 1-5.16-2.2v9.72l-6.31.67v-30.1h5.56l.31 2.35a7.77 7.77 0 0 1 6.13-3.05Zm-2.44 17.97c2.53 0 3.8-2.2 3.8-6.64 0-2.5-.29-4.25-.85-5.22a2.73 2.73 0 0 0-2.51-1.46c-.72 0-1.4.21-2.03.64a5.76 5.76 0 0 0-1.66 1.84v8.95c.85 1.26 1.94 1.9 3.25 1.9ZM1160.8 510.16v21.24h-6.3v-21.24Zm-3.18-11.2c1.1 0 1.99.34 2.69 1.01.7.68 1.06 1.54 1.06 2.58 0 1.05-.36 1.9-1.06 2.6a3.7 3.7 0 0 1-2.7 1.01c-1.08 0-1.98-.33-2.68-1.01a3.48 3.48 0 0 1-1.05-2.6c0-1.04.35-1.9 1.05-2.58a3.7 3.7 0 0 1 2.69-1.01ZM1184.29 520.35c0 .89-.04 1.65-.13 2.28h-13.15c.22 1.8.72 3.05 1.51 3.77a4.8 4.8 0 0 0 3.33 1.07c.85 0 1.68-.14 2.47-.45.8-.31 1.67-.78 2.6-1.42l2.6 3.52a12.95 12.95 0 0 1-8.28 2.96c-3.44 0-6.08-1.01-7.92-3.04-1.84-2.03-2.75-4.75-2.75-8.16 0-2.16.38-4.1 1.16-5.83a9.42 9.42 0 0 1 3.39-4.08c1.5-1 3.29-1.5 5.37-1.5 3.06 0 5.46.97 7.19 2.9 1.74 1.91 2.6 4.57 2.6 7.98Zm-6.2-1.8c-.06-3.25-1.2-4.87-3.44-4.87a3 3 0 0 0-2.55 1.2c-.6.8-.96 2.12-1.1 3.95h7.09ZM1195.32 509.47c1.52 0 2.95.24 4.28.7 1.33.44 2.5 1.08 3.53 1.91l-2.33 3.55a9.72 9.72 0 0 0-5.23-1.64c-.84 0-1.47.14-1.9.42-.44.28-.66.68-.66 1.19 0 .4.1.73.3.98.19.25.6.52 1.21.79.62.26 1.57.57 2.85.95 2.2.64 3.85 1.47 4.93 2.5a5.59 5.59 0 0 1 1.63 4.26c0 1.44-.42 2.69-1.25 3.74a7.78 7.78 0 0 1-3.4 2.42c-1.43.56-3.03.84-4.79.84-1.8 0-3.45-.28-4.98-.84a11.5 11.5 0 0 1-3.9-2.33l3.07-3.44a9.08 9.08 0 0 0 5.64 2.08c.97 0 1.72-.17 2.27-.51.55-.35.82-.84.82-1.49 0-.5-.1-.9-.32-1.18-.22-.3-.63-.58-1.24-.83-.62-.25-1.59-.57-2.92-.94-2.1-.61-3.68-1.47-4.72-2.56a5.68 5.68 0 0 1-1.56-4.08c0-1.23.35-2.33 1.06-3.3a7.2 7.2 0 0 1 3.03-2.33c1.32-.57 2.85-.86 4.58-.86ZM1228.68 509.47c2.53 0 4.48 1 5.84 2.99 1.37 2 2.05 4.77 2.05 8.34 0 2.19-.34 4.14-1.03 5.85a9.17 9.17 0 0 1-2.92 4 7.23 7.23 0 0 1-4.5 1.43 6.88 6.88 0 0 1-5.55-2.73l-.33 2.05h-5.6v-29.7l6.32-.66v11.28a7.07 7.07 0 0 1 5.72-2.84Zm-2.4 18c2.49 0 3.73-2.22 3.73-6.67 0-2.54-.3-4.29-.9-5.25a2.81 2.81 0 0 0-2.54-1.43c-1.42 0-2.62.82-3.6 2.48v8.84c.4.64.89 1.14 1.46 1.5.57.36 1.2.53 1.86.53ZM1258.45 531.4h-5.49l-.28-2.7a7.4 7.4 0 0 1-6.44 3.38c-1.94 0-3.42-.59-4.42-1.76-1-1.18-1.5-2.82-1.5-4.92v-15.24h6.32v14.44c0 1.04.16 1.77.5 2.19.33.4.84.6 1.54.6 1.33 0 2.48-.82 3.44-2.48v-14.75h6.33ZM1274.92 509.55c.77 0 1.48.1 2.12.28l-1 6.13a8.97 8.97 0 0 0-1.92-.28c-1.26 0-2.22.43-2.87 1.3a10.2 10.2 0 0 0-1.53 3.9v10.52h-6.32v-21.24h5.52l.51 4.11a7.59 7.59 0 0 1 2.18-3.45 4.93 4.93 0 0 1 3.3-1.27ZM1286.91 509.47c1.52 0 2.95.24 4.28.7 1.33.44 2.51 1.08 3.53 1.91l-2.33 3.55a9.72 9.72 0 0 0-5.23-1.64c-.84 0-1.47.14-1.9.42-.44.28-.66.68-.66 1.19 0 .4.1.73.3.98.19.25.6.52 1.21.79.62.26 1.57.57 2.85.95 2.2.64 3.85 1.47 4.93 2.5a5.59 5.59 0 0 1 1.63 4.26c0 1.44-.42 2.69-1.25 3.74a7.78 7.78 0 0 1-3.4 2.42c-1.43.56-3.03.84-4.79.84-1.8 0-3.45-.28-4.98-.84a11.5 11.5 0 0 1-3.9-2.33l3.07-3.44a9.08 9.08 0 0 0 5.64 2.08c.97 0 1.72-.17 2.27-.51.55-.35.82-.84.82-1.49 0-.5-.1-.9-.32-1.18-.21-.3-.62-.58-1.24-.83s-1.59-.57-2.92-.94c-2.1-.61-3.68-1.47-4.72-2.56a5.68 5.68 0 0 1-1.56-4.08c0-1.23.35-2.33 1.06-3.3a7.2 7.2 0 0 1 3.03-2.33c1.32-.57 2.85-.86 4.58-.86ZM1312.07 530.4a10.77 10.77 0 0 1-5.75 1.69c-4.65-.04-6.97-2.6-6.97-7.7v-9.84h-3v-4.39h3v-4.6l6.33-.73v5.33h4.88l-.7 4.4h-4.18v9.76c0 1 .16 1.7.47 2.12.32.43.83.64 1.53.64a4.6 4.6 0 0 0 2.28-.68ZM1332.88 509.47c3.25 0 5.79 1 7.63 2.99 1.84 2 2.76 4.77 2.76 8.34 0 2.26-.42 4.25-1.26 5.94a9.28 9.28 0 0 1-3.6 3.94c-1.56.94-3.4 1.4-5.53 1.4-3.23 0-5.77-.99-7.62-2.98-1.86-1.99-2.79-4.77-2.79-8.34 0-2.27.42-4.25 1.25-5.94.85-1.7 2.05-3 3.61-3.94 1.57-.94 3.41-1.4 5.55-1.4Zm0 4.65c-1.28 0-2.25.54-2.89 1.62-.64 1.07-.95 2.75-.95 5.02 0 2.32.3 4.02.93 5.09a3.14 3.14 0 0 0 2.91 1.6 3.1 3.1 0 0 0 2.86-1.63c.64-1.08.97-2.76.97-5.02 0-2.32-.31-4.01-.94-5.08a3.12 3.12 0 0 0-2.89-1.6ZM1364.96 531.4h-5.49l-.28-2.7a7.4 7.4 0 0 1-6.44 3.38c-1.95 0-3.42-.59-4.42-1.76-1-1.18-1.5-2.82-1.5-4.92v-15.24h6.31v14.44c0 1.04.17 1.77.5 2.19.34.4.85.6 1.55.6 1.33 0 2.48-.82 3.44-2.48v-14.75h6.33ZM1383.23 530.4a10.77 10.77 0 0 1-5.75 1.69c-4.65-.04-6.97-2.6-6.97-7.7v-9.84h-3v-4.39h3v-4.6l6.32-.73v5.33h4.88l-.69 4.4h-4.19v9.76c0 1 .16 1.7.47 2.12.32.43.84.64 1.53.64a4.6 4.6 0 0 0 2.29-.68ZM1093.46 564.97c3.25 0 5.8 1 7.63 2.99 1.84 2 2.76 4.77 2.76 8.34 0 2.26-.42 4.25-1.26 5.94a9.28 9.28 0 0 1-3.6 3.94c-1.56.94-3.4 1.4-5.53 1.4-3.23 0-5.77-.99-7.62-2.98-1.86-1.99-2.78-4.77-2.78-8.34 0-2.27.41-4.25 1.25-5.94.84-1.7 2.04-3 3.6-3.94 1.57-.94 3.42-1.4 5.55-1.4Zm0 4.65c-1.28 0-2.24.54-2.89 1.62-.63 1.07-.95 2.75-.95 5.02 0 2.32.31 4.02.94 5.09a3.14 3.14 0 0 0 2.9 1.6 3.1 3.1 0 0 0 2.86-1.63c.65-1.08.97-2.76.97-5.02 0-2.32-.31-4.01-.94-5.08a3.12 3.12 0 0 0-2.89-1.6ZM1117.34 561.2c-.9 0-1.56.22-1.97.65-.4.43-.6 1.15-.6 2.17v1.64h5l-.68 4.4h-4.31v16.84h-6.33v-16.85h-3.19v-4.39h3.19v-1.89c0-2.12.7-3.86 2.1-5.2 1.4-1.35 3.4-2.03 6.02-2.03 2.1 0 4.04.45 5.8 1.36l-1.72 4.12a7.24 7.24 0 0 0-3.31-.81ZM1144.65 585.9a10.77 10.77 0 0 1-5.75 1.69c-4.65-.04-6.97-2.6-6.97-7.7v-9.84h-3v-4.39h3v-4.6l6.33-.73v5.33h4.87l-.68 4.4h-4.2v9.76c0 1 .16 1.7.48 2.12.32.43.83.64 1.53.64a4.6 4.6 0 0 0 2.28-.68ZM1159.21 564.97c1.85 0 3.28.57 4.32 1.7 1.03 1.11 1.56 2.68 1.56 4.71v15.52h-6.31v-14.44c0-1.07-.18-1.81-.54-2.22a1.8 1.8 0 0 0-1.46-.62c-1.29 0-2.52.9-3.7 2.71v14.57h-6.3v-29.7l6.3-.62v11.36a9.52 9.52 0 0 1 2.8-2.22c1-.5 2.1-.75 3.33-.75ZM1188.37 575.85c0 .89-.04 1.65-.13 2.28h-13.15c.22 1.8.72 3.05 1.51 3.77a4.8 4.8 0 0 0 3.33 1.07c.85 0 1.68-.14 2.47-.45.8-.31 1.67-.78 2.6-1.42l2.6 3.52a12.95 12.95 0 0 1-8.28 2.96c-3.44 0-6.08-1.01-7.92-3.04-1.84-2.03-2.75-4.75-2.75-8.16 0-2.16.38-4.1 1.16-5.83a9.42 9.42 0 0 1 3.39-4.08c1.5-1 3.29-1.5 5.37-1.5 3.06 0 5.46.97 7.19 2.9 1.74 1.91 2.6 4.57 2.6 7.98Zm-6.2-1.8c-.06-3.25-1.2-4.87-3.44-4.87a3 3 0 0 0-2.55 1.2c-.6.8-.96 2.12-1.1 3.95h7.09ZM1210.61 564.97c1.46 0 2.78.22 3.96.65 1.17.43 2.28 1.08 3.3 1.96l-2.71 3.75a6.67 6.67 0 0 0-4.03-1.51c-1.42 0-2.49.52-3.2 1.56-.72 1.04-1.08 2.72-1.08 5.03 0 2.24.36 3.83 1.08 4.77a3.7 3.7 0 0 0 3.12 1.4c.72 0 1.37-.1 1.95-.34a14 14 0 0 0 2.13-1.1l2.75 3.91a11.14 11.14 0 0 1-7.16 2.53c-2.15 0-4.02-.46-5.6-1.37a9.34 9.34 0 0 1-3.63-3.9 12.65 12.65 0 0 1-1.28-5.85c0-2.24.42-4.22 1.28-5.95a9.63 9.63 0 0 1 3.64-4.07c1.57-.97 3.4-1.47 5.48-1.47ZM1239.08 575.85c0 .89-.04 1.65-.12 2.28h-13.16c.22 1.8.72 3.05 1.52 3.77a4.8 4.8 0 0 0 3.33 1.07c.85 0 1.67-.14 2.46-.45.8-.31 1.68-.78 2.61-1.42l2.6 3.52a12.95 12.95 0 0 1-8.28 2.96c-3.44 0-6.08-1.01-7.93-3.04-1.83-2.03-2.75-4.75-2.75-8.16 0-2.16.39-4.1 1.16-5.83a9.42 9.42 0 0 1 3.4-4.08c1.5-1 3.28-1.5 5.37-1.5 3.06 0 5.45.97 7.18 2.9 1.74 1.91 2.61 4.57 2.61 7.98Zm-6.2-1.8c-.05-3.25-1.2-4.87-3.44-4.87a3 3 0 0 0-2.54 1.2c-.6.8-.97 2.12-1.1 3.95h7.08ZM1248.29 587.58c-1.85 0-3.29-.52-4.32-1.57-1.02-1.07-1.53-2.57-1.53-4.52v-24.28l6.31-.67v24.72c0 .88.37 1.32 1.1 1.32.36 0 .7-.06 1.03-.2l1.23 4.47a9.68 9.68 0 0 1-3.82.73ZM1260.16 587.58c-1.84 0-3.28-.52-4.3-1.57-1.03-1.07-1.54-2.57-1.54-4.52v-24.28l6.31-.67v24.72c0 .88.37 1.32 1.1 1.32.36 0 .7-.06 1.03-.2l1.23 4.47a9.68 9.68 0 0 1-3.83.73Zm0 0"/><g clip-path="url(#ao)"><g clip-path="url(#ap)"><path d="M1011.52 487.67h59.9v59.9h-59.9Zm0 0"/></g></g><path fill="#fff" d="M1040.64 502.78c1.9 0 3.51.3 4.86.92a7.2 7.2 0 0 1 3.08 2.47 6.07 6.07 0 0 1 1.06 3.48 6.1 6.1 0 0 1-1.4 4.08 7.65 7.65 0 0 1-3.88 2.36c1.8.19 3.29.84 4.43 1.94 1.15 1.1 1.72 2.67 1.72 4.7a7.7 7.7 0 0 1-1.2 4.19 8.24 8.24 0 0 1-3.53 3.01 12.78 12.78 0 0 1-5.58 1.13c-3.95 0-7.04-1.36-9.28-4.1l3.39-3.3a9.9 9.9 0 0 0 2.66 1.98c.87.4 1.83.6 2.87.6 1.25 0 2.26-.34 3.03-1.02a3.7 3.7 0 0 0 1.16-2.9c0-1.38-.37-2.37-1.1-2.96-.73-.6-1.82-.91-3.3-.91h-2.24l.69-4.36h1.56c1.2 0 2.14-.3 2.83-.92a3.28 3.28 0 0 0 1.04-2.6c0-.98-.32-1.75-.97-2.3a3.88 3.88 0 0 0-2.62-.82c-1.9 0-3.66.79-5.28 2.36l-3.13-3.4a12.82 12.82 0 0 1 9.13-3.63Zm0 0"/><path d="M859.93 122.6a9.41 9.41 0 0 1 4.5 2.05c1.15 1.02 1.73 2.54 1.73 4.57 0 2.96-1.06 5.04-3.19 6.26-2.11 1.21-5.08 1.81-8.89 1.81h-8.92v-27.71H853c3.9 0 6.87.55 8.93 1.65 2.05 1.1 3.07 2.92 3.07 5.42a5.4 5.4 0 0 1-1.46 3.94 7.26 7.26 0 0 1-3.61 2.02Zm-8.2-8.38v6.43h2.43c2.78 0 4.17-1.11 4.17-3.36 0-1.12-.37-1.9-1.12-2.37-.75-.47-1.94-.7-3.57-.7Zm2.4 18.3c1.73 0 3.04-.24 3.94-.76.9-.52 1.34-1.48 1.34-2.9 0-2.57-1.6-3.85-4.8-3.85h-2.89v7.52ZM886.6 131.14c0 .8.12 1.39.35 1.76.22.37.6.64 1.1.83l-1.32 4.13a7.7 7.7 0 0 1-3.2-.86 4.65 4.65 0 0 1-1.93-2.22c-1.38 2.14-3.52 3.2-6.4 3.2-2.1 0-3.78-.61-5.03-1.84a6.43 6.43 0 0 1-1.88-4.8c0-2.32.85-4.1 2.55-5.33 1.7-1.22 4.17-1.84 7.4-1.84h2.16v-.92c0-1.25-.26-2.1-.8-2.56-.53-.47-1.46-.7-2.8-.7-.7 0-1.54.1-2.52.29-.98.2-2 .47-3.04.81l-1.43-4.15a23.71 23.71 0 0 1 8-1.57c3.04 0 5.26.64 6.67 1.9 1.41 1.24 2.12 3.12 2.12 5.62Zm-9.56 2.31c1.44 0 2.56-.67 3.36-2.03v-3.77h-1.56c-1.44 0-2.51.26-3.22.77-.71.5-1.06 1.29-1.06 2.36 0 .85.22 1.51.65 1.98.45.46 1.06.7 1.83.7ZM900.85 115.37c1.46 0 2.77.22 3.95.64 1.18.43 2.28 1.09 3.32 1.97l-2.72 3.75a6.67 6.67 0 0 0-4.03-1.51c-1.42 0-2.49.52-3.2 1.56-.73 1.04-1.09 2.72-1.09 5.03 0 2.24.36 3.83 1.08 4.77a3.7 3.7 0 0 0 3.13 1.4c.72 0 1.36-.11 1.95-.34a14 14 0 0 0 2.13-1.11l2.75 3.92a11.14 11.14 0 0 1-7.16 2.53c-2.16 0-4.02-.46-5.6-1.37a9.34 9.34 0 0 1-3.64-3.9 12.65 12.65 0 0 1-1.28-5.85c0-2.24.43-4.23 1.28-5.96a9.63 9.63 0 0 1 3.65-4.06c1.57-.97 3.4-1.47 5.48-1.47ZM924.12 136.3a10.77 10.77 0 0 1-5.75 1.69c-4.65-.04-6.97-2.6-6.97-7.7v-9.84h-3v-4.39h3v-4.6l6.33-.73v5.33h4.87l-.69 4.4h-4.18v9.76c0 .99.15 1.7.47 2.12.32.43.83.64 1.53.64a4.6 4.6 0 0 0 2.28-.69ZM944.76 126.25c0 .88-.04 1.65-.13 2.28h-13.15c.22 1.8.72 3.05 1.51 3.76a4.8 4.8 0 0 0 3.33 1.08c.85 0 1.68-.15 2.47-.45.8-.31 1.67-.79 2.6-1.42L944 135a12.95 12.95 0 0 1-8.28 2.97c-3.44 0-6.08-1.01-7.92-3.04-1.84-2.04-2.75-4.75-2.75-8.16 0-2.16.38-4.11 1.16-5.83a9.42 9.42 0 0 1 3.39-4.08c1.5-1 3.29-1.5 5.37-1.5 3.06 0 5.46.97 7.19 2.9 1.74 1.91 2.6 4.57 2.6 7.98Zm-6.2-1.8c-.06-3.25-1.2-4.87-3.44-4.87a3 3 0 0 0-2.55 1.2c-.6.8-.96 2.12-1.1 3.95h7.09ZM959.84 115.45c.77 0 1.47.1 2.12.28l-1 6.13a8.97 8.97 0 0 0-1.92-.28c-1.26 0-2.22.43-2.88 1.3a10.2 10.2 0 0 0-1.53 3.9v10.51h-6.3v-21.23h5.5l.52 4.11a7.59 7.59 0 0 1 2.17-3.45 4.93 4.93 0 0 1 3.32-1.27ZM970.67 116.06v21.23h-6.31v-21.23Zm-3.19-11.2c1.1 0 2 .34 2.7 1.01.7.68 1.05 1.54 1.05 2.58s-.35 1.9-1.06 2.6a3.7 3.7 0 0 1-2.69 1.01c-1.09 0-1.99-.34-2.68-1.02a3.48 3.48 0 0 1-1.05-2.59c0-1.04.35-1.9 1.05-2.58a3.7 3.7 0 0 1 2.68-1.01ZM992.51 131.14c0 .8.12 1.39.35 1.76.22.37.6.64 1.1.83l-1.32 4.13a7.7 7.7 0 0 1-3.2-.86 4.65 4.65 0 0 1-1.93-2.22c-1.38 2.14-3.52 3.2-6.4 3.2-2.1 0-3.78-.61-5.03-1.84a6.43 6.43 0 0 1-1.88-4.8c0-2.32.85-4.1 2.55-5.33 1.7-1.22 4.17-1.84 7.4-1.84h2.16v-.92c0-1.25-.27-2.1-.8-2.56-.53-.47-1.46-.7-2.8-.7-.7 0-1.54.1-2.52.29-.99.2-2 .47-3.04.81l-1.43-4.15a23.71 23.71 0 0 1 8-1.57c3.04 0 5.26.64 6.67 1.9 1.41 1.24 2.12 3.12 2.12 5.62Zm-9.56 2.31c1.44 0 2.56-.67 3.36-2.03v-3.77h-1.56c-1.44 0-2.51.26-3.22.77-.71.5-1.06 1.29-1.06 2.36 0 .85.22 1.51.65 1.98.45.46 1.06.7 1.83.7ZM353.53 97.6a9.41 9.41 0 0 1 4.5 2.05c1.16 1.02 1.73 2.54 1.73 4.57 0 2.96-1.06 5.04-3.18 6.26-2.12 1.21-5.08 1.81-8.9 1.81h-8.92V84.58h7.85c3.9 0 6.86.55 8.92 1.65 2.05 1.1 3.08 2.92 3.08 5.42a5.4 5.4 0 0 1-1.47 3.94 7.26 7.26 0 0 1-3.61 2.02Zm-8.2-8.38v6.43h2.43c2.78 0 4.18-1.11 4.18-3.36 0-1.12-.38-1.9-1.13-2.37-.75-.47-1.94-.7-3.56-.7Zm2.4 18.3c1.73 0 3.04-.24 3.94-.76.9-.52 1.34-1.48 1.34-2.9 0-2.57-1.6-3.85-4.8-3.85h-2.88v7.52ZM380.2 106.14c0 .8.12 1.39.35 1.76.23.37.6.64 1.1.83l-1.32 4.13a7.7 7.7 0 0 1-3.2-.86 4.65 4.65 0 0 1-1.92-2.22c-1.39 2.14-3.53 3.2-6.41 3.2-2.1 0-3.78-.61-5.03-1.84a6.43 6.43 0 0 1-1.88-4.8c0-2.32.85-4.1 2.55-5.33 1.7-1.22 4.18-1.84 7.4-1.84H374v-.92c0-1.25-.26-2.1-.8-2.56-.52-.47-1.46-.7-2.79-.7-.7 0-1.54.1-2.53.29-.98.2-2 .47-3.03.81l-1.44-4.15a23.71 23.71 0 0 1 8-1.57c3.04 0 5.27.64 6.67 1.9 1.42 1.24 2.13 3.12 2.13 5.62Zm-9.56 2.31c1.44 0 2.56-.67 3.36-2.03v-3.77h-1.56c-1.44 0-2.51.26-3.22.77-.7.5-1.06 1.29-1.06 2.36 0 .85.22 1.51.66 1.98.44.46 1.05.7 1.82.7ZM394.45 90.37c1.46 0 2.78.22 3.96.64 1.17.43 2.28 1.09 3.3 1.97L399 96.73a6.67 6.67 0 0 0-4.03-1.51c-1.42 0-2.49.52-3.2 1.56-.72 1.04-1.08 2.72-1.08 5.03 0 2.24.36 3.83 1.08 4.77a3.7 3.7 0 0 0 3.12 1.4c.72 0 1.37-.11 1.95-.34a14 14 0 0 0 2.13-1.11l2.75 3.92a11.14 11.14 0 0 1-7.16 2.53c-2.15 0-4.02-.46-5.6-1.37a9.34 9.34 0 0 1-3.63-3.9 12.65 12.65 0 0 1-1.28-5.85c0-2.24.42-4.23 1.28-5.96a9.63 9.63 0 0 1 3.64-4.06c1.57-.97 3.4-1.47 5.48-1.47ZM417.72 111.3a10.77 10.77 0 0 1-5.75 1.69c-4.65-.04-6.97-2.6-6.97-7.7v-9.84h-3v-4.39h3v-4.6l6.33-.73v5.33h4.87l-.68 4.4h-4.19v9.76c0 .99.16 1.7.47 2.12.32.43.83.64 1.53.64a4.6 4.6 0 0 0 2.28-.69ZM438.36 101.25c0 .88-.04 1.65-.12 2.28h-13.16c.22 1.8.72 3.05 1.52 3.76a4.8 4.8 0 0 0 3.32 1.08c.86 0 1.68-.15 2.47-.45.8-.31 1.67-.79 2.61-1.42l2.6 3.51a12.95 12.95 0 0 1-8.29 2.97c-3.43 0-6.07-1.01-7.92-3.04-1.83-2.04-2.75-4.75-2.75-8.16 0-2.16.39-4.11 1.16-5.83a9.42 9.42 0 0 1 3.39-4.08c1.5-1 3.29-1.5 5.37-1.5 3.07 0 5.46.97 7.2 2.9 1.73 1.91 2.6 4.57 2.6 7.98Zm-6.2-1.8c-.06-3.25-1.2-4.87-3.44-4.87a3 3 0 0 0-2.55 1.2c-.59.8-.96 2.12-1.09 3.95h7.08ZM453.44 90.45c.77 0 1.48.1 2.12.28l-1 6.13a8.97 8.97 0 0 0-1.92-.28c-1.26 0-2.22.43-2.87 1.3a10.2 10.2 0 0 0-1.53 3.9v10.51h-6.32V91.06h5.52l.52 4.11a7.59 7.59 0 0 1 2.17-3.45 4.93 4.93 0 0 1 3.31-1.27ZM464.27 91.06v21.23h-6.3V91.06Zm-3.18-11.2c1.1 0 1.99.34 2.68 1.01.71.68 1.07 1.54 1.07 2.58s-.36 1.9-1.07 2.6a3.7 3.7 0 0 1-2.68 1.01c-1.1 0-2-.34-2.69-1.02a3.48 3.48 0 0 1-1.05-2.59c0-1.04.35-1.9 1.05-2.58a3.7 3.7 0 0 1 2.69-1.01ZM478.44 90.37c3.25 0 5.8 1 7.63 2.99 1.84 1.99 2.76 4.77 2.76 8.34 0 2.26-.42 4.24-1.26 5.94a9.28 9.28 0 0 1-3.6 3.94c-1.56.93-3.4 1.4-5.53 1.4-3.23 0-5.77-.99-7.62-2.98-1.86-1.99-2.78-4.77-2.78-8.35 0-2.27.41-4.25 1.25-5.93.84-1.7 2.04-3.01 3.6-3.94 1.57-.94 3.42-1.4 5.55-1.4Zm0 4.64c-1.28 0-2.24.55-2.89 1.63-.63 1.07-.95 2.74-.95 5.01 0 2.33.31 4.03.94 5.1a3.14 3.14 0 0 0 2.9 1.6 3.1 3.1 0 0 0 2.86-1.63c.65-1.09.97-2.76.97-5.02 0-2.32-.31-4.01-.94-5.08a3.12 3.12 0 0 0-2.89-1.6ZM504.6 90.37c2.66 0 4.65 1 5.95 2.97 1.31 1.97 1.97 4.73 1.97 8.27 0 2.18-.34 4.15-1.03 5.87a9.2 9.2 0 0 1-2.94 4.05 7.23 7.23 0 0 1-4.48 1.45 6.59 6.59 0 0 1-5.16-2.2v9.72l-6.31.67v-30.1h5.56l.31 2.35a7.77 7.77 0 0 1 6.13-3.05Zm-2.44 17.97c2.53 0 3.8-2.2 3.8-6.64 0-2.5-.28-4.25-.85-5.22a2.73 2.73 0 0 0-2.51-1.47c-.72 0-1.4.22-2.03.64a5.76 5.76 0 0 0-1.66 1.85v8.95c.85 1.26 1.94 1.9 3.25 1.9ZM528.91 90.37c1.85 0 3.29.57 4.32 1.7 1.04 1.1 1.56 2.68 1.56 4.7v15.52h-6.31V97.86c0-1.07-.18-1.82-.53-2.22a1.8 1.8 0 0 0-1.47-.63c-1.28 0-2.52.91-3.7 2.72v14.56h-6.3V82.61l6.3-.63v11.36a9.52 9.52 0 0 1 2.8-2.22c1-.5 2.1-.75 3.33-.75ZM556.43 106.14c0 .8.11 1.39.34 1.76.23.37.6.64 1.1.83l-1.32 4.13a7.7 7.7 0 0 1-3.2-.86 4.65 4.65 0 0 1-1.92-2.22c-1.39 2.14-3.52 3.2-6.4 3.2-2.11 0-3.79-.61-5.04-1.84a6.43 6.43 0 0 1-1.87-4.8c0-2.32.84-4.1 2.54-5.33 1.71-1.22 4.18-1.84 7.41-1.84h2.16v-.92c0-1.25-.27-2.1-.8-2.56-.53-.47-1.47-.7-2.8-.7-.7 0-1.54.1-2.53.29-.98.2-2 .47-3.03.81l-1.44-4.15a23.71 23.71 0 0 1 8-1.57c3.04 0 5.27.64 6.67 1.9 1.42 1.24 2.13 3.12 2.13 5.62Zm-9.56 2.31c1.43 0 2.55-.67 3.36-2.03v-3.77h-1.57c-1.43 0-2.5.26-3.22.77-.7.5-1.06 1.29-1.06 2.36 0 .85.22 1.51.66 1.98.44.46 1.05.7 1.83.7ZM581.03 92.3c-1.4.56-3.43.84-6.12.84 1.38.58 2.4 1.3 3.03 2.15.65.86.97 1.97.97 3.32 0 1.36-.36 2.59-1.08 3.67a7.21 7.21 0 0 1-3.1 2.53c-1.35.62-2.93.92-4.74.92-.86 0-1.67-.08-2.44-.23-.22.1-.39.27-.52.5-.11.23-.17.46-.17.7 0 .4.15.71.46.94.3.23.93.34 1.87.34h3.2c1.63 0 3.05.27 4.27.8a6.62 6.62 0 0 1 2.84 2.2c.67.93 1 1.98 1 3.16 0 2.2-.95 3.93-2.86 5.17-1.9 1.24-4.65 1.86-8.25 1.86-2.59 0-4.63-.28-6.12-.83a5.83 5.83 0 0 1-3.14-2.3c-.6-.98-.9-2.21-.9-3.7h5.68c0 .63.12 1.14.37 1.52.26.37.73.65 1.4.84.66.19 1.62.28 2.87.28 1.73 0 2.93-.2 3.6-.62a2 2 0 0 0 1-1.78 1.8 1.8 0 0 0-.77-1.54c-.5-.36-1.26-.54-2.27-.54h-3.08c-2.18 0-3.82-.4-4.9-1.17a3.6 3.6 0 0 1-1.63-3.04c0-.76.23-1.51.68-2.25a5.59 5.59 0 0 1 1.85-1.82 7.47 7.47 0 0 1-2.9-2.53 6.6 6.6 0 0 1-.9-3.55c0-2.38.84-4.26 2.55-5.66 1.71-1.4 3.97-2.1 6.77-2.1 2.13.05 3.94-.17 5.42-.65 1.48-.47 3-1.19 4.58-2.12Zm-11.32 2.23a3 3 0 0 0-2.35.95 3.66 3.66 0 0 0-.86 2.58c0 1.15.29 2.03.86 2.66.57.62 1.35.93 2.35.93 1.04 0 1.83-.3 2.37-.92.55-.61.83-1.53.83-2.75 0-2.3-1.07-3.45-3.2-3.45ZM602.03 101.25c0 .88-.05 1.65-.13 2.28h-13.16c.22 1.8.73 3.05 1.52 3.76a4.8 4.8 0 0 0 3.33 1.08c.85 0 1.67-.15 2.47-.45.8-.31 1.67-.79 2.6-1.42l2.6 3.51a12.95 12.95 0 0 1-8.28 2.97c-3.44 0-6.08-1.01-7.92-3.04-1.84-2.04-2.75-4.75-2.75-8.16 0-2.16.38-4.11 1.15-5.83a9.42 9.42 0 0 1 3.4-4.08c1.5-1 3.28-1.5 5.37-1.5 3.06 0 5.46.97 7.19 2.9 1.73 1.91 2.6 4.57 2.6 7.98Zm-6.2-1.8c-.06-3.25-1.2-4.87-3.45-4.87a3 3 0 0 0-2.54 1.2c-.6.8-.96 2.12-1.1 3.95h7.08Zm0 0"/></svg>