<svg xmlns="http://www.w3.org/2000/svg" viewBox="0 0 660 278" width="660" height="278" role="img">
  <style>
    text { font-family: system-ui, -apple-system, "Segoe UI", sans-serif; }
    .rowlabel { font-size: 14px; font-weight: 600; }
    .value { font-size: 12px; text-anchor: middle; }
    .ticklabel { font-size: 11px; text-anchor: middle; }
    .axislabel { font-size: 11px; text-anchor: middle; }
    .axis, .tick, .baseline { stroke-width: 1; }
    .line { fill: none; stroke-width: 2; stroke-linecap: round; stroke-linejoin: round; }
    .fill { opacity: 0.12; }

    .rowlabel { fill: #52514e; }
    .value, .ticklabel, .axislabel { fill: #898781; }
    .baseline { stroke: #e1e0d9; }
    .axis, .tick { stroke: #c3c2b7; }
    .line.s1 { stroke: #9ec5f4; }
    .line.s2 { stroke: #6da7ec; }
    .line.s3 { stroke: #2a78d6; }
    .fill.s1 { fill: #9ec5f4; }
    .fill.s2 { fill: #6da7ec; }
    .fill.s3 { fill: #2a78d6; }
    @media (prefers-color-scheme: dark) {

    .rowlabel { fill: #c3c2b7; }
    .value, .ticklabel, .axislabel { fill: #898781; }
    .baseline { stroke: #2c2c2a; }
    .axis, .tick { stroke: #383835; }
    .line.s1 { stroke: #184f95; }
    .line.s2 { stroke: #256abf; }
    .line.s3 { stroke: #3987e5; }
    .fill.s1 { fill: #184f95; }
    .fill.s2 { fill: #256abf; }
    .fill.s3 { fill: #3987e5; }
    }
  </style>
  

  <line class="baseline" x1="185" y1="98" x2="645" y2="98"/>
  <path class="fill s1" d="M185.0,97.9L185.5,97.9L186.0,97.8L186.5,97.8L187.0,97.8L187.6,97.8L188.1,97.8L188.6,97.8L189.1,97.8L189.6,97.8L190.1,97.8L190.6,97.8L191.1,97.8L191.6,97.8L192.2,97.8L192.7,97.8L193.2,97.8L193.7,97.8L194.2,97.8L194.7,97.8L195.2,97.8L195.7,97.8L196.2,97.8L196.8,97.7L197.3,97.7L197.8,97.7L198.3,97.7L198.8,97.7L199.3,97.7L199.8,97.7L200.3,97.7L200.8,97.7L201.4,97.7L201.9,97.7L202.4,97.7L202.9,97.7L203.4,97.7L203.9,97.7L204.4,97.6L204.9,97.6L205.4,97.6L206.0,97.6L206.5,97.6L207.0,97.6L207.5,97.6L208.0,97.6L208.5,97.6L209.0,97.6L209.5,97.6L210.0,97.5L210.6,97.5L211.1,97.5L211.6,97.5L212.1,97.5L212.6,97.5L213.1,97.5L213.6,97.5L214.1,97.5L214.6,97.5L215.2,97.4L215.7,97.4L216.2,97.4L216.7,97.4L217.2,97.4L217.7,97.4L218.2,97.4L218.7,97.4L219.2,97.3L219.8,97.3L220.3,97.3L220.8,97.3L221.3,97.3L221.8,97.3L222.3,97.2L222.8,97.2L223.3,97.2L223.8,97.2L224.4,97.2L224.9,97.2L225.4,97.2L225.9,97.1L226.4,97.1L226.9,97.1L227.4,97.1L227.9,97.1L228.4,97.0L229.0,97.0L229.5,97.0L230.0,97.0L230.5,97.0L231.0,96.9L231.5,96.9L232.0,96.9L232.5,96.9L233.0,96.9L233.6,96.8L234.1,96.8L234.6,96.8L235.1,96.8L235.6,96.7L236.1,96.7L236.6,96.7L237.1,96.7L237.6,96.6L238.2,96.6L238.7,96.6L239.2,96.6L239.7,96.5L240.2,96.5L240.7,96.5L241.2,96.5L241.7,96.4L242.2,96.4L242.8,96.4L243.3,96.3L243.8,96.3L244.3,96.3L244.8,96.3L245.3,96.2L245.8,96.2L246.3,96.2L246.8,96.1L247.4,96.1L247.9,96.1L248.4,96.0L248.9,96.0L249.4,96.0L249.9,95.9L250.4,95.9L250.9,95.9L251.4,95.8L252.0,95.8L252.5,95.7L253.0,95.7L253.5,95.7L254.0,95.6L254.5,95.6L255.0,95.5L255.5,95.5L256.0,95.5L256.6,95.4L257.1,95.4L257.6,95.3L258.1,95.3L258.6,95.2L259.1,95.2L259.6,95.2L260.1,95.1L260.6,95.1L261.2,95.0L261.7,95.0L262.2,94.9L262.7,94.9L263.2,94.8L263.7,94.8L264.2,94.7L264.7,94.7L265.2,94.6L265.8,94.6L266.3,94.5L266.8,94.5L267.3,94.4L267.8,94.3L268.3,94.3L268.8,94.2L269.3,94.2L269.8,94.1L270.4,94.1L270.9,94.0L271.4,93.9L271.9,93.9L272.4,93.8L272.9,93.8L273.4,93.7L273.9,93.6L274.4,93.6L275.0,93.5L275.5,93.4L276.0,93.4L276.5,93.3L277.0,93.3L277.5,93.2L278.0,93.1L278.5,93.0L279.0,93.0L279.6,92.9L280.1,92.8L280.6,92.8L281.1,92.7L281.6,92.6L282.1,92.6L282.6,92.5L283.1,92.4L283.6,92.3L284.2,92.3L284.7,92.2L285.2,92.1L285.7,92.0L286.2,91.9L286.7,91.9L287.2,91.8L287.7,91.7L288.2,91.6L288.8,91.6L289.3,91.5L289.8,91.4L290.3,91.3L290.8,91.2L291.3,91.1L291.8,91.1L292.3,91.0L292.8,90.9L293.4,90.8L293.9,90.7L294.4,90.6L294.9,90.5L295.4,90.4L295.9,90.4L296.4,90.3L296.9,90.2L297.4,90.1L298.0,90.0L298.5,89.9L299.0,89.8L299.5,89.7L300.0,89.6L300.5,89.5L301.0,89.4L301.5,89.3L302.0,89.2L302.6,89.1L303.1,89.0L303.6,88.9L304.1,88.8L304.6,88.7L305.1,88.6L305.6,88.5L306.1,88.4L306.6,88.3L307.2,88.2L307.7,88.1L308.2,88.0L308.7,87.9L309.2,87.8L309.7,87.7L310.2,87.6L310.7,87.5L311.2,87.4L311.8,87.3L312.3,87.2L312.8,87.1L313.3,87.0L313.8,86.9L314.3,86.8L314.8,86.7L315.3,86.6L315.8,86.4L316.4,86.3L316.9,86.2L317.4,86.1L317.9,86.0L318.4,85.9L318.9,85.8L319.4,85.7L319.9,85.6L320.4,85.5L321.0,85.3L321.5,85.2L322.0,85.1L322.5,85.0L323.0,84.9L323.5,84.8L324.0,84.7L324.5,84.6L325.0,84.4L325.6,84.3L326.1,84.2L326.6,84.1L327.1,84.0L327.6,83.9L328.1,83.8L328.6,83.7L329.1,83.5L329.6,83.4L330.2,83.3L330.7,83.2L331.2,83.1L331.7,83.0L332.2,82.9L332.7,82.7L333.2,82.6L333.7,82.5L334.2,82.4L334.8,82.3L335.3,82.2L335.8,82.1L336.3,82.0L336.8,81.8L337.3,81.7L337.8,81.6L338.3,81.5L338.8,81.4L339.4,81.3L339.9,81.2L340.4,81.1L340.9,81.0L341.4,80.9L341.9,80.7L342.4,80.6L342.9,80.5L343.4,80.4L344.0,80.3L344.5,80.2L345.0,80.1L345.5,80.0L346.0,79.9L346.5,79.8L347.0,79.7L347.5,79.6L348.0,79.5L348.6,79.4L349.1,79.3L349.6,79.2L350.1,79.1L350.6,79.0L351.1,78.9L351.6,78.8L352.1,78.7L352.6,78.6L353.2,78.5L353.7,78.4L354.2,78.3L354.7,78.2L355.2,78.1L355.7,78.0L356.2,77.9L356.7,77.8L357.2,77.7L357.8,77.6L358.3,77.5L358.8,77.4L359.3,77.3L359.8,77.3L360.3,77.2L360.8,77.1L361.3,77.0L361.8,76.9L362.4,76.8L362.9,76.7L363.4,76.7L363.9,76.6L364.4,76.5L364.9,76.4L365.4,76.4L365.9,76.3L366.4,76.2L367.0,76.1L367.5,76.1L368.0,76.0L368.5,75.9L369.0,75.8L369.5,75.8L370.0,75.7L370.5,75.6L371.0,75.6L371.6,75.5L372.1,75.5L372.6,75.4L373.1,75.3L373.6,75.3L374.1,75.2L374.6,75.2L375.1,75.1L375.6,75.0L376.2,75.0L376.7,74.9L377.2,74.9L377.7,74.8L378.2,74.8L378.7,74.8L379.2,74.7L379.7,74.7L380.2,74.6L380.8,74.6L381.3,74.5L381.8,74.5L382.3,74.5L382.8,74.4L383.3,74.4L383.8,74.4L384.3,74.3L384.8,74.3L385.4,74.3L385.9,74.2L386.4,74.2L386.9,74.2L387.4,74.2L387.9,74.2L388.4,74.1L388.9,74.1L389.4,74.1L390.0,74.1L390.5,74.1L391.0,74.1L391.5,74.0L392.0,74.0L392.5,74.0L393.0,74.0L393.5,74.0L394.0,74.0L394.6,74.0L395.1,74.0L395.6,74.0L396.1,74.0L396.6,74.0L397.1,74.0L397.6,74.0L398.1,74.0L398.6,74.0L399.2,74.0L399.7,74.1L400.2,74.1L400.7,74.1L401.2,74.1L401.7,74.1L402.2,74.1L402.7,74.2L403.2,74.2L403.8,74.2L404.3,74.2L404.8,74.2L405.3,74.3L405.8,74.3L406.3,74.3L406.8,74.4L407.3,74.4L407.8,74.4L408.4,74.5L408.9,74.5L409.4,74.5L409.9,74.6L410.4,74.6L410.9,74.7L411.4,74.7L411.9,74.8L412.4,74.8L413.0,74.9L413.5,74.9L414.0,75.0L414.5,75.0L415.0,75.1L415.5,75.1L416.0,75.2L416.5,75.2L417.0,75.3L417.6,75.3L418.1,75.4L418.6,75.5L419.1,75.5L419.6,75.6L420.1,75.7L420.6,75.7L421.1,75.8L421.6,75.9L422.2,75.9L422.7,76.0L423.2,76.1L423.7,76.1L424.2,76.2L424.7,76.3L425.2,76.4L425.7,76.4L426.2,76.5L426.8,76.6L427.3,76.7L427.8,76.8L428.3,76.8L428.8,76.9L429.3,77.0L429.8,77.1L430.3,77.2L430.8,77.3L431.4,77.4L431.9,77.4L432.4,77.5L432.9,77.6L433.4,77.7L433.9,77.8L434.4,77.9L434.9,78.0L435.4,78.1L436.0,78.2L436.5,78.3L437.0,78.4L437.5,78.5L438.0,78.6L438.5,78.7L439.0,78.8L439.5,78.9L440.0,79.0L440.6,79.1L441.1,79.2L441.6,79.3L442.1,79.4L442.6,79.5L443.1,79.6L443.6,79.7L444.1,79.8L444.6,79.9L445.2,80.0L445.7,80.1L446.2,80.2L446.7,80.3L447.2,80.4L447.7,80.5L448.2,80.6L448.7,80.8L449.2,80.9L449.8,81.0L450.3,81.1L450.8,81.2L451.3,81.3L451.8,81.4L452.3,81.5L452.8,81.6L453.3,81.8L453.8,81.9L454.4,82.0L454.9,82.1L455.4,82.2L455.9,82.3L456.4,82.4L456.9,82.5L457.4,82.7L457.9,82.8L458.4,82.9L459.0,83.0L459.5,83.1L460.0,83.2L460.5,83.3L461.0,83.4L461.5,83.6L462.0,83.7L462.5,83.8L463.0,83.9L463.6,84.0L464.1,84.1L464.6,84.2L465.1,84.3L465.6,84.5L466.1,84.6L466.6,84.7L467.1,84.8L467.6,84.9L468.2,85.0L468.7,85.1L469.2,85.2L469.7,85.4L470.2,85.5L470.7,85.6L471.2,85.7L471.7,85.8L472.2,85.9L472.8,86.0L473.3,86.1L473.8,86.2L474.3,86.3L474.8,86.5L475.3,86.6L475.8,86.7L476.3,86.8L476.8,86.9L477.4,87.0L477.9,87.1L478.4,87.2L478.9,87.3L479.4,87.4L479.9,87.5L480.4,87.6L480.9,87.7L481.4,87.8L482.0,87.9L482.5,88.0L483.0,88.1L483.5,88.2L484.0,88.4L484.5,88.5L485.0,88.6L485.5,88.7L486.0,88.8L486.6,88.9L487.1,89.0L487.6,89.0L488.1,89.1L488.6,89.2L489.1,89.3L489.6,89.4L490.1,89.5L490.6,89.6L491.2,89.7L491.7,89.8L492.2,89.9L492.7,90.0L493.2,90.1L493.7,90.2L494.2,90.3L494.7,90.4L495.2,90.5L495.8,90.5L496.3,90.6L496.8,90.7L497.3,90.8L497.8,90.9L498.3,91.0L498.8,91.1L499.3,91.1L499.8,91.2L500.4,91.3L500.9,91.4L501.4,91.5L501.9,91.6L502.4,91.6L502.9,91.7L503.4,91.8L503.9,91.9L504.4,92.0L505.0,92.0L505.5,92.1L506.0,92.2L506.5,92.3L507.0,92.3L507.5,92.4L508.0,92.5L508.5,92.6L509.0,92.6L509.6,92.7L510.1,92.8L510.6,92.8L511.1,92.9L511.6,93.0L512.1,93.1L512.6,93.1L513.1,93.2L513.6,93.3L514.2,93.3L514.7,93.4L515.2,93.5L515.7,93.5L516.2,93.6L516.7,93.6L517.2,93.7L517.7,93.8L518.2,93.8L518.8,93.9L519.3,94.0L519.8,94.0L520.3,94.1L520.8,94.1L521.3,94.2L521.8,94.2L522.3,94.3L522.8,94.4L523.4,94.4L523.9,94.5L524.4,94.5L524.9,94.6L525.4,94.6L525.9,94.7L526.4,94.7L526.9,94.8L527.4,94.8L528.0,94.9L528.5,94.9L529.0,95.0L529.5,95.0L530.0,95.1L530.5,95.1L531.0,95.2L531.5,95.2L532.0,95.2L532.6,95.3L533.1,95.3L533.6,95.4L534.1,95.4L534.6,95.5L535.1,95.5L535.6,95.5L536.1,95.6L536.6,95.6L537.2,95.7L537.7,95.7L538.2,95.7L538.7,95.8L539.2,95.8L539.7,95.9L540.2,95.9L540.7,95.9L541.2,96.0L541.8,96.0L542.3,96.0L542.8,96.1L543.3,96.1L543.8,96.1L544.3,96.2L544.8,96.2L545.3,96.2L545.8,96.3L546.4,96.3L546.9,96.3L547.4,96.4L547.9,96.4L548.4,96.4L548.9,96.4L549.4,96.5L549.9,96.5L550.4,96.5L551.0,96.5L551.5,96.6L552.0,96.6L552.5,96.6L553.0,96.7L553.5,96.7L554.0,96.7L554.5,96.7L555.0,96.8L555.6,96.8L556.1,96.8L556.6,96.8L557.1,96.8L557.6,96.9L558.1,96.9L558.6,96.9L559.1,96.9L559.6,96.9L560.2,97.0L560.7,97.0L561.2,97.0L561.7,97.0L562.2,97.0L562.7,97.1L563.2,97.1L563.7,97.1L564.2,97.1L564.8,97.1L565.3,97.2L565.8,97.2L566.3,97.2L566.8,97.2L567.3,97.2L567.8,97.2L568.3,97.3L568.8,97.3L569.4,97.3L569.9,97.3L570.4,97.3L570.9,97.3L571.4,97.3L571.9,97.4L572.4,97.4L572.9,97.4L573.4,97.4L574.0,97.4L574.5,97.4L575.0,97.4L575.5,97.4L576.0,97.5L576.5,97.5L577.0,97.5L577.5,97.5L578.0,97.5L578.6,97.5L579.1,97.5L579.6,97.5L580.1,97.5L580.6,97.5L581.1,97.6L581.6,97.6L582.1,97.6L582.6,97.6L583.2,97.6L583.7,97.6L584.2,97.6L584.7,97.6L585.2,97.6L585.7,97.6L586.2,97.6L586.7,97.7L587.2,97.7L587.8,97.7L588.3,97.7L588.8,97.7L589.3,97.7L589.8,97.7L590.3,97.7L590.8,97.7L591.3,97.7L591.8,97.7L592.4,97.7L592.9,97.7L593.4,97.7L593.9,97.8L594.4,97.8L594.9,97.8L595.4,97.8L595.9,97.8L596.4,97.8L597.0,97.8L597.5,97.8L598.0,97.8L598.5,97.8L599.0,97.8L599.5,97.8L600.0,97.8L600.5,97.8L601.0,97.8L601.6,97.8L602.1,97.8L602.6,97.8L603.1,97.8L603.6,97.8L604.1,97.8L604.6,97.8L605.1,97.9L605.6,97.9L606.2,97.9L606.7,97.9L607.2,97.9L607.7,97.9L608.2,97.9L608.7,97.9L609.2,97.9L609.7,97.9L610.2,97.9L610.8,97.9L611.3,97.9L611.8,97.9L612.3,97.9L612.8,97.9L613.3,97.9L613.8,97.9L614.3,97.9L614.8,97.9L615.4,97.9L615.9,97.9L616.4,97.9L616.9,97.9L617.4,97.9L617.9,97.9L618.4,97.9L618.9,97.9L619.4,97.9L620.0,97.9L620.5,97.9L621.0,97.9L621.5,97.9L622.0,97.9L622.5,97.9L623.0,97.9L623.5,97.9L624.0,97.9L624.6,97.9L625.1,97.9L625.6,97.9L626.1,97.9L626.6,98.0L627.1,98.0L627.6,98.0L628.1,98.0L628.6,98.0L629.2,98.0L629.7,98.0L630.2,98.0L630.7,98.0L631.2,98.0L631.7,98.0L632.2,98.0L632.7,98.0L633.2,98.0L633.8,98.0L634.3,98.0L634.8,98.0L635.3,98.0L635.8,98.0L636.3,98.0L636.8,98.0L637.3,98.0L637.8,98.0L638.4,98.0L638.9,98.0L639.4,98.0L639.9,98.0L640.4,98.0L640.9,98.0L641.4,98.0L641.9,98.0L642.4,98.0L643.0,98.0L643.5,98.0L644.0,98.0L644.5,98.0L645.0,98.0L645,98L185,98Z"/>
  <path class="line s1" d="M185.0,97.9L185.5,97.9L186.0,97.8L186.5,97.8L187.0,97.8L187.6,97.8L188.1,97.8L188.6,97.8L189.1,97.8L189.6,97.8L190.1,97.8L190.6,97.8L191.1,97.8L191.6,97.8L192.2,97.8L192.7,97.8L193.2,97.8L193.7,97.8L194.2,97.8L194.7,97.8L195.2,97.8L195.7,97.8L196.2,97.8L196.8,97.7L197.3,97.7L197.8,97.7L198.3,97.7L198.8,97.7L199.3,97.7L199.8,97.7L200.3,97.7L200.8,97.7L201.4,97.7L201.9,97.7L202.4,97.7L202.9,97.7L203.4,97.7L203.9,97.7L204.4,97.6L204.9,97.6L205.4,97.6L206.0,97.6L206.5,97.6L207.0,97.6L207.5,97.6L208.0,97.6L208.5,97.6L209.0,97.6L209.5,97.6L210.0,97.5L210.6,97.5L211.1,97.5L211.6,97.5L212.1,97.5L212.6,97.5L213.1,97.5L213.6,97.5L214.1,97.5L214.6,97.5L215.2,97.4L215.7,97.4L216.2,97.4L216.7,97.4L217.2,97.4L217.7,97.4L218.2,97.4L218.7,97.4L219.2,97.3L219.8,97.3L220.3,97.3L220.8,97.3L221.3,97.3L221.8,97.3L222.3,97.2L222.8,97.2L223.3,97.2L223.8,97.2L224.4,97.2L224.9,97.2L225.4,97.2L225.9,97.1L226.4,97.1L226.9,97.1L227.4,97.1L227.9,97.1L228.4,97.0L229.0,97.0L229.5,97.0L230.0,97.0L230.5,97.0L231.0,96.9L231.5,96.9L232.0,96.9L232.5,96.9L233.0,96.9L233.6,96.8L234.1,96.8L234.6,96.8L235.1,96.8L235.6,96.7L236.1,96.7L236.6,96.7L237.1,96.7L237.6,96.6L238.2,96.6L238.7,96.6L239.2,96.6L239.7,96.5L240.2,96.5L240.7,96.5L241.2,96.5L241.7,96.4L242.2,96.4L242.8,96.4L243.3,96.3L243.8,96.3L244.3,96.3L244.8,96.3L245.3,96.2L245.8,96.2L246.3,96.2L246.8,96.1L247.4,96.1L247.9,96.1L248.4,96.0L248.9,96.0L249.4,96.0L249.9,95.9L250.4,95.9L250.9,95.9L251.4,95.8L252.0,95.8L252.5,95.7L253.0,95.7L253.5,95.7L254.0,95.6L254.5,95.6L255.0,95.5L255.5,95.5L256.0,95.5L256.6,95.4L257.1,95.4L257.6,95.3L258.1,95.3L258.6,95.2L259.1,95.2L259.6,95.2L260.1,95.1L260.6,95.1L261.2,95.0L261.7,95.0L262.2,94.9L262.7,94.9L263.2,94.8L263.7,94.8L264.2,94.7L264.7,94.7L265.2,94.6L265.8,94.6L266.3,94.5L266.8,94.5L267.3,94.4L267.8,94.3L268.3,94.3L268.8,94.2L269.3,94.2L269.8,94.1L270.4,94.1L270.9,94.0L271.4,93.9L271.9,93.9L272.4,93.8L272.9,93.8L273.4,93.7L273.9,93.6L274.4,93.6L275.0,93.5L275.5,93.4L276.0,93.4L276.5,93.3L277.0,93.3L277.5,93.2L278.0,93.1L278.5,93.0L279.0,93.0L279.6,92.9L280.1,92.8L280.6,92.8L281.1,92.7L281.6,92.6L282.1,92.6L282.6,92.5L283.1,92.4L283.6,92.3L284.2,92.3L284.7,92.2L285.2,92.1L285.7,92.0L286.2,91.9L286.7,91.9L287.2,91.8L287.7,91.7L288.2,91.6L288.8,91.6L289.3,91.5L289.8,91.4L290.3,91.3L290.8,91.2L291.3,91.1L291.8,91.1L292.3,91.0L292.8,90.9L293.4,90.8L293.9,90.7L294.4,90.6L294.9,90.5L295.4,90.4L295.9,90.4L296.4,90.3L296.9,90.2L297.4,90.1L298.0,90.0L298.5,89.9L299.0,89.8L299.5,89.7L300.0,89.6L300.5,89.5L301.0,89.4L301.5,89.3L302.0,89.2L302.6,89.1L303.1,89.0L303.6,88.9L304.1,88.8L304.6,88.7L305.1,88.6L305.6,88.5L306.1,88.4L306.6,88.3L307.2,88.2L307.7,88.1L308.2,88.0L308.7,87.9L309.2,87.8L309.7,87.7L310.2,87.6L310.7,87.5L311.2,87.4L311.8,87.3L312.3,87.2L312.8,87.1L313.3,87.0L313.8,86.9L314.3,86.8L314.8,86.7L315.3,86.6L315.8,86.4L316.4,86.3L316.9,86.2L317.4,86.1L317.9,86.0L318.4,85.9L318.9,85.8L319.4,85.7L319.9,85.6L320.4,85.5L321.0,85.3L321.5,85.2L322.0,85.1L322.5,85.0L323.0,84.9L323.5,84.8L324.0,84.7L324.5,84.6L325.0,84.4L325.6,84.3L326.1,84.2L326.6,84.1L327.1,84.0L327.6,83.9L328.1,83.8L328.6,83.7L329.1,83.5L329.6,83.4L330.2,83.3L330.7,83.2L331.2,83.1L331.7,83.0L332.2,82.9L332.7,82.7L333.2,82.6L333.7,82.5L334.2,82.4L334.8,82.3L335.3,82.2L335.8,82.1L336.3,82.0L336.8,81.8L337.3,81.7L337.8,81.6L338.3,81.5L338.8,81.4L339.4,81.3L339.9,81.2L340.4,81.1L340.9,81.0L341.4,80.9L341.9,80.7L342.4,80.6L342.9,80.5L343.4,80.4L344.0,80.3L344.5,80.2L345.0,80.1L345.5,80.0L346.0,79.9L346.5,79.8L347.0,79.7L347.5,79.6L348.0,79.5L348.6,79.4L349.1,79.3L349.6,79.2L350.1,79.1L350.6,79.0L351.1,78.9L351.6,78.8L352.1,78.7L352.6,78.6L353.2,78.5L353.7,78.4L354.2,78.3L354.7,78.2L355.2,78.1L355.7,78.0L356.2,77.9L356.7,77.8L357.2,77.7L357.8,77.6L358.3,77.5L358.8,77.4L359.3,77.3L359.8,77.3L360.3,77.2L360.8,77.1L361.3,77.0L361.8,76.9L362.4,76.8L362.9,76.7L363.4,76.7L363.9,76.6L364.4,76.5L364.9,76.4L365.4,76.4L365.9,76.3L366.4,76.2L367.0,76.1L367.5,76.1L368.0,76.0L368.5,75.9L369.0,75.8L369.5,75.8L370.0,75.7L370.5,75.6L371.0,75.6L371.6,75.5L372.1,75.5L372.6,75.4L373.1,75.3L373.6,75.3L374.1,75.2L374.6,75.2L375.1,75.1L375.6,75.0L376.2,75.0L376.7,74.9L377.2,74.9L377.7,74.8L378.2,74.8L378.7,74.8L379.2,74.7L379.7,74.7L380.2,74.6L380.8,74.6L381.3,74.5L381.8,74.5L382.3,74.5L382.8,74.4L383.3,74.4L383.8,74.4L384.3,74.3L384.8,74.3L385.4,74.3L385.9,74.2L386.4,74.2L386.9,74.2L387.4,74.2L387.9,74.2L388.4,74.1L388.9,74.1L389.4,74.1L390.0,74.1L390.5,74.1L391.0,74.1L391.5,74.0L392.0,74.0L392.5,74.0L393.0,74.0L393.5,74.0L394.0,74.0L394.6,74.0L395.1,74.0L395.6,74.0L396.1,74.0L396.6,74.0L397.1,74.0L397.6,74.0L398.1,74.0L398.6,74.0L399.2,74.0L399.7,74.1L400.2,74.1L400.7,74.1L401.2,74.1L401.7,74.1L402.2,74.1L402.7,74.2L403.2,74.2L403.8,74.2L404.3,74.2L404.8,74.2L405.3,74.3L405.8,74.3L406.3,74.3L406.8,74.4L407.3,74.4L407.8,74.4L408.4,74.5L408.9,74.5L409.4,74.5L409.9,74.6L410.4,74.6L410.9,74.7L411.4,74.7L411.9,74.8L412.4,74.8L413.0,74.9L413.5,74.9L414.0,75.0L414.5,75.0L415.0,75.1L415.5,75.1L416.0,75.2L416.5,75.2L417.0,75.3L417.6,75.3L418.1,75.4L418.6,75.5L419.1,75.5L419.6,75.6L420.1,75.7L420.6,75.7L421.1,75.8L421.6,75.9L422.2,75.9L422.7,76.0L423.2,76.1L423.7,76.1L424.2,76.2L424.7,76.3L425.2,76.4L425.7,76.4L426.2,76.5L426.8,76.6L427.3,76.7L427.8,76.8L428.3,76.8L428.8,76.9L429.3,77.0L429.8,77.1L430.3,77.2L430.8,77.3L431.4,77.4L431.9,77.4L432.4,77.5L432.9,77.6L433.4,77.7L433.9,77.8L434.4,77.9L434.9,78.0L435.4,78.1L436.0,78.2L436.5,78.3L437.0,78.4L437.5,78.5L438.0,78.6L438.5,78.7L439.0,78.8L439.5,78.9L440.0,79.0L440.6,79.1L441.1,79.2L441.6,79.3L442.1,79.4L442.6,79.5L443.1,79.6L443.6,79.7L444.1,79.8L444.6,79.9L445.2,80.0L445.7,80.1L446.2,80.2L446.7,80.3L447.2,80.4L447.7,80.5L448.2,80.6L448.7,80.8L449.2,80.9L449.8,81.0L450.3,81.1L450.8,81.2L451.3,81.3L451.8,81.4L452.3,81.5L452.8,81.6L453.3,81.8L453.8,81.9L454.4,82.0L454.9,82.1L455.4,82.2L455.9,82.3L456.4,82.4L456.9,82.5L457.4,82.7L457.9,82.8L458.4,82.9L459.0,83.0L459.5,83.1L460.0,83.2L460.5,83.3L461.0,83.4L461.5,83.6L462.0,83.7L462.5,83.8L463.0,83.9L463.6,84.0L464.1,84.1L464.6,84.2L465.1,84.3L465.6,84.5L466.1,84.6L466.6,84.7L467.1,84.8L467.6,84.9L468.2,85.0L468.7,85.1L469.2,85.2L469.7,85.4L470.2,85.5L470.7,85.6L471.2,85.7L471.7,85.8L472.2,85.9L472.8,86.0L473.3,86.1L473.8,86.2L474.3,86.3L474.8,86.5L475.3,86.6L475.8,86.7L476.3,86.8L476.8,86.9L477.4,87.0L477.9,87.1L478.4,87.2L478.9,87.3L479.4,87.4L479.9,87.5L480.4,87.6L480.9,87.7L481.4,87.8L482.0,87.9L482.5,88.0L483.0,88.1L483.5,88.2L484.0,88.4L484.5,88.5L485.0,88.6L485.5,88.7L486.0,88.8L486.6,88.9L487.1,89.0L487.6,89.0L488.1,89.1L488.6,89.2L489.1,89.3L489.6,89.4L490.1,89.5L490.6,89.6L491.2,89.7L491.7,89.8L492.2,89.9L492.7,90.0L493.2,90.1L493.7,90.2L494.2,90.3L494.7,90.4L495.2,90.5L495.8,90.5L496.3,90.6L496.8,90.7L497.3,90.8L497.8,90.9L498.3,91.0L498.8,91.1L499.3,91.1L499.8,91.2L500.4,91.3L500.9,91.4L501.4,91.5L501.9,91.6L502.4,91.6L502.9,91.7L503.4,91.8L503.9,91.9L504.4,92.0L505.0,92.0L505.5,92.1L506.0,92.2L506.5,92.3L507.0,92.3L507.5,92.4L508.0,92.5L508.5,92.6L509.0,92.6L509.6,92.7L510.1,92.8L510.6,92.8L511.1,92.9L511.6,93.0L512.1,93.1L512.6,93.1L513.1,93.2L513.6,93.3L514.2,93.3L514.7,93.4L515.2,93.5L515.7,93.5L516.2,93.6L516.7,93.6L517.2,93.7L517.7,93.8L518.2,93.8L518.8,93.9L519.3,94.0L519.8,94.0L520.3,94.1L520.8,94.1L521.3,94.2L521.8,94.2L522.3,94.3L522.8,94.4L523.4,94.4L523.9,94.5L524.4,94.5L524.9,94.6L525.4,94.6L525.9,94.7L526.4,94.7L526.9,94.8L527.4,94.8L528.0,94.9L528.5,94.9L529.0,95.0L529.5,95.0L530.0,95.1L530.5,95.1L531.0,95.2L531.5,95.2L532.0,95.2L532.6,95.3L533.1,95.3L533.6,95.4L534.1,95.4L534.6,95.5L535.1,95.5L535.6,95.5L536.1,95.6L536.6,95.6L537.2,95.7L537.7,95.7L538.2,95.7L538.7,95.8L539.2,95.8L539.7,95.9L540.2,95.9L540.7,95.9L541.2,96.0L541.8,96.0L542.3,96.0L542.8,96.1L543.3,96.1L543.8,96.1L544.3,96.2L544.8,96.2L545.3,96.2L545.8,96.3L546.4,96.3L546.9,96.3L547.4,96.4L547.9,96.4L548.4,96.4L548.9,96.4L549.4,96.5L549.9,96.5L550.4,96.5L551.0,96.5L551.5,96.6L552.0,96.6L552.5,96.6L553.0,96.7L553.5,96.7L554.0,96.7L554.5,96.7L555.0,96.8L555.6,96.8L556.1,96.8L556.6,96.8L557.1,96.8L557.6,96.9L558.1,96.9L558.6,96.9L559.1,96.9L559.6,96.9L560.2,97.0L560.7,97.0L561.2,97.0L561.7,97.0L562.2,97.0L562.7,97.1L563.2,97.1L563.7,97.1L564.2,97.1L564.8,97.1L565.3,97.2L565.8,97.2L566.3,97.2L566.8,97.2L567.3,97.2L567.8,97.2L568.3,97.3L568.8,97.3L569.4,97.3L569.9,97.3L570.4,97.3L570.9,97.3L571.4,97.3L571.9,97.4L572.4,97.4L572.9,97.4L573.4,97.4L574.0,97.4L574.5,97.4L575.0,97.4L575.5,97.4L576.0,97.5L576.5,97.5L577.0,97.5L577.5,97.5L578.0,97.5L578.6,97.5L579.1,97.5L579.6,97.5L580.1,97.5L580.6,97.5L581.1,97.6L581.6,97.6L582.1,97.6L582.6,97.6L583.2,97.6L583.7,97.6L584.2,97.6L584.7,97.6L585.2,97.6L585.7,97.6L586.2,97.6L586.7,97.7L587.2,97.7L587.8,97.7L588.3,97.7L588.8,97.7L589.3,97.7L589.8,97.7L590.3,97.7L590.8,97.7L591.3,97.7L591.8,97.7L592.4,97.7L592.9,97.7L593.4,97.7L593.9,97.8L594.4,97.8L594.9,97.8L595.4,97.8L595.9,97.8L596.4,97.8L597.0,97.8L597.5,97.8L598.0,97.8L598.5,97.8L599.0,97.8L599.5,97.8L600.0,97.8L600.5,97.8L601.0,97.8L601.6,97.8L602.1,97.8L602.6,97.8L603.1,97.8L603.6,97.8L604.1,97.8L604.6,97.8L605.1,97.9L605.6,97.9L606.2,97.9L606.7,97.9L607.2,97.9L607.7,97.9L608.2,97.9L608.7,97.9L609.2,97.9L609.7,97.9L610.2,97.9L610.8,97.9L611.3,97.9L611.8,97.9L612.3,97.9L612.8,97.9L613.3,97.9L613.8,97.9L614.3,97.9L614.8,97.9L615.4,97.9L615.9,97.9L616.4,97.9L616.9,97.9L617.4,97.9L617.9,97.9L618.4,97.9L618.9,97.9L619.4,97.9L620.0,97.9L620.5,97.9L621.0,97.9L621.5,97.9L622.0,97.9L622.5,97.9L623.0,97.9L623.5,97.9L624.0,97.9L624.6,97.9L625.1,97.9L625.6,97.9L626.1,97.9L626.6,98.0L627.1,98.0L627.6,98.0L628.1,98.0L628.6,98.0L629.2,98.0L629.7,98.0L630.2,98.0L630.7,98.0L631.2,98.0L631.7,98.0L632.2,98.0L632.7,98.0L633.2,98.0L633.8,98.0L634.3,98.0L634.8,98.0L635.3,98.0L635.8,98.0L636.3,98.0L636.8,98.0L637.3,98.0L637.8,98.0L638.4,98.0L638.9,98.0L639.4,98.0L639.9,98.0L640.4,98.0L640.9,98.0L641.4,98.0L641.9,98.0L642.4,98.0L643.0,98.0L643.5,98.0L644.0,98.0L644.5,98.0L645.0,98.0"/>
  <text class="rowlabel" x="0" y="88">They're an adult human</text>
  <text class="value" x="395.3" y="64">≈ 170 ± 20 cm</text>

  <line class="baseline" x1="185" y1="166" x2="645" y2="166"/>
  <path class="fill s2" d="M185.0,166.0L185.5,166.0L186.0,166.0L186.5,166.0L187.0,166.0L187.6,166.0L188.1,166.0L188.6,166.0L189.1,166.0L189.6,166.0L190.1,166.0L190.6,166.0L191.1,166.0L191.6,166.0L192.2,166.0L192.7,166.0L193.2,166.0L193.7,166.0L194.2,166.0L194.7,166.0L195.2,166.0L195.7,166.0L196.2,166.0L196.8,166.0L197.3,166.0L197.8,166.0L198.3,166.0L198.8,166.0L199.3,166.0L199.8,166.0L200.3,166.0L200.8,166.0L201.4,166.0L201.9,166.0L202.4,166.0L202.9,166.0L203.4,166.0L203.9,166.0L204.4,166.0L204.9,166.0L205.4,166.0L206.0,166.0L206.5,166.0L207.0,166.0L207.5,166.0L208.0,166.0L208.5,166.0L209.0,166.0L209.5,166.0L210.0,166.0L210.6,166.0L211.1,166.0L211.6,166.0L212.1,166.0L212.6,166.0L213.1,166.0L213.6,166.0L214.1,166.0L214.6,166.0L215.2,166.0L215.7,166.0L216.2,166.0L216.7,166.0L217.2,166.0L217.7,166.0L218.2,166.0L218.7,166.0L219.2,166.0L219.8,166.0L220.3,166.0L220.8,166.0L221.3,166.0L221.8,166.0L222.3,166.0L222.8,166.0L223.3,166.0L223.8,166.0L224.4,166.0L224.9,166.0L225.4,166.0L225.9,166.0L226.4,166.0L226.9,166.0L227.4,166.0L227.9,166.0L228.4,166.0L229.0,166.0L229.5,166.0L230.0,166.0L230.5,166.0L231.0,166.0L231.5,166.0L232.0,166.0L232.5,166.0L233.0,166.0L233.6,166.0L234.1,166.0L234.6,166.0L235.1,166.0L235.6,166.0L236.1,166.0L236.6,166.0L237.1,166.0L237.6,166.0L238.2,166.0L238.7,166.0L239.2,166.0L239.7,166.0L240.2,166.0L240.7,166.0L241.2,166.0L241.7,166.0L242.2,166.0L242.8,166.0L243.3,166.0L243.8,166.0L244.3,166.0L244.8,166.0L245.3,166.0L245.8,166.0L246.3,166.0L246.8,166.0L247.4,166.0L247.9,166.0L248.4,166.0L248.9,166.0L249.4,166.0L249.9,166.0L250.4,166.0L250.9,166.0L251.4,166.0L252.0,166.0L252.5,166.0L253.0,166.0L253.5,166.0L254.0,166.0L254.5,166.0L255.0,166.0L255.5,166.0L256.0,166.0L256.6,166.0L257.1,166.0L257.6,166.0L258.1,166.0L258.6,166.0L259.1,166.0L259.6,166.0L260.1,166.0L260.6,166.0L261.2,166.0L261.7,166.0L262.2,166.0L262.7,166.0L263.2,166.0L263.7,166.0L264.2,166.0L264.7,166.0L265.2,166.0L265.8,166.0L266.3,166.0L266.8,166.0L267.3,166.0L267.8,166.0L268.3,166.0L268.8,166.0L269.3,166.0L269.8,166.0L270.4,166.0L270.9,166.0L271.4,166.0L271.9,166.0L272.4,166.0L272.9,166.0L273.4,166.0L273.9,166.0L274.4,166.0L275.0,166.0L275.5,166.0L276.0,166.0L276.5,166.0L277.0,166.0L277.5,166.0L278.0,166.0L278.5,166.0L279.0,166.0L279.6,166.0L280.1,166.0L280.6,166.0L281.1,166.0L281.6,166.0L282.1,166.0L282.6,166.0L283.1,166.0L283.6,166.0L284.2,166.0L284.7,166.0L285.2,166.0L285.7,166.0L286.2,166.0L286.7,166.0L287.2,166.0L287.7,166.0L288.2,166.0L288.8,166.0L289.3,166.0L289.8,166.0L290.3,166.0L290.8,166.0L291.3,166.0L291.8,166.0L292.3,166.0L292.8,166.0L293.4,166.0L293.9,166.0L294.4,166.0L294.9,166.0L295.4,166.0L295.9,166.0L296.4,166.0L296.9,166.0L297.4,166.0L298.0,166.0L298.5,166.0L299.0,166.0L299.5,166.0L300.0,166.0L300.5,166.0L301.0,166.0L301.5,166.0L302.0,166.0L302.6,166.0L303.1,166.0L303.6,166.0L304.1,166.0L304.6,166.0L305.1,166.0L305.6,166.0L306.1,166.0L306.6,166.0L307.2,166.0L307.7,166.0L308.2,166.0L308.7,166.0L309.2,166.0L309.7,166.0L310.2,166.0L310.7,166.0L311.2,166.0L311.8,166.0L312.3,166.0L312.8,166.0L313.3,166.0L313.8,166.0L314.3,166.0L314.8,166.0L315.3,166.0L315.8,166.0L316.4,166.0L316.9,166.0L317.4,166.0L317.9,166.0L318.4,166.0L318.9,166.0L319.4,166.0L319.9,166.0L320.4,166.0L321.0,166.0L321.5,166.0L322.0,166.0L322.5,166.0L323.0,166.0L323.5,166.0L324.0,166.0L324.5,166.0L325.0,166.0L325.6,166.0L326.1,166.0L326.6,166.0L327.1,166.0L327.6,166.0L328.1,166.0L328.6,166.0L329.1,166.0L329.6,166.0L330.2,166.0L330.7,166.0L331.2,166.0L331.7,166.0L332.2,166.0L332.7,166.0L333.2,166.0L333.7,166.0L334.2,166.0L334.8,166.0L335.3,166.0L335.8,166.0L336.3,166.0L336.8,166.0L337.3,166.0L337.8,166.0L338.3,166.0L338.8,166.0L339.4,166.0L339.9,166.0L340.4,166.0L340.9,166.0L341.4,166.0L341.9,166.0L342.4,166.0L342.9,166.0L343.4,166.0L344.0,166.0L344.5,166.0L345.0,166.0L345.5,166.0L346.0,166.0L346.5,166.0L347.0,166.0L347.5,166.0L348.0,166.0L348.6,166.0L349.1,166.0L349.6,166.0L350.1,166.0L350.6,166.0L351.1,166.0L351.6,166.0L352.1,166.0L352.6,166.0L353.2,166.0L353.7,166.0L354.2,166.0L354.7,166.0L355.2,166.0L355.7,166.0L356.2,166.0L356.7,166.0L357.2,166.0L357.8,166.0L358.3,166.0L358.8,166.0L359.3,166.0L359.8,166.0L360.3,166.0L360.8,166.0L361.3,166.0L361.8,166.0L362.4,166.0L362.9,166.0L363.4,166.0L363.9,166.0L364.4,166.0L364.9,166.0L365.4,166.0L365.9,165.9L366.4,165.9L367.0,165.9L367.5,165.9L368.0,165.9L368.5,165.9L369.0,165.9L369.5,165.9L370.0,165.9L370.5,165.9L371.0,165.9L371.6,165.9L372.1,165.9L372.6,165.9L373.1,165.9L373.6,165.9L374.1,165.8L374.6,165.8L375.1,165.8L375.6,165.8L376.2,165.8L376.7,165.8L377.2,165.8L377.7,165.8L378.2,165.7L378.7,165.7L379.2,165.7L379.7,165.7L380.2,165.7L380.8,165.7L381.3,165.6L381.8,165.6L382.3,165.6L382.8,165.6L383.3,165.5L383.8,165.5L384.3,165.5L384.8,165.5L385.4,165.4L385.9,165.4L386.4,165.4L386.9,165.3L387.4,165.3L387.9,165.2L388.4,165.2L388.9,165.2L389.4,165.1L390.0,165.1L390.5,165.0L391.0,165.0L391.5,164.9L392.0,164.9L392.5,164.8L393.0,164.7L393.5,164.7L394.0,164.6L394.6,164.5L395.1,164.5L395.6,164.4L396.1,164.3L396.6,164.2L397.1,164.1L397.6,164.0L398.1,163.9L398.6,163.8L399.2,163.7L399.7,163.6L400.2,163.5L400.7,163.4L401.2,163.3L401.7,163.2L402.2,163.0L402.7,162.9L403.2,162.8L403.8,162.6L404.3,162.5L404.8,162.3L405.3,162.2L405.8,162.0L406.3,161.9L406.8,161.7L407.3,161.5L407.8,161.3L408.4,161.2L408.9,161.0L409.4,160.8L409.9,160.6L410.4,160.4L410.9,160.1L411.4,159.9L411.9,159.7L412.4,159.5L413.0,159.2L413.5,159.0L414.0,158.7L414.5,158.5L415.0,158.2L415.5,157.9L416.0,157.7L416.5,157.4L417.0,157.1L417.6,156.8L418.1,156.5L418.6,156.2L419.1,155.9L419.6,155.6L420.1,155.3L420.6,154.9L421.1,154.6L421.6,154.3L422.2,153.9L422.7,153.6L423.2,153.2L423.7,152.9L424.2,152.5L424.7,152.1L425.2,151.7L425.7,151.4L426.2,151.0L426.8,150.6L427.3,150.2L427.8,149.8L428.3,149.4L428.8,149.0L429.3,148.6L429.8,148.2L430.3,147.8L430.8,147.4L431.4,146.9L431.9,146.5L432.4,146.1L432.9,145.7L433.4,145.3L433.9,144.8L434.4,144.4L434.9,144.0L435.4,143.6L436.0,143.1L436.5,142.7L437.0,142.3L437.5,141.9L438.0,141.5L438.5,141.0L439.0,140.6L439.5,140.2L440.0,139.8L440.6,139.4L441.1,139.0L441.6,138.6L442.1,138.2L442.6,137.8L443.1,137.4L443.6,137.1L444.1,136.7L444.6,136.3L445.2,136.0L445.7,135.6L446.2,135.3L446.7,135.0L447.2,134.6L447.7,134.3L448.2,134.0L448.7,133.7L449.2,133.4L449.8,133.1L450.3,132.9L450.8,132.6L451.3,132.4L451.8,132.1L452.3,131.9L452.8,131.7L453.3,131.5L453.8,131.3L454.4,131.1L454.9,131.0L455.4,130.8L455.9,130.7L456.4,130.5L456.9,130.4L457.4,130.3L457.9,130.2L458.4,130.2L459.0,130.1L459.5,130.1L460.0,130.0L460.5,130.0L461.0,130.0L461.5,130.0L462.0,130.0L462.5,130.1L463.0,130.1L463.6,130.2L464.1,130.2L464.6,130.3L465.1,130.4L465.6,130.5L466.1,130.7L466.6,130.8L467.1,131.0L467.6,131.1L468.2,131.3L468.7,131.5L469.2,131.7L469.7,131.9L470.2,132.1L470.7,132.4L471.2,132.6L471.7,132.9L472.2,133.1L472.8,133.4L473.3,133.7L473.8,134.0L474.3,134.3L474.8,134.6L475.3,135.0L475.8,135.3L476.3,135.6L476.8,136.0L477.4,136.3L477.9,136.7L478.4,137.1L478.9,137.4L479.4,137.8L479.9,138.2L480.4,138.6L480.9,139.0L481.4,139.4L482.0,139.8L482.5,140.2L483.0,140.6L483.5,141.0L484.0,141.5L484.5,141.9L485.0,142.3L485.5,142.7L486.0,143.1L486.6,143.6L487.1,144.0L487.6,144.4L488.1,144.8L488.6,145.3L489.1,145.7L489.6,146.1L490.1,146.5L490.6,146.9L491.2,147.4L491.7,147.8L492.2,148.2L492.7,148.6L493.2,149.0L493.7,149.4L494.2,149.8L494.7,150.2L495.2,150.6L495.8,151.0L496.3,151.4L496.8,151.7L497.3,152.1L497.8,152.5L498.3,152.9L498.8,153.2L499.3,153.6L499.8,153.9L500.4,154.3L500.9,154.6L501.4,154.9L501.9,155.3L502.4,155.6L502.9,155.9L503.4,156.2L503.9,156.5L504.4,156.8L505.0,157.1L505.5,157.4L506.0,157.7L506.5,157.9L507.0,158.2L507.5,158.5L508.0,158.7L508.5,159.0L509.0,159.2L509.6,159.5L510.1,159.7L510.6,159.9L511.1,160.1L511.6,160.4L512.1,160.6L512.6,160.8L513.1,161.0L513.6,161.2L514.2,161.3L514.7,161.5L515.2,161.7L515.7,161.9L516.2,162.0L516.7,162.2L517.2,162.3L517.7,162.5L518.2,162.6L518.8,162.8L519.3,162.9L519.8,163.0L520.3,163.2L520.8,163.3L521.3,163.4L521.8,163.5L522.3,163.6L522.8,163.7L523.4,163.8L523.9,163.9L524.4,164.0L524.9,164.1L525.4,164.2L525.9,164.3L526.4,164.4L526.9,164.5L527.4,164.5L528.0,164.6L528.5,164.7L529.0,164.7L529.5,164.8L530.0,164.9L530.5,164.9L531.0,165.0L531.5,165.0L532.0,165.1L532.6,165.1L533.1,165.2L533.6,165.2L534.1,165.2L534.6,165.3L535.1,165.3L535.6,165.4L536.1,165.4L536.6,165.4L537.2,165.5L537.7,165.5L538.2,165.5L538.7,165.5L539.2,165.6L539.7,165.6L540.2,165.6L540.7,165.6L541.2,165.7L541.8,165.7L542.3,165.7L542.8,165.7L543.3,165.7L543.8,165.7L544.3,165.8L544.8,165.8L545.3,165.8L545.8,165.8L546.4,165.8L546.9,165.8L547.4,165.8L547.9,165.8L548.4,165.9L548.9,165.9L549.4,165.9L549.9,165.9L550.4,165.9L551.0,165.9L551.5,165.9L552.0,165.9L552.5,165.9L553.0,165.9L553.5,165.9L554.0,165.9L554.5,165.9L555.0,165.9L555.6,165.9L556.1,165.9L556.6,166.0L557.1,166.0L557.6,166.0L558.1,166.0L558.6,166.0L559.1,166.0L559.6,166.0L560.2,166.0L560.7,166.0L561.2,166.0L561.7,166.0L562.2,166.0L562.7,166.0L563.2,166.0L563.7,166.0L564.2,166.0L564.8,166.0L565.3,166.0L565.8,166.0L566.3,166.0L566.8,166.0L567.3,166.0L567.8,166.0L568.3,166.0L568.8,166.0L569.4,166.0L569.9,166.0L570.4,166.0L570.9,166.0L571.4,166.0L571.9,166.0L572.4,166.0L572.9,166.0L573.4,166.0L574.0,166.0L574.5,166.0L575.0,166.0L575.5,166.0L576.0,166.0L576.5,166.0L577.0,166.0L577.5,166.0L578.0,166.0L578.6,166.0L579.1,166.0L579.6,166.0L580.1,166.0L580.6,166.0L581.1,166.0L581.6,166.0L582.1,166.0L582.6,166.0L583.2,166.0L583.7,166.0L584.2,166.0L584.7,166.0L585.2,166.0L585.7,166.0L586.2,166.0L586.7,166.0L587.2,166.0L587.8,166.0L588.3,166.0L588.8,166.0L589.3,166.0L589.8,166.0L590.3,166.0L590.8,166.0L591.3,166.0L591.8,166.0L592.4,166.0L592.9,166.0L593.4,166.0L593.9,166.0L594.4,166.0L594.9,166.0L595.4,166.0L595.9,166.0L596.4,166.0L597.0,166.0L597.5,166.0L598.0,166.0L598.5,166.0L599.0,166.0L599.5,166.0L600.0,166.0L600.5,166.0L601.0,166.0L601.6,166.0L602.1,166.0L602.6,166.0L603.1,166.0L603.6,166.0L604.1,166.0L604.6,166.0L605.1,166.0L605.6,166.0L606.2,166.0L606.7,166.0L607.2,166.0L607.7,166.0L608.2,166.0L608.7,166.0L609.2,166.0L609.7,166.0L610.2,166.0L610.8,166.0L611.3,166.0L611.8,166.0L612.3,166.0L612.8,166.0L613.3,166.0L613.8,166.0L614.3,166.0L614.8,166.0L615.4,166.0L615.9,166.0L616.4,166.0L616.9,166.0L617.4,166.0L617.9,166.0L618.4,166.0L618.9,166.0L619.4,166.0L620.0,166.0L620.5,166.0L621.0,166.0L621.5,166.0L622.0,166.0L622.5,166.0L623.0,166.0L623.5,166.0L624.0,166.0L624.6,166.0L625.1,166.0L625.6,166.0L626.1,166.0L626.6,166.0L627.1,166.0L627.6,166.0L628.1,166.0L628.6,166.0L629.2,166.0L629.7,166.0L630.2,166.0L630.7,166.0L631.2,166.0L631.7,166.0L632.2,166.0L632.7,166.0L633.2,166.0L633.8,166.0L634.3,166.0L634.8,166.0L635.3,166.0L635.8,166.0L636.3,166.0L636.8,166.0L637.3,166.0L637.8,166.0L638.4,166.0L638.9,166.0L639.4,166.0L639.9,166.0L640.4,166.0L640.9,166.0L641.4,166.0L641.9,166.0L642.4,166.0L643.0,166.0L643.5,166.0L644.0,166.0L644.5,166.0L645.0,166.0L645,166L185,166Z"/>
  <path class="line s2" d="M185.0,166.0L185.5,166.0L186.0,166.0L186.5,166.0L187.0,166.0L187.6,166.0L188.1,166.0L188.6,166.0L189.1,166.0L189.6,166.0L190.1,166.0L190.6,166.0L191.1,166.0L191.6,166.0L192.2,166.0L192.7,166.0L193.2,166.0L193.7,166.0L194.2,166.0L194.7,166.0L195.2,166.0L195.7,166.0L196.2,166.0L196.8,166.0L197.3,166.0L197.8,166.0L198.3,166.0L198.8,166.0L199.3,166.0L199.8,166.0L200.3,166.0L200.8,166.0L201.4,166.0L201.9,166.0L202.4,166.0L202.9,166.0L203.4,166.0L203.9,166.0L204.4,166.0L204.9,166.0L205.4,166.0L206.0,166.0L206.5,166.0L207.0,166.0L207.5,166.0L208.0,166.0L208.5,166.0L209.0,166.0L209.5,166.0L210.0,166.0L210.6,166.0L211.1,166.0L211.6,166.0L212.1,166.0L212.6,166.0L213.1,166.0L213.6,166.0L214.1,166.0L214.6,166.0L215.2,166.0L215.7,166.0L216.2,166.0L216.7,166.0L217.2,166.0L217.7,166.0L218.2,166.0L218.7,166.0L219.2,166.0L219.8,166.0L220.3,166.0L220.8,166.0L221.3,166.0L221.8,166.0L222.3,166.0L222.8,166.0L223.3,166.0L223.8,166.0L224.4,166.0L224.9,166.0L225.4,166.0L225.9,166.0L226.4,166.0L226.9,166.0L227.4,166.0L227.9,166.0L228.4,166.0L229.0,166.0L229.5,166.0L230.0,166.0L230.5,166.0L231.0,166.0L231.5,166.0L232.0,166.0L232.5,166.0L233.0,166.0L233.6,166.0L234.1,166.0L234.6,166.0L235.1,166.0L235.6,166.0L236.1,166.0L236.6,166.0L237.1,166.0L237.6,166.0L238.2,166.0L238.7,166.0L239.2,166.0L239.7,166.0L240.2,166.0L240.7,166.0L241.2,166.0L241.7,166.0L242.2,166.0L242.8,166.0L243.3,166.0L243.8,166.0L244.3,166.0L244.8,166.0L245.3,166.0L245.8,166.0L246.3,166.0L246.8,166.0L247.4,166.0L247.9,166.0L248.4,166.0L248.9,166.0L249.4,166.0L249.9,166.0L250.4,166.0L250.9,166.0L251.4,166.0L252.0,166.0L252.5,166.0L253.0,166.0L253.5,166.0L254.0,166.0L254.5,166.0L255.0,166.0L255.5,166.0L256.0,166.0L256.6,166.0L257.1,166.0L257.6,166.0L258.1,166.0L258.6,166.0L259.1,166.0L259.6,166.0L260.1,166.0L260.6,166.0L261.2,166.0L261.7,166.0L262.2,166.0L262.7,166.0L263.2,166.0L263.7,166.0L264.2,166.0L264.7,166.0L265.2,166.0L265.8,166.0L266.3,166.0L266.8,166.0L267.3,166.0L267.8,166.0L268.3,166.0L268.8,166.0L269.3,166.0L269.8,166.0L270.4,166.0L270.9,166.0L271.4,166.0L271.9,166.0L272.4,166.0L272.9,166.0L273.4,166.0L273.9,166.0L274.4,166.0L275.0,166.0L275.5,166.0L276.0,166.0L276.5,166.0L277.0,166.0L277.5,166.0L278.0,166.0L278.5,166.0L279.0,166.0L279.6,166.0L280.1,166.0L280.6,166.0L281.1,166.0L281.6,166.0L282.1,166.0L282.6,166.0L283.1,166.0L283.6,166.0L284.2,166.0L284.7,166.0L285.2,166.0L285.7,166.0L286.2,166.0L286.7,166.0L287.2,166.0L287.7,166.0L288.2,166.0L288.8,166.0L289.3,166.0L289.8,166.0L290.3,166.0L290.8,166.0L291.3,166.0L291.8,166.0L292.3,166.0L292.8,166.0L293.4,166.0L293.9,166.0L294.4,166.0L294.9,166.0L295.4,166.0L295.9,166.0L296.4,166.0L296.9,166.0L297.4,166.0L298.0,166.0L298.5,166.0L299.0,166.0L299.5,166.0L300.0,166.0L300.5,166.0L301.0,166.0L301.5,166.0L302.0,166.0L302.6,166.0L303.1,166.0L303.6,166.0L304.1,166.0L304.6,166.0L305.1,166.0L305.6,166.0L306.1,166.0L306.6,166.0L307.2,166.0L307.7,166.0L308.2,166.0L308.7,166.0L309.2,166.0L309.7,166.0L310.2,166.0L310.7,166.0L311.2,166.0L311.8,166.0L312.3,166.0L312.8,166.0L313.3,166.0L313.8,166.0L314.3,166.0L314.8,166.0L315.3,166.0L315.8,166.0L316.4,166.0L316.9,166.0L317.4,166.0L317.9,166.0L318.4,166.0L318.9,166.0L319.4,166.0L319.9,166.0L320.4,166.0L321.0,166.0L321.5,166.0L322.0,166.0L322.5,166.0L323.0,166.0L323.5,166.0L324.0,166.0L324.5,166.0L325.0,166.0L325.6,166.0L326.1,166.0L326.6,166.0L327.1,166.0L327.6,166.0L328.1,166.0L328.6,166.0L329.1,166.0L329.6,166.0L330.2,166.0L330.7,166.0L331.2,166.0L331.7,166.0L332.2,166.0L332.7,166.0L333.2,166.0L333.7,166.0L334.2,166.0L334.8,166.0L335.3,166.0L335.8,166.0L336.3,166.0L336.8,166.0L337.3,166.0L337.8,166.0L338.3,166.0L338.8,166.0L339.4,166.0L339.9,166.0L340.4,166.0L340.9,166.0L341.4,166.0L341.9,166.0L342.4,166.0L342.9,166.0L343.4,166.0L344.0,166.0L344.5,166.0L345.0,166.0L345.5,166.0L346.0,166.0L346.5,166.0L347.0,166.0L347.5,166.0L348.0,166.0L348.6,166.0L349.1,166.0L349.6,166.0L350.1,166.0L350.6,166.0L351.1,166.0L351.6,166.0L352.1,166.0L352.6,166.0L353.2,166.0L353.7,166.0L354.2,166.0L354.7,166.0L355.2,166.0L355.7,166.0L356.2,166.0L356.7,166.0L357.2,166.0L357.8,166.0L358.3,166.0L358.8,166.0L359.3,166.0L359.8,166.0L360.3,166.0L360.8,166.0L361.3,166.0L361.8,166.0L362.4,166.0L362.9,166.0L363.4,166.0L363.9,166.0L364.4,166.0L364.9,166.0L365.4,166.0L365.9,165.9L366.4,165.9L367.0,165.9L367.5,165.9L368.0,165.9L368.5,165.9L369.0,165.9L369.5,165.9L370.0,165.9L370.5,165.9L371.0,165.9L371.6,165.9L372.1,165.9L372.6,165.9L373.1,165.9L373.6,165.9L374.1,165.8L374.6,165.8L375.1,165.8L375.6,165.8L376.2,165.8L376.7,165.8L377.2,165.8L377.7,165.8L378.2,165.7L378.7,165.7L379.2,165.7L379.7,165.7L380.2,165.7L380.8,165.7L381.3,165.6L381.8,165.6L382.3,165.6L382.8,165.6L383.3,165.5L383.8,165.5L384.3,165.5L384.8,165.5L385.4,165.4L385.9,165.4L386.4,165.4L386.9,165.3L387.4,165.3L387.9,165.2L388.4,165.2L388.9,165.2L389.4,165.1L390.0,165.1L390.5,165.0L391.0,165.0L391.5,164.9L392.0,164.9L392.5,164.8L393.0,164.7L393.5,164.7L394.0,164.6L394.6,164.5L395.1,164.5L395.6,164.4L396.1,164.3L396.6,164.2L397.1,164.1L397.6,164.0L398.1,163.9L398.6,163.8L399.2,163.7L399.7,163.6L400.2,163.5L400.7,163.4L401.2,163.3L401.7,163.2L402.2,163.0L402.7,162.9L403.2,162.8L403.8,162.6L404.3,162.5L404.8,162.3L405.3,162.2L405.8,162.0L406.3,161.9L406.8,161.7L407.3,161.5L407.8,161.3L408.4,161.2L408.9,161.0L409.4,160.8L409.9,160.6L410.4,160.4L410.9,160.1L411.4,159.9L411.9,159.7L412.4,159.5L413.0,159.2L413.5,159.0L414.0,158.7L414.5,158.5L415.0,158.2L415.5,157.9L416.0,157.7L416.5,157.4L417.0,157.1L417.6,156.8L418.1,156.5L418.6,156.2L419.1,155.9L419.6,155.6L420.1,155.3L420.6,154.9L421.1,154.6L421.6,154.3L422.2,153.9L422.7,153.6L423.2,153.2L423.7,152.9L424.2,152.5L424.7,152.1L425.2,151.7L425.7,151.4L426.2,151.0L426.8,150.6L427.3,150.2L427.8,149.8L428.3,149.4L428.8,149.0L429.3,148.6L429.8,148.2L430.3,147.8L430.8,147.4L431.4,146.9L431.9,146.5L432.4,146.1L432.9,145.7L433.4,145.3L433.9,144.8L434.4,144.4L434.9,144.0L435.4,143.6L436.0,143.1L436.5,142.7L437.0,142.3L437.5,141.9L438.0,141.5L438.5,141.0L439.0,140.6L439.5,140.2L440.0,139.8L440.6,139.4L441.1,139.0L441.6,138.6L442.1,138.2L442.6,137.8L443.1,137.4L443.6,137.1L444.1,136.7L444.6,136.3L445.2,136.0L445.7,135.6L446.2,135.3L446.7,135.0L447.2,134.6L447.7,134.3L448.2,134.0L448.7,133.7L449.2,133.4L449.8,133.1L450.3,132.9L450.8,132.6L451.3,132.4L451.8,132.1L452.3,131.9L452.8,131.7L453.3,131.5L453.8,131.3L454.4,131.1L454.9,131.0L455.4,130.8L455.9,130.7L456.4,130.5L456.9,130.4L457.4,130.3L457.9,130.2L458.4,130.2L459.0,130.1L459.5,130.1L460.0,130.0L460.5,130.0L461.0,130.0L461.5,130.0L462.0,130.0L462.5,130.1L463.0,130.1L463.6,130.2L464.1,130.2L464.6,130.3L465.1,130.4L465.6,130.5L466.1,130.7L466.6,130.8L467.1,131.0L467.6,131.1L468.2,131.3L468.7,131.5L469.2,131.7L469.7,131.9L470.2,132.1L470.7,132.4L471.2,132.6L471.7,132.9L472.2,133.1L472.8,133.4L473.3,133.7L473.8,134.0L474.3,134.3L474.8,134.6L475.3,135.0L475.8,135.3L476.3,135.6L476.8,136.0L477.4,136.3L477.9,136.7L478.4,137.1L478.9,137.4L479.4,137.8L479.9,138.2L480.4,138.6L480.9,139.0L481.4,139.4L482.0,139.8L482.5,140.2L483.0,140.6L483.5,141.0L484.0,141.5L484.5,141.9L485.0,142.3L485.5,142.7L486.0,143.1L486.6,143.6L487.1,144.0L487.6,144.4L488.1,144.8L488.6,145.3L489.1,145.7L489.6,146.1L490.1,146.5L490.6,146.9L491.2,147.4L491.7,147.8L492.2,148.2L492.7,148.6L493.2,149.0L493.7,149.4L494.2,149.8L494.7,150.2L495.2,150.6L495.8,151.0L496.3,151.4L496.8,151.7L497.3,152.1L497.8,152.5L498.3,152.9L498.8,153.2L499.3,153.6L499.8,153.9L500.4,154.3L500.9,154.6L501.4,154.9L501.9,155.3L502.4,155.6L502.9,155.9L503.4,156.2L503.9,156.5L504.4,156.8L505.0,157.1L505.5,157.4L506.0,157.7L506.5,157.9L507.0,158.2L507.5,158.5L508.0,158.7L508.5,159.0L509.0,159.2L509.6,159.5L510.1,159.7L510.6,159.9L511.1,160.1L511.6,160.4L512.1,160.6L512.6,160.8L513.1,161.0L513.6,161.2L514.2,161.3L514.7,161.5L515.2,161.7L515.7,161.9L516.2,162.0L516.7,162.2L517.2,162.3L517.7,162.5L518.2,162.6L518.8,162.8L519.3,162.9L519.8,163.0L520.3,163.2L520.8,163.3L521.3,163.4L521.8,163.5L522.3,163.6L522.8,163.7L523.4,163.8L523.9,163.9L524.4,164.0L524.9,164.1L525.4,164.2L525.9,164.3L526.4,164.4L526.9,164.5L527.4,164.5L528.0,164.6L528.5,164.7L529.0,164.7L529.5,164.8L530.0,164.9L530.5,164.9L531.0,165.0L531.5,165.0L532.0,165.1L532.6,165.1L533.1,165.2L533.6,165.2L534.1,165.2L534.6,165.3L535.1,165.3L535.6,165.4L536.1,165.4L536.6,165.4L537.2,165.5L537.7,165.5L538.2,165.5L538.7,165.5L539.2,165.6L539.7,165.6L540.2,165.6L540.7,165.6L541.2,165.7L541.8,165.7L542.3,165.7L542.8,165.7L543.3,165.7L543.8,165.7L544.3,165.8L544.8,165.8L545.3,165.8L545.8,165.8L546.4,165.8L546.9,165.8L547.4,165.8L547.9,165.8L548.4,165.9L548.9,165.9L549.4,165.9L549.9,165.9L550.4,165.9L551.0,165.9L551.5,165.9L552.0,165.9L552.5,165.9L553.0,165.9L553.5,165.9L554.0,165.9L554.5,165.9L555.0,165.9L555.6,165.9L556.1,165.9L556.6,166.0L557.1,166.0L557.6,166.0L558.1,166.0L558.6,166.0L559.1,166.0L559.6,166.0L560.2,166.0L560.7,166.0L561.2,166.0L561.7,166.0L562.2,166.0L562.7,166.0L563.2,166.0L563.7,166.0L564.2,166.0L564.8,166.0L565.3,166.0L565.8,166.0L566.3,166.0L566.8,166.0L567.3,166.0L567.8,166.0L568.3,166.0L568.8,166.0L569.4,166.0L569.9,166.0L570.4,166.0L570.9,166.0L571.4,166.0L571.9,166.0L572.4,166.0L572.9,166.0L573.4,166.0L574.0,166.0L574.5,166.0L575.0,166.0L575.5,166.0L576.0,166.0L576.5,166.0L577.0,166.0L577.5,166.0L578.0,166.0L578.6,166.0L579.1,166.0L579.6,166.0L580.1,166.0L580.6,166.0L581.1,166.0L581.6,166.0L582.1,166.0L582.6,166.0L583.2,166.0L583.7,166.0L584.2,166.0L584.7,166.0L585.2,166.0L585.7,166.0L586.2,166.0L586.7,166.0L587.2,166.0L587.8,166.0L588.3,166.0L588.8,166.0L589.3,166.0L589.8,166.0L590.3,166.0L590.8,166.0L591.3,166.0L591.8,166.0L592.4,166.0L592.9,166.0L593.4,166.0L593.9,166.0L594.4,166.0L594.9,166.0L595.4,166.0L595.9,166.0L596.4,166.0L597.0,166.0L597.5,166.0L598.0,166.0L598.5,166.0L599.0,166.0L599.5,166.0L600.0,166.0L600.5,166.0L601.0,166.0L601.6,166.0L602.1,166.0L602.6,166.0L603.1,166.0L603.6,166.0L604.1,166.0L604.6,166.0L605.1,166.0L605.6,166.0L606.2,166.0L606.7,166.0L607.2,166.0L607.7,166.0L608.2,166.0L608.7,166.0L609.2,166.0L609.7,166.0L610.2,166.0L610.8,166.0L611.3,166.0L611.8,166.0L612.3,166.0L612.8,166.0L613.3,166.0L613.8,166.0L614.3,166.0L614.8,166.0L615.4,166.0L615.9,166.0L616.4,166.0L616.9,166.0L617.4,166.0L617.9,166.0L618.4,166.0L618.9,166.0L619.4,166.0L620.0,166.0L620.5,166.0L621.0,166.0L621.5,166.0L622.0,166.0L622.5,166.0L623.0,166.0L623.5,166.0L624.0,166.0L624.6,166.0L625.1,166.0L625.6,166.0L626.1,166.0L626.6,166.0L627.1,166.0L627.6,166.0L628.1,166.0L628.6,166.0L629.2,166.0L629.7,166.0L630.2,166.0L630.7,166.0L631.2,166.0L631.7,166.0L632.2,166.0L632.7,166.0L633.2,166.0L633.8,166.0L634.3,166.0L634.8,166.0L635.3,166.0L635.8,166.0L636.3,166.0L636.8,166.0L637.3,166.0L637.8,166.0L638.4,166.0L638.9,166.0L639.4,166.0L639.9,166.0L640.4,166.0L640.9,166.0L641.4,166.0L641.9,166.0L642.4,166.0L643.0,166.0L643.5,166.0L644.0,166.0L644.5,166.0L645.0,166.0"/>
  <text class="rowlabel" x="0" y="156">Looking at them</text>
  <text class="value" x="461.0" y="120">180 ± 8 cm</text>

  
  <path class="fill s3" d="M185.0,234.0L185.5,234.0L186.0,234.0L186.5,234.0L187.0,234.0L187.6,234.0L188.1,234.0L188.6,234.0L189.1,234.0L189.6,234.0L190.1,234.0L190.6,234.0L191.1,234.0L191.6,234.0L192.2,234.0L192.7,234.0L193.2,234.0L193.7,234.0L194.2,234.0L194.7,234.0L195.2,234.0L195.7,234.0L196.2,234.0L196.8,234.0L197.3,234.0L197.8,234.0L198.3,234.0L198.8,234.0L199.3,234.0L199.8,234.0L200.3,234.0L200.8,234.0L201.4,234.0L201.9,234.0L202.4,234.0L202.9,234.0L203.4,234.0L203.9,234.0L204.4,234.0L204.9,234.0L205.4,234.0L206.0,234.0L206.5,234.0L207.0,234.0L207.5,234.0L208.0,234.0L208.5,234.0L209.0,234.0L209.5,234.0L210.0,234.0L210.6,234.0L211.1,234.0L211.6,234.0L212.1,234.0L212.6,234.0L213.1,234.0L213.6,234.0L214.1,234.0L214.6,234.0L215.2,234.0L215.7,234.0L216.2,234.0L216.7,234.0L217.2,234.0L217.7,234.0L218.2,234.0L218.7,234.0L219.2,234.0L219.8,234.0L220.3,234.0L220.8,234.0L221.3,234.0L221.8,234.0L222.3,234.0L222.8,234.0L223.3,234.0L223.8,234.0L224.4,234.0L224.9,234.0L225.4,234.0L225.9,234.0L226.4,234.0L226.9,234.0L227.4,234.0L227.9,234.0L228.4,234.0L229.0,234.0L229.5,234.0L230.0,234.0L230.5,234.0L231.0,234.0L231.5,234.0L232.0,234.0L232.5,234.0L233.0,234.0L233.6,234.0L234.1,234.0L234.6,234.0L235.1,234.0L235.6,234.0L236.1,234.0L236.6,234.0L237.1,234.0L237.6,234.0L238.2,234.0L238.7,234.0L239.2,234.0L239.7,234.0L240.2,234.0L240.7,234.0L241.2,234.0L241.7,234.0L242.2,234.0L242.8,234.0L243.3,234.0L243.8,234.0L244.3,234.0L244.8,234.0L245.3,234.0L245.8,234.0L246.3,234.0L246.8,234.0L247.4,234.0L247.9,234.0L248.4,234.0L248.9,234.0L249.4,234.0L249.9,234.0L250.4,234.0L250.9,234.0L251.4,234.0L252.0,234.0L252.5,234.0L253.0,234.0L253.5,234.0L254.0,234.0L254.5,234.0L255.0,234.0L255.5,234.0L256.0,234.0L256.6,234.0L257.1,234.0L257.6,234.0L258.1,234.0L258.6,234.0L259.1,234.0L259.6,234.0L260.1,234.0L260.6,234.0L261.2,234.0L261.7,234.0L262.2,234.0L262.7,234.0L263.2,234.0L263.7,234.0L264.2,234.0L264.7,234.0L265.2,234.0L265.8,234.0L266.3,234.0L266.8,234.0L267.3,234.0L267.8,234.0L268.3,234.0L268.8,234.0L269.3,234.0L269.8,234.0L270.4,234.0L270.9,234.0L271.4,234.0L271.9,234.0L272.4,234.0L272.9,234.0L273.4,234.0L273.9,234.0L274.4,234.0L275.0,234.0L275.5,234.0L276.0,234.0L276.5,234.0L277.0,234.0L277.5,234.0L278.0,234.0L278.5,234.0L279.0,234.0L279.6,234.0L280.1,234.0L280.6,234.0L281.1,234.0L281.6,234.0L282.1,234.0L282.6,234.0L283.1,234.0L283.6,234.0L284.2,234.0L284.7,234.0L285.2,234.0L285.7,234.0L286.2,234.0L286.7,234.0L287.2,234.0L287.7,234.0L288.2,234.0L288.8,234.0L289.3,234.0L289.8,234.0L290.3,234.0L290.8,234.0L291.3,234.0L291.8,234.0L292.3,234.0L292.8,234.0L293.4,234.0L293.9,234.0L294.4,234.0L294.9,234.0L295.4,234.0L295.9,234.0L296.4,234.0L296.9,234.0L297.4,234.0L298.0,234.0L298.5,234.0L299.0,234.0L299.5,234.0L300.0,234.0L300.5,234.0L301.0,234.0L301.5,234.0L302.0,234.0L302.6,234.0L303.1,234.0L303.6,234.0L304.1,234.0L304.6,234.0L305.1,234.0L305.6,234.0L306.1,234.0L306.6,234.0L307.2,234.0L307.7,234.0L308.2,234.0L308.7,234.0L309.2,234.0L309.7,234.0L310.2,234.0L310.7,234.0L311.2,234.0L311.8,234.0L312.3,234.0L312.8,234.0L313.3,234.0L313.8,234.0L314.3,234.0L314.8,234.0L315.3,234.0L315.8,234.0L316.4,234.0L316.9,234.0L317.4,234.0L317.9,234.0L318.4,234.0L318.9,234.0L319.4,234.0L319.9,234.0L320.4,234.0L321.0,234.0L321.5,234.0L322.0,234.0L322.5,234.0L323.0,234.0L323.5,234.0L324.0,234.0L324.5,234.0L325.0,234.0L325.6,234.0L326.1,234.0L326.6,234.0L327.1,234.0L327.6,234.0L328.1,234.0L328.6,234.0L329.1,234.0L329.6,234.0L330.2,234.0L330.7,234.0L331.2,234.0L331.7,234.0L332.2,234.0L332.7,234.0L333.2,234.0L333.7,234.0L334.2,234.0L334.8,234.0L335.3,234.0L335.8,234.0L336.3,234.0L336.8,234.0L337.3,234.0L337.8,234.0L338.3,234.0L338.8,234.0L339.4,234.0L339.9,234.0L340.4,234.0L340.9,234.0L341.4,234.0L341.9,234.0L342.4,234.0L342.9,234.0L343.4,234.0L344.0,234.0L344.5,234.0L345.0,234.0L345.5,234.0L346.0,234.0L346.5,234.0L347.0,234.0L347.5,234.0L348.0,234.0L348.6,234.0L349.1,234.0L349.6,234.0L350.1,234.0L350.6,234.0L351.1,234.0L351.6,234.0L352.1,234.0L352.6,234.0L353.2,234.0L353.7,234.0L354.2,234.0L354.7,234.0L355.2,234.0L355.7,234.0L356.2,234.0L356.7,234.0L357.2,234.0L357.8,234.0L358.3,234.0L358.8,234.0L359.3,234.0L359.8,234.0L360.3,234.0L360.8,234.0L361.3,234.0L361.8,234.0L362.4,234.0L362.9,234.0L363.4,234.0L363.9,234.0L364.4,234.0L364.9,234.0L365.4,234.0L365.9,234.0L366.4,234.0L367.0,234.0L367.5,234.0L368.0,234.0L368.5,234.0L369.0,234.0L369.5,234.0L370.0,234.0L370.5,234.0L371.0,234.0L371.6,234.0L372.1,234.0L372.6,234.0L373.1,234.0L373.6,234.0L374.1,234.0L374.6,234.0L375.1,234.0L375.6,234.0L376.2,234.0L376.7,234.0L377.2,234.0L377.7,234.0L378.2,234.0L378.7,234.0L379.2,234.0L379.7,234.0L380.2,234.0L380.8,234.0L381.3,234.0L381.8,234.0L382.3,234.0L382.8,234.0L383.3,234.0L383.8,234.0L384.3,234.0L384.8,234.0L385.4,234.0L385.9,234.0L386.4,234.0L386.9,234.0L387.4,234.0L387.9,234.0L388.4,234.0L388.9,234.0L389.4,234.0L390.0,234.0L390.5,234.0L391.0,234.0L391.5,234.0L392.0,234.0L392.5,234.0L393.0,234.0L393.5,234.0L394.0,234.0L394.6,234.0L395.1,234.0L395.6,234.0L396.1,234.0L396.6,234.0L397.1,234.0L397.6,234.0L398.1,234.0L398.6,234.0L399.2,234.0L399.7,234.0L400.2,234.0L400.7,234.0L401.2,234.0L401.7,234.0L402.2,234.0L402.7,234.0L403.2,234.0L403.8,234.0L404.3,234.0L404.8,234.0L405.3,234.0L405.8,234.0L406.3,234.0L406.8,234.0L407.3,234.0L407.8,234.0L408.4,234.0L408.9,234.0L409.4,234.0L409.9,234.0L410.4,234.0L410.9,234.0L411.4,234.0L411.9,234.0L412.4,234.0L413.0,234.0L413.5,234.0L414.0,234.0L414.5,234.0L415.0,234.0L415.5,234.0L416.0,234.0L416.5,234.0L417.0,234.0L417.6,234.0L418.1,234.0L418.6,234.0L419.1,234.0L419.6,234.0L420.1,234.0L420.6,234.0L421.1,234.0L421.6,234.0L422.2,234.0L422.7,234.0L423.2,234.0L423.7,234.0L424.2,234.0L424.7,234.0L425.2,234.0L425.7,234.0L426.2,234.0L426.8,234.0L427.3,234.0L427.8,234.0L428.3,234.0L428.8,234.0L429.3,234.0L429.8,234.0L430.3,234.0L430.8,234.0L431.4,234.0L431.9,234.0L432.4,234.0L432.9,234.0L433.4,234.0L433.9,234.0L434.4,234.0L434.9,234.0L435.4,234.0L436.0,234.0L436.5,234.0L437.0,234.0L437.5,234.0L438.0,234.0L438.5,234.0L439.0,234.0L439.5,234.0L440.0,234.0L440.6,234.0L441.1,234.0L441.6,234.0L442.1,234.0L442.6,234.0L443.1,234.0L443.6,234.0L444.1,234.0L444.6,234.0L445.2,234.0L445.7,234.0L446.2,234.0L446.7,234.0L447.2,234.0L447.7,234.0L448.2,234.0L448.7,234.0L449.2,234.0L449.8,234.0L450.3,234.0L450.8,234.0L451.3,234.0L451.8,234.0L452.3,234.0L452.8,234.0L453.3,234.0L453.8,234.0L454.4,234.0L454.9,234.0L455.4,234.0L455.9,234.0L456.4,234.0L456.9,234.0L457.4,234.0L457.9,234.0L458.4,234.0L459.0,234.0L459.5,234.0L460.0,234.0L460.5,234.0L461.0,234.0L461.5,233.9L462.0,233.8L462.5,233.6L463.0,232.9L463.6,231.6L464.1,229.1L464.6,224.9L465.1,218.7L465.6,210.6L466.1,201.7L466.6,193.4L467.1,187.7L467.6,186.0L468.2,188.9L468.7,195.6L469.2,204.2L469.7,213.1L470.2,220.7L470.7,226.3L471.2,229.9L471.7,232.1L472.2,233.2L472.8,233.7L473.3,233.9L473.8,234.0L474.3,234.0L474.8,234.0L475.3,234.0L475.8,234.0L476.3,234.0L476.8,234.0L477.4,234.0L477.9,234.0L478.4,234.0L478.9,234.0L479.4,234.0L479.9,234.0L480.4,234.0L480.9,234.0L481.4,234.0L482.0,234.0L482.5,234.0L483.0,234.0L483.5,234.0L484.0,234.0L484.5,234.0L485.0,234.0L485.5,234.0L486.0,234.0L486.6,234.0L487.1,234.0L487.6,234.0L488.1,234.0L488.6,234.0L489.1,234.0L489.6,234.0L490.1,234.0L490.6,234.0L491.2,234.0L491.7,234.0L492.2,234.0L492.7,234.0L493.2,234.0L493.7,234.0L494.2,234.0L494.7,234.0L495.2,234.0L495.8,234.0L496.3,234.0L496.8,234.0L497.3,234.0L497.8,234.0L498.3,234.0L498.8,234.0L499.3,234.0L499.8,234.0L500.4,234.0L500.9,234.0L501.4,234.0L501.9,234.0L502.4,234.0L502.9,234.0L503.4,234.0L503.9,234.0L504.4,234.0L505.0,234.0L505.5,234.0L506.0,234.0L506.5,234.0L507.0,234.0L507.5,234.0L508.0,234.0L508.5,234.0L509.0,234.0L509.6,234.0L510.1,234.0L510.6,234.0L511.1,234.0L511.6,234.0L512.1,234.0L512.6,234.0L513.1,234.0L513.6,234.0L514.2,234.0L514.7,234.0L515.2,234.0L515.7,234.0L516.2,234.0L516.7,234.0L517.2,234.0L517.7,234.0L518.2,234.0L518.8,234.0L519.3,234.0L519.8,234.0L520.3,234.0L520.8,234.0L521.3,234.0L521.8,234.0L522.3,234.0L522.8,234.0L523.4,234.0L523.9,234.0L524.4,234.0L524.9,234.0L525.4,234.0L525.9,234.0L526.4,234.0L526.9,234.0L527.4,234.0L528.0,234.0L528.5,234.0L529.0,234.0L529.5,234.0L530.0,234.0L530.5,234.0L531.0,234.0L531.5,234.0L532.0,234.0L532.6,234.0L533.1,234.0L533.6,234.0L534.1,234.0L534.6,234.0L535.1,234.0L535.6,234.0L536.1,234.0L536.6,234.0L537.2,234.0L537.7,234.0L538.2,234.0L538.7,234.0L539.2,234.0L539.7,234.0L540.2,234.0L540.7,234.0L541.2,234.0L541.8,234.0L542.3,234.0L542.8,234.0L543.3,234.0L543.8,234.0L544.3,234.0L544.8,234.0L545.3,234.0L545.8,234.0L546.4,234.0L546.9,234.0L547.4,234.0L547.9,234.0L548.4,234.0L548.9,234.0L549.4,234.0L549.9,234.0L550.4,234.0L551.0,234.0L551.5,234.0L552.0,234.0L552.5,234.0L553.0,234.0L553.5,234.0L554.0,234.0L554.5,234.0L555.0,234.0L555.6,234.0L556.1,234.0L556.6,234.0L557.1,234.0L557.6,234.0L558.1,234.0L558.6,234.0L559.1,234.0L559.6,234.0L560.2,234.0L560.7,234.0L561.2,234.0L561.7,234.0L562.2,234.0L562.7,234.0L563.2,234.0L563.7,234.0L564.2,234.0L564.8,234.0L565.3,234.0L565.8,234.0L566.3,234.0L566.8,234.0L567.3,234.0L567.8,234.0L568.3,234.0L568.8,234.0L569.4,234.0L569.9,234.0L570.4,234.0L570.9,234.0L571.4,234.0L571.9,234.0L572.4,234.0L572.9,234.0L573.4,234.0L574.0,234.0L574.5,234.0L575.0,234.0L575.5,234.0L576.0,234.0L576.5,234.0L577.0,234.0L577.5,234.0L578.0,234.0L578.6,234.0L579.1,234.0L579.6,234.0L580.1,234.0L580.6,234.0L581.1,234.0L581.6,234.0L582.1,234.0L582.6,234.0L583.2,234.0L583.7,234.0L584.2,234.0L584.7,234.0L585.2,234.0L585.7,234.0L586.2,234.0L586.7,234.0L587.2,234.0L587.8,234.0L588.3,234.0L588.8,234.0L589.3,234.0L589.8,234.0L590.3,234.0L590.8,234.0L591.3,234.0L591.8,234.0L592.4,234.0L592.9,234.0L593.4,234.0L593.9,234.0L594.4,234.0L594.9,234.0L595.4,234.0L595.9,234.0L596.4,234.0L597.0,234.0L597.5,234.0L598.0,234.0L598.5,234.0L599.0,234.0L599.5,234.0L600.0,234.0L600.5,234.0L601.0,234.0L601.6,234.0L602.1,234.0L602.6,234.0L603.1,234.0L603.6,234.0L604.1,234.0L604.6,234.0L605.1,234.0L605.6,234.0L606.2,234.0L606.7,234.0L607.2,234.0L607.7,234.0L608.2,234.0L608.7,234.0L609.2,234.0L609.7,234.0L610.2,234.0L610.8,234.0L611.3,234.0L611.8,234.0L612.3,234.0L612.8,234.0L613.3,234.0L613.8,234.0L614.3,234.0L614.8,234.0L615.4,234.0L615.9,234.0L616.4,234.0L616.9,234.0L617.4,234.0L617.9,234.0L618.4,234.0L618.9,234.0L619.4,234.0L620.0,234.0L620.5,234.0L621.0,234.0L621.5,234.0L622.0,234.0L622.5,234.0L623.0,234.0L623.5,234.0L624.0,234.0L624.6,234.0L625.1,234.0L625.6,234.0L626.1,234.0L626.6,234.0L627.1,234.0L627.6,234.0L628.1,234.0L628.6,234.0L629.2,234.0L629.7,234.0L630.2,234.0L630.7,234.0L631.2,234.0L631.7,234.0L632.2,234.0L632.7,234.0L633.2,234.0L633.8,234.0L634.3,234.0L634.8,234.0L635.3,234.0L635.8,234.0L636.3,234.0L636.8,234.0L637.3,234.0L637.8,234.0L638.4,234.0L638.9,234.0L639.4,234.0L639.9,234.0L640.4,234.0L640.9,234.0L641.4,234.0L641.9,234.0L642.4,234.0L643.0,234.0L643.5,234.0L644.0,234.0L644.5,234.0L645.0,234.0L645,234L185,234Z"/>
  <path class="line s3" d="M185.0,234.0L185.5,234.0L186.0,234.0L186.5,234.0L187.0,234.0L187.6,234.0L188.1,234.0L188.6,234.0L189.1,234.0L189.6,234.0L190.1,234.0L190.6,234.0L191.1,234.0L191.6,234.0L192.2,234.0L192.7,234.0L193.2,234.0L193.7,234.0L194.2,234.0L194.7,234.0L195.2,234.0L195.7,234.0L196.2,234.0L196.8,234.0L197.3,234.0L197.8,234.0L198.3,234.0L198.8,234.0L199.3,234.0L199.8,234.0L200.3,234.0L200.8,234.0L201.4,234.0L201.9,234.0L202.4,234.0L202.9,234.0L203.4,234.0L203.9,234.0L204.4,234.0L204.9,234.0L205.4,234.0L206.0,234.0L206.5,234.0L207.0,234.0L207.5,234.0L208.0,234.0L208.5,234.0L209.0,234.0L209.5,234.0L210.0,234.0L210.6,234.0L211.1,234.0L211.6,234.0L212.1,234.0L212.6,234.0L213.1,234.0L213.6,234.0L214.1,234.0L214.6,234.0L215.2,234.0L215.7,234.0L216.2,234.0L216.7,234.0L217.2,234.0L217.7,234.0L218.2,234.0L218.7,234.0L219.2,234.0L219.8,234.0L220.3,234.0L220.8,234.0L221.3,234.0L221.8,234.0L222.3,234.0L222.8,234.0L223.3,234.0L223.8,234.0L224.4,234.0L224.9,234.0L225.4,234.0L225.9,234.0L226.4,234.0L226.9,234.0L227.4,234.0L227.9,234.0L228.4,234.0L229.0,234.0L229.5,234.0L230.0,234.0L230.5,234.0L231.0,234.0L231.5,234.0L232.0,234.0L232.5,234.0L233.0,234.0L233.6,234.0L234.1,234.0L234.6,234.0L235.1,234.0L235.6,234.0L236.1,234.0L236.6,234.0L237.1,234.0L237.6,234.0L238.2,234.0L238.7,234.0L239.2,234.0L239.7,234.0L240.2,234.0L240.7,234.0L241.2,234.0L241.7,234.0L242.2,234.0L242.8,234.0L243.3,234.0L243.8,234.0L244.3,234.0L244.8,234.0L245.3,234.0L245.8,234.0L246.3,234.0L246.8,234.0L247.4,234.0L247.9,234.0L248.4,234.0L248.9,234.0L249.4,234.0L249.9,234.0L250.4,234.0L250.9,234.0L251.4,234.0L252.0,234.0L252.5,234.0L253.0,234.0L253.5,234.0L254.0,234.0L254.5,234.0L255.0,234.0L255.5,234.0L256.0,234.0L256.6,234.0L257.1,234.0L257.6,234.0L258.1,234.0L258.6,234.0L259.1,234.0L259.6,234.0L260.1,234.0L260.6,234.0L261.2,234.0L261.7,234.0L262.2,234.0L262.7,234.0L263.2,234.0L263.7,234.0L264.2,234.0L264.7,234.0L265.2,234.0L265.8,234.0L266.3,234.0L266.8,234.0L267.3,234.0L267.8,234.0L268.3,234.0L268.8,234.0L269.3,234.0L269.8,234.0L270.4,234.0L270.9,234.0L271.4,234.0L271.9,234.0L272.4,234.0L272.9,234.0L273.4,234.0L273.9,234.0L274.4,234.0L275.0,234.0L275.5,234.0L276.0,234.0L276.5,234.0L277.0,234.0L277.5,234.0L278.0,234.0L278.5,234.0L279.0,234.0L279.6,234.0L280.1,234.0L280.6,234.0L281.1,234.0L281.6,234.0L282.1,234.0L282.6,234.0L283.1,234.0L283.6,234.0L284.2,234.0L284.7,234.0L285.2,234.0L285.7,234.0L286.2,234.0L286.7,234.0L287.2,234.0L287.7,234.0L288.2,234.0L288.8,234.0L289.3,234.0L289.8,234.0L290.3,234.0L290.8,234.0L291.3,234.0L291.8,234.0L292.3,234.0L292.8,234.0L293.4,234.0L293.9,234.0L294.4,234.0L294.9,234.0L295.4,234.0L295.9,234.0L296.4,234.0L296.9,234.0L297.4,234.0L298.0,234.0L298.5,234.0L299.0,234.0L299.5,234.0L300.0,234.0L300.5,234.0L301.0,234.0L301.5,234.0L302.0,234.0L302.6,234.0L303.1,234.0L303.6,234.0L304.1,234.0L304.6,234.0L305.1,234.0L305.6,234.0L306.1,234.0L306.6,234.0L307.2,234.0L307.7,234.0L308.2,234.0L308.7,234.0L309.2,234.0L309.7,234.0L310.2,234.0L310.7,234.0L311.2,234.0L311.8,234.0L312.3,234.0L312.8,234.0L313.3,234.0L313.8,234.0L314.3,234.0L314.8,234.0L315.3,234.0L315.8,234.0L316.4,234.0L316.9,234.0L317.4,234.0L317.9,234.0L318.4,234.0L318.9,234.0L319.4,234.0L319.9,234.0L320.4,234.0L321.0,234.0L321.5,234.0L322.0,234.0L322.5,234.0L323.0,234.0L323.5,234.0L324.0,234.0L324.5,234.0L325.0,234.0L325.6,234.0L326.1,234.0L326.6,234.0L327.1,234.0L327.6,234.0L328.1,234.0L328.6,234.0L329.1,234.0L329.6,234.0L330.2,234.0L330.7,234.0L331.2,234.0L331.7,234.0L332.2,234.0L332.7,234.0L333.2,234.0L333.7,234.0L334.2,234.0L334.8,234.0L335.3,234.0L335.8,234.0L336.3,234.0L336.8,234.0L337.3,234.0L337.8,234.0L338.3,234.0L338.8,234.0L339.4,234.0L339.9,234.0L340.4,234.0L340.9,234.0L341.4,234.0L341.9,234.0L342.4,234.0L342.9,234.0L343.4,234.0L344.0,234.0L344.5,234.0L345.0,234.0L345.5,234.0L346.0,234.0L346.5,234.0L347.0,234.0L347.5,234.0L348.0,234.0L348.6,234.0L349.1,234.0L349.6,234.0L350.1,234.0L350.6,234.0L351.1,234.0L351.6,234.0L352.1,234.0L352.6,234.0L353.2,234.0L353.7,234.0L354.2,234.0L354.7,234.0L355.2,234.0L355.7,234.0L356.2,234.0L356.7,234.0L357.2,234.0L357.8,234.0L358.3,234.0L358.8,234.0L359.3,234.0L359.8,234.0L360.3,234.0L360.8,234.0L361.3,234.0L361.8,234.0L362.4,234.0L362.9,234.0L363.4,234.0L363.9,234.0L364.4,234.0L364.9,234.0L365.4,234.0L365.9,234.0L366.4,234.0L367.0,234.0L367.5,234.0L368.0,234.0L368.5,234.0L369.0,234.0L369.5,234.0L370.0,234.0L370.5,234.0L371.0,234.0L371.6,234.0L372.1,234.0L372.6,234.0L373.1,234.0L373.6,234.0L374.1,234.0L374.6,234.0L375.1,234.0L375.6,234.0L376.2,234.0L376.7,234.0L377.2,234.0L377.7,234.0L378.2,234.0L378.7,234.0L379.2,234.0L379.7,234.0L380.2,234.0L380.8,234.0L381.3,234.0L381.8,234.0L382.3,234.0L382.8,234.0L383.3,234.0L383.8,234.0L384.3,234.0L384.8,234.0L385.4,234.0L385.9,234.0L386.4,234.0L386.9,234.0L387.4,234.0L387.9,234.0L388.4,234.0L388.9,234.0L389.4,234.0L390.0,234.0L390.5,234.0L391.0,234.0L391.5,234.0L392.0,234.0L392.5,234.0L393.0,234.0L393.5,234.0L394.0,234.0L394.6,234.0L395.1,234.0L395.6,234.0L396.1,234.0L396.6,234.0L397.1,234.0L397.6,234.0L398.1,234.0L398.6,234.0L399.2,234.0L399.7,234.0L400.2,234.0L400.7,234.0L401.2,234.0L401.7,234.0L402.2,234.0L402.7,234.0L403.2,234.0L403.8,234.0L404.3,234.0L404.8,234.0L405.3,234.0L405.8,234.0L406.3,234.0L406.8,234.0L407.3,234.0L407.8,234.0L408.4,234.0L408.9,234.0L409.4,234.0L409.9,234.0L410.4,234.0L410.9,234.0L411.4,234.0L411.9,234.0L412.4,234.0L413.0,234.0L413.5,234.0L414.0,234.0L414.5,234.0L415.0,234.0L415.5,234.0L416.0,234.0L416.5,234.0L417.0,234.0L417.6,234.0L418.1,234.0L418.6,234.0L419.1,234.0L419.6,234.0L420.1,234.0L420.6,234.0L421.1,234.0L421.6,234.0L422.2,234.0L422.7,234.0L423.2,234.0L423.7,234.0L424.2,234.0L424.7,234.0L425.2,234.0L425.7,234.0L426.2,234.0L426.8,234.0L427.3,234.0L427.8,234.0L428.3,234.0L428.8,234.0L429.3,234.0L429.8,234.0L430.3,234.0L430.8,234.0L431.4,234.0L431.9,234.0L432.4,234.0L432.9,234.0L433.4,234.0L433.9,234.0L434.4,234.0L434.9,234.0L435.4,234.0L436.0,234.0L436.5,234.0L437.0,234.0L437.5,234.0L438.0,234.0L438.5,234.0L439.0,234.0L439.5,234.0L440.0,234.0L440.6,234.0L441.1,234.0L441.6,234.0L442.1,234.0L442.6,234.0L443.1,234.0L443.6,234.0L444.1,234.0L444.6,234.0L445.2,234.0L445.7,234.0L446.2,234.0L446.7,234.0L447.2,234.0L447.7,234.0L448.2,234.0L448.7,234.0L449.2,234.0L449.8,234.0L450.3,234.0L450.8,234.0L451.3,234.0L451.8,234.0L452.3,234.0L452.8,234.0L453.3,234.0L453.8,234.0L454.4,234.0L454.9,234.0L455.4,234.0L455.9,234.0L456.4,234.0L456.9,234.0L457.4,234.0L457.9,234.0L458.4,234.0L459.0,234.0L459.5,234.0L460.0,234.0L460.5,234.0L461.0,234.0L461.5,233.9L462.0,233.8L462.5,233.6L463.0,232.9L463.6,231.6L464.1,229.1L464.6,224.9L465.1,218.7L465.6,210.6L466.1,201.7L466.6,193.4L467.1,187.7L467.6,186.0L468.2,188.9L468.7,195.6L469.2,204.2L469.7,213.1L470.2,220.7L470.7,226.3L471.2,229.9L471.7,232.1L472.2,233.2L472.8,233.7L473.3,233.9L473.8,234.0L474.3,234.0L474.8,234.0L475.3,234.0L475.8,234.0L476.3,234.0L476.8,234.0L477.4,234.0L477.9,234.0L478.4,234.0L478.9,234.0L479.4,234.0L479.9,234.0L480.4,234.0L480.9,234.0L481.4,234.0L482.0,234.0L482.5,234.0L483.0,234.0L483.5,234.0L484.0,234.0L484.5,234.0L485.0,234.0L485.5,234.0L486.0,234.0L486.6,234.0L487.1,234.0L487.6,234.0L488.1,234.0L488.6,234.0L489.1,234.0L489.6,234.0L490.1,234.0L490.6,234.0L491.2,234.0L491.7,234.0L492.2,234.0L492.7,234.0L493.2,234.0L493.7,234.0L494.2,234.0L494.7,234.0L495.2,234.0L495.8,234.0L496.3,234.0L496.8,234.0L497.3,234.0L497.8,234.0L498.3,234.0L498.8,234.0L499.3,234.0L499.8,234.0L500.4,234.0L500.9,234.0L501.4,234.0L501.9,234.0L502.4,234.0L502.9,234.0L503.4,234.0L503.9,234.0L504.4,234.0L505.0,234.0L505.5,234.0L506.0,234.0L506.5,234.0L507.0,234.0L507.5,234.0L508.0,234.0L508.5,234.0L509.0,234.0L509.6,234.0L510.1,234.0L510.6,234.0L511.1,234.0L511.6,234.0L512.1,234.0L512.6,234.0L513.1,234.0L513.6,234.0L514.2,234.0L514.7,234.0L515.2,234.0L515.7,234.0L516.2,234.0L516.7,234.0L517.2,234.0L517.7,234.0L518.2,234.0L518.8,234.0L519.3,234.0L519.8,234.0L520.3,234.0L520.8,234.0L521.3,234.0L521.8,234.0L522.3,234.0L522.8,234.0L523.4,234.0L523.9,234.0L524.4,234.0L524.9,234.0L525.4,234.0L525.9,234.0L526.4,234.0L526.9,234.0L527.4,234.0L528.0,234.0L528.5,234.0L529.0,234.0L529.5,234.0L530.0,234.0L530.5,234.0L531.0,234.0L531.5,234.0L532.0,234.0L532.6,234.0L533.1,234.0L533.6,234.0L534.1,234.0L534.6,234.0L535.1,234.0L535.6,234.0L536.1,234.0L536.6,234.0L537.2,234.0L537.7,234.0L538.2,234.0L538.7,234.0L539.2,234.0L539.7,234.0L540.2,234.0L540.7,234.0L541.2,234.0L541.8,234.0L542.3,234.0L542.8,234.0L543.3,234.0L543.8,234.0L544.3,234.0L544.8,234.0L545.3,234.0L545.8,234.0L546.4,234.0L546.9,234.0L547.4,234.0L547.9,234.0L548.4,234.0L548.9,234.0L549.4,234.0L549.9,234.0L550.4,234.0L551.0,234.0L551.5,234.0L552.0,234.0L552.5,234.0L553.0,234.0L553.5,234.0L554.0,234.0L554.5,234.0L555.0,234.0L555.6,234.0L556.1,234.0L556.6,234.0L557.1,234.0L557.6,234.0L558.1,234.0L558.6,234.0L559.1,234.0L559.6,234.0L560.2,234.0L560.7,234.0L561.2,234.0L561.7,234.0L562.2,234.0L562.7,234.0L563.2,234.0L563.7,234.0L564.2,234.0L564.8,234.0L565.3,234.0L565.8,234.0L566.3,234.0L566.8,234.0L567.3,234.0L567.8,234.0L568.3,234.0L568.8,234.0L569.4,234.0L569.9,234.0L570.4,234.0L570.9,234.0L571.4,234.0L571.9,234.0L572.4,234.0L572.9,234.0L573.4,234.0L574.0,234.0L574.5,234.0L575.0,234.0L575.5,234.0L576.0,234.0L576.5,234.0L577.0,234.0L577.5,234.0L578.0,234.0L578.6,234.0L579.1,234.0L579.6,234.0L580.1,234.0L580.6,234.0L581.1,234.0L581.6,234.0L582.1,234.0L582.6,234.0L583.2,234.0L583.7,234.0L584.2,234.0L584.7,234.0L585.2,234.0L585.7,234.0L586.2,234.0L586.7,234.0L587.2,234.0L587.8,234.0L588.3,234.0L588.8,234.0L589.3,234.0L589.8,234.0L590.3,234.0L590.8,234.0L591.3,234.0L591.8,234.0L592.4,234.0L592.9,234.0L593.4,234.0L593.9,234.0L594.4,234.0L594.9,234.0L595.4,234.0L595.9,234.0L596.4,234.0L597.0,234.0L597.5,234.0L598.0,234.0L598.5,234.0L599.0,234.0L599.5,234.0L600.0,234.0L600.5,234.0L601.0,234.0L601.6,234.0L602.1,234.0L602.6,234.0L603.1,234.0L603.6,234.0L604.1,234.0L604.6,234.0L605.1,234.0L605.6,234.0L606.2,234.0L606.7,234.0L607.2,234.0L607.7,234.0L608.2,234.0L608.7,234.0L609.2,234.0L609.7,234.0L610.2,234.0L610.8,234.0L611.3,234.0L611.8,234.0L612.3,234.0L612.8,234.0L613.3,234.0L613.8,234.0L614.3,234.0L614.8,234.0L615.4,234.0L615.9,234.0L616.4,234.0L616.9,234.0L617.4,234.0L617.9,234.0L618.4,234.0L618.9,234.0L619.4,234.0L620.0,234.0L620.5,234.0L621.0,234.0L621.5,234.0L622.0,234.0L622.5,234.0L623.0,234.0L623.5,234.0L624.0,234.0L624.6,234.0L625.1,234.0L625.6,234.0L626.1,234.0L626.6,234.0L627.1,234.0L627.6,234.0L628.1,234.0L628.6,234.0L629.2,234.0L629.7,234.0L630.2,234.0L630.7,234.0L631.2,234.0L631.7,234.0L632.2,234.0L632.7,234.0L633.2,234.0L633.8,234.0L634.3,234.0L634.8,234.0L635.3,234.0L635.8,234.0L636.3,234.0L636.8,234.0L637.3,234.0L637.8,234.0L638.4,234.0L638.9,234.0L639.4,234.0L639.9,234.0L640.4,234.0L640.9,234.0L641.4,234.0L641.9,234.0L642.4,234.0L643.0,234.0L643.5,234.0L644.0,234.0L644.5,234.0L645.0,234.0"/>
  <text class="rowlabel" x="0" y="224">Tape measure</text>
  <text class="value" x="467.6" y="176">181 ± 0.5 cm</text>
  <line class="axis" x1="185" y1="234" x2="645" y2="234"/>

  <line class="tick" x1="198.1" y1="234" x2="198.1" y2="239"/>
  <text class="ticklabel" x="198.1" y="253">140</text>

  <line class="tick" x1="263.9" y1="234" x2="263.9" y2="239"/>
  <text class="ticklabel" x="263.9" y="253">150</text>

  <line class="tick" x1="329.6" y1="234" x2="329.6" y2="239"/>
  <text class="ticklabel" x="329.6" y="253">160</text>

  <line class="tick" x1="395.3" y1="234" x2="395.3" y2="239"/>
  <text class="ticklabel" x="395.3" y="253">170</text>

  <line class="tick" x1="461.0" y1="234" x2="461.0" y2="239"/>
  <text class="ticklabel" x="461.0" y="253">180</text>

  <line class="tick" x1="526.7" y1="234" x2="526.7" y2="239"/>
  <text class="ticklabel" x="526.7" y="253">190</text>

  <line class="tick" x1="592.4" y1="234" x2="592.4" y2="239"/>
  <text class="ticklabel" x="592.4" y="253">200</text>
  <text class="axislabel" x="415" y="271">height (cm)</text>
</svg>
