<svg xmlns="http://www.w3.org/2000/svg" viewBox="0 0 660 286" width="660" height="286" role="img">
  <style>
    text { font-family: system-ui, -apple-system, "Segoe UI", sans-serif; }
    .header { font-size: 13px; font-weight: 600; text-anchor: middle; }
    .subheader { font-size: 11px; text-anchor: middle; }
    .rowlabel { font-size: 14px; font-weight: 600; }
    .sublabel { font-size: 11.5px; }
    .footer { font-size: 11px; text-anchor: middle; }
    .baseline { stroke-width: 1; }
    .line-before, .line-after { fill: none; stroke-width: 2; stroke-linecap: round; stroke-linejoin: round; }
    .fill-before, .fill-after { opacity: 0.12; }

    .header, .rowlabel { fill: #52514e; }
    .rowlabel.irr, .sublabel, .footer, .subheader { fill: #898781; }
    .baseline { stroke: #e1e0d9; }
    .line-before.rel { stroke: #6da7ec; }
    .line-after.rel { stroke: #2a78d6; }
    .line-before.irr { stroke: #b3b1aa; }
    .line-after.irr { stroke: #898781; }
    .fill-before.rel { fill: #6da7ec; }
    .fill-after.rel { fill: #2a78d6; }
    .fill-before.irr { fill: #b3b1aa; }
    .fill-after.irr { fill: #898781; }
    @media (prefers-color-scheme: dark) {

    .header, .rowlabel { fill: #c3c2b7; }
    .rowlabel.irr, .sublabel, .footer, .subheader { fill: #898781; }
    .baseline { stroke: #2c2c2a; }
    .line-before.rel { stroke: #256abf; }
    .line-after.rel { stroke: #3987e5; }
    .line-before.irr { stroke: #4c4b47; }
    .line-after.irr { stroke: #898781; }
    .fill-before.rel { fill: #256abf; }
    .fill-after.rel { fill: #3987e5; }
    .fill-before.irr { fill: #4c4b47; }
    .fill-after.irr { fill: #898781; }
    }
  </style>
  
  <text class="header" x="295" y="16">Before interview</text>
  <text class="subheader" x="295" y="32">based on CV &amp; other scorecards</text>
  <text class="header" x="545" y="16">After interview</text>
  <line class="baseline" x1="195" y1="106" x2="395" y2="106"/>
  <line class="baseline" x1="445" y1="106" x2="645" y2="106"/>
  <line class="baseline" x1="195" y1="188" x2="395" y2="188"/>
  <line class="baseline" x1="445" y1="188" x2="645" y2="188"/>
  <line class="baseline" x1="195" y1="270" x2="395" y2="270"/>
  <line class="baseline" x1="445" y1="270" x2="645" y2="270"/>
  <path class="fill-before rel" d="M195.0,105.9L197.8,105.8L200.6,105.8L203.3,105.7L206.1,105.7L208.9,105.6L211.7,105.5L214.4,105.3L217.2,105.2L220.0,105.0L222.8,104.8L225.6,104.5L228.3,104.2L231.1,103.8L233.9,103.4L236.7,103.0L239.4,102.5L242.2,101.9L245.0,101.3L247.8,100.7L250.6,100.0L253.3,99.2L256.1,98.4L258.9,97.6L261.7,96.8L264.4,96.0L267.2,95.2L270.0,94.3L272.8,93.6L275.6,92.9L278.3,92.2L281.1,91.6L283.9,91.1L286.7,90.7L289.4,90.4L292.2,90.2L295.0,90.2L297.8,90.2L300.6,90.4L303.3,90.7L306.1,91.1L308.9,91.6L311.7,92.2L314.4,92.9L317.2,93.6L320.0,94.3L322.8,95.2L325.6,96.0L328.3,96.8L331.1,97.6L333.9,98.4L336.7,99.2L339.4,100.0L342.2,100.7L345.0,101.3L347.8,101.9L350.6,102.5L353.3,103.0L356.1,103.4L358.9,103.8L361.7,104.2L364.4,104.5L367.2,104.8L370.0,105.0L372.8,105.2L375.6,105.3L378.3,105.5L381.1,105.6L383.9,105.7L386.7,105.7L389.4,105.8L392.2,105.8L395.0,105.9L395.0,106L195,106Z"/>
  <path class="line-before rel" d="M195.0,105.9L197.8,105.8L200.6,105.8L203.3,105.7L206.1,105.7L208.9,105.6L211.7,105.5L214.4,105.3L217.2,105.2L220.0,105.0L222.8,104.8L225.6,104.5L228.3,104.2L231.1,103.8L233.9,103.4L236.7,103.0L239.4,102.5L242.2,101.9L245.0,101.3L247.8,100.7L250.6,100.0L253.3,99.2L256.1,98.4L258.9,97.6L261.7,96.8L264.4,96.0L267.2,95.2L270.0,94.3L272.8,93.6L275.6,92.9L278.3,92.2L281.1,91.6L283.9,91.1L286.7,90.7L289.4,90.4L292.2,90.2L295.0,90.2L297.8,90.2L300.6,90.4L303.3,90.7L306.1,91.1L308.9,91.6L311.7,92.2L314.4,92.9L317.2,93.6L320.0,94.3L322.8,95.2L325.6,96.0L328.3,96.8L331.1,97.6L333.9,98.4L336.7,99.2L339.4,100.0L342.2,100.7L345.0,101.3L347.8,101.9L350.6,102.5L353.3,103.0L356.1,103.4L358.9,103.8L361.7,104.2L364.4,104.5L367.2,104.8L370.0,105.0L372.8,105.2L375.6,105.3L378.3,105.5L381.1,105.6L383.9,105.7L386.7,105.7L389.4,105.8L392.2,105.8L395.0,105.9"/>
  <path class="fill-after rel" d="M445.0,106.0L447.8,106.0L450.6,106.0L453.3,106.0L456.1,106.0L458.9,106.0L461.7,106.0L464.4,106.0L467.2,106.0L470.0,106.0L472.8,106.0L475.6,106.0L478.3,106.0L481.1,106.0L483.9,106.0L486.7,106.0L489.4,106.0L492.2,106.0L495.0,106.0L497.8,106.0L500.6,106.0L503.3,106.0L506.1,106.0L508.9,106.0L511.7,106.0L514.4,106.0L517.2,106.0L520.0,106.0L522.8,106.0L525.6,106.0L528.3,106.0L531.1,105.9L533.9,105.7L536.7,105.4L539.4,104.8L542.2,103.6L545.0,101.7L547.8,98.8L550.6,94.7L553.3,89.3L556.1,82.8L558.9,75.9L561.7,69.2L564.4,63.8L567.2,60.6L570.0,60.2L572.8,62.6L575.6,67.5L578.3,73.9L581.1,80.9L583.9,87.6L586.7,93.3L589.4,97.8L592.2,101.0L595.0,103.2L597.8,104.5L600.6,105.2L603.3,105.6L606.1,105.8L608.9,105.9L611.7,106.0L614.4,106.0L617.2,106.0L620.0,106.0L622.8,106.0L625.6,106.0L628.3,106.0L631.1,106.0L633.9,106.0L636.7,106.0L639.4,106.0L642.2,106.0L645.0,106.0L645.0,106L445,106Z"/>
  <path class="line-after rel" d="M445.0,106.0L447.8,106.0L450.6,106.0L453.3,106.0L456.1,106.0L458.9,106.0L461.7,106.0L464.4,106.0L467.2,106.0L470.0,106.0L472.8,106.0L475.6,106.0L478.3,106.0L481.1,106.0L483.9,106.0L486.7,106.0L489.4,106.0L492.2,106.0L495.0,106.0L497.8,106.0L500.6,106.0L503.3,106.0L506.1,106.0L508.9,106.0L511.7,106.0L514.4,106.0L517.2,106.0L520.0,106.0L522.8,106.0L525.6,106.0L528.3,106.0L531.1,105.9L533.9,105.7L536.7,105.4L539.4,104.8L542.2,103.6L545.0,101.7L547.8,98.8L550.6,94.7L553.3,89.3L556.1,82.8L558.9,75.9L561.7,69.2L564.4,63.8L567.2,60.6L570.0,60.2L572.8,62.6L575.6,67.5L578.3,73.9L581.1,80.9L583.9,87.6L586.7,93.3L589.4,97.8L592.2,101.0L595.0,103.2L597.8,104.5L600.6,105.2L603.3,105.6L606.1,105.8L608.9,105.9L611.7,106.0L614.4,106.0L617.2,106.0L620.0,106.0L622.8,106.0L625.6,106.0L628.3,106.0L631.1,106.0L633.9,106.0L636.7,106.0L639.4,106.0L642.2,106.0L645.0,106.0"/>
  <path class="fill-before rel" d="M195.0,188.0L197.8,188.0L200.6,188.0L203.3,188.0L206.1,188.0L208.9,188.0L211.7,188.0L214.4,188.0L217.2,188.0L220.0,188.0L222.8,188.0L225.6,188.0L228.3,188.0L231.1,188.0L233.9,188.0L236.7,188.0L239.4,188.0L242.2,188.0L245.0,188.0L247.8,187.9L250.6,187.9L253.3,187.8L256.1,187.7L258.9,187.6L261.7,187.3L264.4,187.0L267.2,186.5L270.0,185.9L272.8,185.1L275.6,184.0L278.3,182.6L281.1,180.9L283.9,179.0L286.7,176.7L289.4,174.3L292.2,171.7L295.0,169.1L297.8,166.5L300.6,164.2L303.3,162.3L306.1,160.9L308.9,160.1L311.7,159.9L314.4,160.4L317.2,161.5L320.0,163.2L322.8,165.3L325.6,167.7L328.3,170.3L331.1,172.9L333.9,175.5L336.7,177.8L339.4,179.9L342.2,181.8L345.0,183.3L347.8,184.5L350.6,185.5L353.3,186.2L356.1,186.8L358.9,187.2L361.7,187.5L364.4,187.7L367.2,187.8L370.0,187.9L372.8,187.9L375.6,188.0L378.3,188.0L381.1,188.0L383.9,188.0L386.7,188.0L389.4,188.0L392.2,188.0L395.0,188.0L395.0,188L195,188Z"/>
  <path class="line-before rel" d="M195.0,188.0L197.8,188.0L200.6,188.0L203.3,188.0L206.1,188.0L208.9,188.0L211.7,188.0L214.4,188.0L217.2,188.0L220.0,188.0L222.8,188.0L225.6,188.0L228.3,188.0L231.1,188.0L233.9,188.0L236.7,188.0L239.4,188.0L242.2,188.0L245.0,188.0L247.8,187.9L250.6,187.9L253.3,187.8L256.1,187.7L258.9,187.6L261.7,187.3L264.4,187.0L267.2,186.5L270.0,185.9L272.8,185.1L275.6,184.0L278.3,182.6L281.1,180.9L283.9,179.0L286.7,176.7L289.4,174.3L292.2,171.7L295.0,169.1L297.8,166.5L300.6,164.2L303.3,162.3L306.1,160.9L308.9,160.1L311.7,159.9L314.4,160.4L317.2,161.5L320.0,163.2L322.8,165.3L325.6,167.7L328.3,170.3L331.1,172.9L333.9,175.5L336.7,177.8L339.4,179.9L342.2,181.8L345.0,183.3L347.8,184.5L350.6,185.5L353.3,186.2L356.1,186.8L358.9,187.2L361.7,187.5L364.4,187.7L367.2,187.8L370.0,187.9L372.8,187.9L375.6,188.0L378.3,188.0L381.1,188.0L383.9,188.0L386.7,188.0L389.4,188.0L392.2,188.0L395.0,188.0"/>
  <path class="fill-after rel" d="M445.0,188.0L447.8,188.0L450.6,188.0L453.3,188.0L456.1,188.0L458.9,188.0L461.7,188.0L464.4,188.0L467.2,188.0L470.0,188.0L472.8,188.0L475.6,188.0L478.3,188.0L481.1,188.0L483.9,188.0L486.7,188.0L489.4,188.0L492.2,188.0L495.0,188.0L497.8,188.0L500.6,188.0L503.3,188.0L506.1,188.0L508.9,188.0L511.7,187.9L514.4,187.9L517.2,187.7L520.0,187.4L522.8,186.9L525.6,185.9L528.3,184.4L531.1,182.2L533.9,179.0L536.7,174.9L539.4,169.8L542.2,164.1L545.0,158.2L547.8,152.8L550.6,148.6L553.3,146.2L556.1,146.0L558.9,148.0L561.7,151.9L564.4,157.1L567.2,162.9L570.0,168.7L572.8,173.9L575.6,178.3L578.3,181.6L581.1,184.0L583.9,185.7L586.7,186.7L589.4,187.3L592.2,187.7L595.0,187.8L597.8,187.9L600.6,188.0L603.3,188.0L606.1,188.0L608.9,188.0L611.7,188.0L614.4,188.0L617.2,188.0L620.0,188.0L622.8,188.0L625.6,188.0L628.3,188.0L631.1,188.0L633.9,188.0L636.7,188.0L639.4,188.0L642.2,188.0L645.0,188.0L645.0,188L445,188Z"/>
  <path class="line-after rel" d="M445.0,188.0L447.8,188.0L450.6,188.0L453.3,188.0L456.1,188.0L458.9,188.0L461.7,188.0L464.4,188.0L467.2,188.0L470.0,188.0L472.8,188.0L475.6,188.0L478.3,188.0L481.1,188.0L483.9,188.0L486.7,188.0L489.4,188.0L492.2,188.0L495.0,188.0L497.8,188.0L500.6,188.0L503.3,188.0L506.1,188.0L508.9,188.0L511.7,187.9L514.4,187.9L517.2,187.7L520.0,187.4L522.8,186.9L525.6,185.9L528.3,184.4L531.1,182.2L533.9,179.0L536.7,174.9L539.4,169.8L542.2,164.1L545.0,158.2L547.8,152.8L550.6,148.6L553.3,146.2L556.1,146.0L558.9,148.0L561.7,151.9L564.4,157.1L567.2,162.9L570.0,168.7L572.8,173.9L575.6,178.3L578.3,181.6L581.1,184.0L583.9,185.7L586.7,186.7L589.4,187.3L592.2,187.7L595.0,187.8L597.8,187.9L600.6,188.0L603.3,188.0L606.1,188.0L608.9,188.0L611.7,188.0L614.4,188.0L617.2,188.0L620.0,188.0L622.8,188.0L625.6,188.0L628.3,188.0L631.1,188.0L633.9,188.0L636.7,188.0L639.4,188.0L642.2,188.0L645.0,188.0"/>
  <path class="fill-before rel" d="M195.0,270.0L197.8,270.0L200.6,270.0L203.3,270.0L206.1,269.9L208.9,269.9L211.7,269.9L214.4,269.8L217.2,269.8L220.0,269.7L222.8,269.6L225.6,269.5L228.3,269.3L231.1,269.0L233.9,268.8L236.7,268.4L239.4,268.0L242.2,267.5L245.0,266.9L247.8,266.3L250.6,265.5L253.3,264.6L256.1,263.6L258.9,262.6L261.7,261.4L264.4,260.2L267.2,259.0L270.0,257.7L272.8,256.5L275.6,255.3L278.3,254.2L281.1,253.1L283.9,252.2L286.7,251.5L289.4,251.0L292.2,250.6L295.0,250.5L297.8,250.6L300.6,251.0L303.3,251.5L306.1,252.2L308.9,253.1L311.7,254.2L314.4,255.3L317.2,256.5L320.0,257.7L322.8,259.0L325.6,260.2L328.3,261.4L331.1,262.6L333.9,263.6L336.7,264.6L339.4,265.5L342.2,266.3L345.0,266.9L347.8,267.5L350.6,268.0L353.3,268.4L356.1,268.8L358.9,269.0L361.7,269.3L364.4,269.5L367.2,269.6L370.0,269.7L372.8,269.8L375.6,269.8L378.3,269.9L381.1,269.9L383.9,269.9L386.7,270.0L389.4,270.0L392.2,270.0L395.0,270.0L395.0,270L195,270Z"/>
  <path class="line-before rel" d="M195.0,270.0L197.8,270.0L200.6,270.0L203.3,270.0L206.1,269.9L208.9,269.9L211.7,269.9L214.4,269.8L217.2,269.8L220.0,269.7L222.8,269.6L225.6,269.5L228.3,269.3L231.1,269.0L233.9,268.8L236.7,268.4L239.4,268.0L242.2,267.5L245.0,266.9L247.8,266.3L250.6,265.5L253.3,264.6L256.1,263.6L258.9,262.6L261.7,261.4L264.4,260.2L267.2,259.0L270.0,257.7L272.8,256.5L275.6,255.3L278.3,254.2L281.1,253.1L283.9,252.2L286.7,251.5L289.4,251.0L292.2,250.6L295.0,250.5L297.8,250.6L300.6,251.0L303.3,251.5L306.1,252.2L308.9,253.1L311.7,254.2L314.4,255.3L317.2,256.5L320.0,257.7L322.8,259.0L325.6,260.2L328.3,261.4L331.1,262.6L333.9,263.6L336.7,264.6L339.4,265.5L342.2,266.3L345.0,266.9L347.8,267.5L350.6,268.0L353.3,268.4L356.1,268.8L358.9,269.0L361.7,269.3L364.4,269.5L367.2,269.6L370.0,269.7L372.8,269.8L375.6,269.8L378.3,269.9L381.1,269.9L383.9,269.9L386.7,270.0L389.4,270.0L392.2,270.0L395.0,270.0"/>
  <path class="fill-after rel" d="M445.0,270.0L447.8,270.0L450.6,269.9L453.3,269.9L456.1,269.8L458.9,269.6L461.7,269.3L464.4,268.8L467.2,268.0L470.0,266.9L472.8,265.3L475.6,263.1L478.3,260.3L481.1,256.8L483.9,252.9L486.7,248.6L489.4,244.3L492.2,240.3L495.0,237.0L497.8,234.8L500.6,233.9L503.3,234.4L506.1,236.2L508.9,239.2L511.7,243.0L514.4,247.2L517.2,251.5L520.0,255.6L522.8,259.2L525.6,262.2L528.3,264.6L531.1,266.4L533.9,267.7L536.7,268.6L539.4,269.2L542.2,269.5L545.0,269.7L547.8,269.9L550.6,269.9L553.3,270.0L556.1,270.0L558.9,270.0L561.7,270.0L564.4,270.0L567.2,270.0L570.0,270.0L572.8,270.0L575.6,270.0L578.3,270.0L581.1,270.0L583.9,270.0L586.7,270.0L589.4,270.0L592.2,270.0L595.0,270.0L597.8,270.0L600.6,270.0L603.3,270.0L606.1,270.0L608.9,270.0L611.7,270.0L614.4,270.0L617.2,270.0L620.0,270.0L622.8,270.0L625.6,270.0L628.3,270.0L631.1,270.0L633.9,270.0L636.7,270.0L639.4,270.0L642.2,270.0L645.0,270.0L645.0,270L445,270Z"/>
  <path class="line-after rel" d="M445.0,270.0L447.8,270.0L450.6,269.9L453.3,269.9L456.1,269.8L458.9,269.6L461.7,269.3L464.4,268.8L467.2,268.0L470.0,266.9L472.8,265.3L475.6,263.1L478.3,260.3L481.1,256.8L483.9,252.9L486.7,248.6L489.4,244.3L492.2,240.3L495.0,237.0L497.8,234.8L500.6,233.9L503.3,234.4L506.1,236.2L508.9,239.2L511.7,243.0L514.4,247.2L517.2,251.5L520.0,255.6L522.8,259.2L525.6,262.2L528.3,264.6L531.1,266.4L533.9,267.7L536.7,268.6L539.4,269.2L542.2,269.5L545.0,269.7L547.8,269.9L550.6,269.9L553.3,270.0L556.1,270.0L558.9,270.0L561.7,270.0L564.4,270.0L567.2,270.0L570.0,270.0L572.8,270.0L575.6,270.0L578.3,270.0L581.1,270.0L583.9,270.0L586.7,270.0L589.4,270.0L592.2,270.0L595.0,270.0L597.8,270.0L600.6,270.0L603.3,270.0L606.1,270.0L608.9,270.0L611.7,270.0L614.4,270.0L617.2,270.0L620.0,270.0L622.8,270.0L625.6,270.0L628.3,270.0L631.1,270.0L633.9,270.0L636.7,270.0L639.4,270.0L642.2,270.0L645.0,270.0"/>
  <text class="rowlabel rel" x="0" y="86.0">Agency</text>
  <text class="rowlabel rel" x="0" y="168.0">Domain expertise</text>
  <text class="rowlabel rel" x="0" y="250.0">Communication</text>
</svg>
